<ttFont>
    <TTGlyph name=".notdef" xMin="177" yMin="0" xMax="1593" yMax="1416">
      <contour>
        <pt x="177" y="1416" on="1"/>
        <pt x="1593" y="1416" on="1"/>
        <pt x="1593" y="0" on="1"/>
        <pt x="177" y="0" on="1"/>
      </contour>
      <contour>
        <pt x="378" y="864" on="1"/>
        <pt x="457" y="933" on="0"/>
        <pt x="492" y="933" on="1"/>
        <pt x="530" y="933" on="0"/>
        <pt x="601" y="860" on="1"/>
        <pt x="753" y="708" on="1"/>
        <pt x="600" y="556" on="1"/>
        <pt x="527" y="483" on="0"/>
        <pt x="469" y="483" on="0"/>
        <pt x="418" y="519" on="0"/>
        <pt x="377" y="552" on="1"/>
        <pt x="323" y="497" on="1"/>
        <pt x="670" y="149" on="1"/>
        <pt x="725" y="204" on="1"/>
        <pt x="656" y="283" on="0"/>
        <pt x="656" y="318" on="1"/>
        <pt x="656" y="356" on="0"/>
        <pt x="729" y="427" on="1"/>
        <pt x="882" y="579" on="1"/>
        <pt x="1032" y="429" on="1"/>
        <pt x="1106" y="355" on="0"/>
        <pt x="1106" y="299" on="0"/>
        <pt x="1081" y="258" on="0"/>
        <pt x="1058" y="227" on="1"/>
        <pt x="1039" y="202" on="1"/>
        <pt x="1092" y="150" on="1"/>
        <pt x="1440" y="497" on="1"/>
        <pt x="1387" y="550" on="1"/>
        <pt x="1358" y="530" on="1"/>
        <pt x="1297" y="483" on="0"/>
        <pt x="1248" y="483" on="0"/>
        <pt x="1201" y="518" on="0"/>
        <pt x="1161" y="558" on="1"/>
        <pt x="1011" y="708" on="1"/>
        <pt x="1160" y="858" on="1"/>
        <pt x="1234" y="932" on="0"/>
        <pt x="1290" y="932" on="0"/>
        <pt x="1331" y="907" on="0"/>
        <pt x="1362" y="884" on="1"/>
        <pt x="1387" y="865" on="1"/>
        <pt x="1439" y="918" on="1"/>
        <pt x="1092" y="1266" on="1"/>
        <pt x="1039" y="1213" on="1"/>
        <pt x="1059" y="1184" on="1"/>
        <pt x="1106" y="1123" on="0"/>
        <pt x="1106" y="1074" on="0"/>
        <pt x="1071" y="1027" on="0"/>
        <pt x="1031" y="987" on="1"/>
        <pt x="882" y="837" on="1"/>
        <pt x="730" y="989" on="1"/>
        <pt x="657" y="1062" on="0"/>
        <pt x="657" y="1120" on="0"/>
        <pt x="693" y="1171" on="0"/>
        <pt x="726" y="1212" on="1"/>
        <pt x="671" y="1266" on="1"/>
        <pt x="323" y="919" on="1"/>
      </contour>
    </TTGlyph>
    <TTGlyph name="A" xMin="46" yMin="0" xMax="1488" yMax="1589">
      <contour>
        <pt x="46" y="83" on="1"/>
        <pt x="160" y="103" on="0"/>
        <pt x="191" y="132" on="0"/>
        <pt x="193" y="173" on="0"/>
        <pt x="193" y="210" on="1"/>
        <pt x="192" y="313" on="1"/>
        <pt x="192" y="367" on="1"/>
        <pt x="192" y="896" on="0"/>
        <pt x="326" y="1154" on="1"/>
        <pt x="411" y="1320" on="0"/>
        <pt x="581" y="1456" on="1"/>
        <pt x="663" y="1521" on="0"/>
        <pt x="765" y="1589" on="1"/>
        <pt x="766" y="1589" on="1"/>
        <pt x="989" y="1440" on="0"/>
        <pt x="1094" y="1314" on="1"/>
        <pt x="1221" y="1163" on="0"/>
        <pt x="1276" y="950" on="1"/>
        <pt x="1332" y="732" on="0"/>
        <pt x="1332" y="369" on="1"/>
        <pt x="1332" y="313" on="1"/>
        <pt x="1331" y="212" on="1"/>
        <pt x="1331" y="174" on="0"/>
        <pt x="1337" y="132" on="0"/>
        <pt x="1352" y="120" on="1"/>
        <pt x="1371" y="103" on="0"/>
        <pt x="1488" y="83" on="1"/>
        <pt x="1488" y="0" on="1"/>
        <pt x="939" y="0" on="1"/>
        <pt x="939" y="83" on="1"/>
        <pt x="1070" y="98" on="0"/>
        <pt x="1096" y="126" on="1"/>
        <pt x="1117" y="149" on="0"/>
        <pt x="1122" y="241" on="0"/>
        <pt x="1122" y="284" on="1"/>
        <pt x="1122" y="526" on="1"/>
        <pt x="403" y="526" on="1"/>
        <pt x="403" y="284" on="1"/>
        <pt x="403" y="219" on="0"/>
        <pt x="410" y="146" on="0"/>
        <pt x="446" y="107" on="0"/>
        <pt x="520" y="91" on="0"/>
        <pt x="587" y="83" on="1"/>
        <pt x="587" y="0" on="1"/>
        <pt x="46" y="0" on="1"/>
      </contour>
      <contour>
        <pt x="1120" y="638" on="1"/>
        <pt x="1118" y="896" on="0"/>
        <pt x="1048" y="1064" on="1"/>
        <pt x="974" y="1241" on="0"/>
        <pt x="765" y="1448" on="1"/>
        <pt x="624" y="1307" on="0"/>
        <pt x="511" y="1126" on="0"/>
        <pt x="459" y="1002" on="0"/>
        <pt x="442" y="935" on="1"/>
        <pt x="414" y="817" on="0"/>
        <pt x="405" y="638" on="1"/>
      </contour>
    </TTGlyph>
    <TTGlyph name="AE" xMin="98" yMin="0" xMax="2214" yMax="1590">
      <contour>
        <pt x="1364" y="779" on="1"/>
        <pt x="1388" y="563" on="0"/>
        <pt x="1388" y="313" on="1"/>
        <pt x="1388" y="112" on="1"/>
        <pt x="1666" y="112" on="1"/>
        <pt x="1807" y="112" on="0"/>
        <pt x="1918" y="141" on="0"/>
        <pt x="1985" y="182" on="0"/>
        <pt x="2014" y="217" on="1"/>
        <pt x="2069" y="284" on="0"/>
        <pt x="2119" y="425" on="1"/>
        <pt x="2214" y="425" on="1"/>
        <pt x="2141" y="0" on="1"/>
        <pt x="1004" y="0" on="1"/>
        <pt x="1004" y="83" on="1"/>
        <pt x="1135" y="98" on="0"/>
        <pt x="1162" y="126" on="1"/>
        <pt x="1182" y="149" on="0"/>
        <pt x="1187" y="241" on="0"/>
        <pt x="1187" y="284" on="1"/>
        <pt x="1187" y="486" on="1"/>
        <pt x="460" y="486" on="1"/>
        <pt x="460" y="284" on="1"/>
        <pt x="460" y="191" on="0"/>
        <pt x="474" y="139" on="0"/>
        <pt x="497" y="114" on="0"/>
        <pt x="518" y="106" on="1"/>
        <pt x="554" y="93" on="0"/>
        <pt x="644" y="83" on="1"/>
        <pt x="644" y="0" on="1"/>
        <pt x="98" y="0" on="1"/>
        <pt x="98" y="83" on="1"/>
        <pt x="166" y="97" on="1"/>
        <pt x="224" y="109" on="0"/>
        <pt x="254" y="148" on="0"/>
        <pt x="259" y="171" on="1"/>
        <pt x="267" y="208" on="0"/>
        <pt x="267" y="494" on="0"/>
        <pt x="294" y="790" on="0"/>
        <pt x="352" y="1033" on="0"/>
        <pt x="443" y="1228" on="0"/>
        <pt x="507" y="1310" on="1"/>
        <pt x="628" y="1464" on="0"/>
        <pt x="842" y="1590" on="1"/>
        <pt x="844" y="1590" on="1"/>
        <pt x="906" y="1547" on="0"/>
        <pt x="929" y="1530" on="1"/>
        <pt x="2172" y="1530" on="1"/>
        <pt x="2067" y="1100" on="1"/>
        <pt x="1971" y="1100" on="1"/>
        <pt x="1992" y="1213" on="0"/>
        <pt x="1992" y="1317" on="0"/>
        <pt x="1967" y="1374" on="0"/>
        <pt x="1938" y="1390" on="1"/>
        <pt x="1889" y="1418" on="0"/>
        <pt x="1748" y="1418" on="1"/>
        <pt x="1059" y="1418" on="1"/>
        <pt x="1232" y="1284" on="0"/>
        <pt x="1306" y="1054" on="1"/>
        <pt x="1330" y="980" on="0"/>
        <pt x="1349" y="893" on="1"/>
        <pt x="1902" y="893" on="1"/>
        <pt x="1875" y="779" on="1"/>
      </contour>
      <contour>
        <pt x="1185" y="598" on="1"/>
        <pt x="1183" y="906" on="0"/>
        <pt x="1117" y="1081" on="1"/>
        <pt x="1042" y="1281" on="0"/>
        <pt x="843" y="1449" on="1"/>
        <pt x="634" y="1275" on="0"/>
        <pt x="552" y="1084" on="1"/>
        <pt x="474" y="903" on="0"/>
        <pt x="462" y="598" on="1"/>
      </contour>
    </TTGlyph>
    <TTGlyph name="AEacute" xMin="98" yMin="0" xMax="2214" yMax="1970">
      <contour>
        <pt x="1364" y="779" on="1"/>
        <pt x="1388" y="563" on="0"/>
        <pt x="1388" y="313" on="1"/>
        <pt x="1388" y="112" on="1"/>
        <pt x="1666" y="112" on="1"/>
        <pt x="1807" y="112" on="0"/>
        <pt x="1918" y="141" on="0"/>
        <pt x="1985" y="182" on="0"/>
        <pt x="2014" y="217" on="1"/>
        <pt x="2069" y="284" on="0"/>
        <pt x="2119" y="425" on="1"/>
        <pt x="2214" y="425" on="1"/>
        <pt x="2141" y="0" on="1"/>
        <pt x="1004" y="0" on="1"/>
        <pt x="1004" y="83" on="1"/>
        <pt x="1135" y="98" on="0"/>
        <pt x="1162" y="126" on="1"/>
        <pt x="1182" y="149" on="0"/>
        <pt x="1187" y="241" on="0"/>
        <pt x="1187" y="284" on="1"/>
        <pt x="1187" y="486" on="1"/>
        <pt x="460" y="486" on="1"/>
        <pt x="460" y="284" on="1"/>
        <pt x="460" y="191" on="0"/>
        <pt x="474" y="139" on="0"/>
        <pt x="497" y="114" on="0"/>
        <pt x="518" y="106" on="1"/>
        <pt x="554" y="93" on="0"/>
        <pt x="644" y="83" on="1"/>
        <pt x="644" y="0" on="1"/>
        <pt x="98" y="0" on="1"/>
        <pt x="98" y="83" on="1"/>
        <pt x="166" y="97" on="1"/>
        <pt x="224" y="109" on="0"/>
        <pt x="254" y="148" on="0"/>
        <pt x="259" y="171" on="1"/>
        <pt x="267" y="208" on="0"/>
        <pt x="267" y="494" on="0"/>
        <pt x="294" y="790" on="0"/>
        <pt x="352" y="1033" on="0"/>
        <pt x="443" y="1228" on="0"/>
        <pt x="507" y="1310" on="1"/>
        <pt x="628" y="1464" on="0"/>
        <pt x="842" y="1590" on="1"/>
        <pt x="844" y="1590" on="1"/>
        <pt x="906" y="1547" on="0"/>
        <pt x="929" y="1530" on="1"/>
        <pt x="2172" y="1530" on="1"/>
        <pt x="2067" y="1100" on="1"/>
        <pt x="1971" y="1100" on="1"/>
        <pt x="1992" y="1213" on="0"/>
        <pt x="1992" y="1317" on="0"/>
        <pt x="1967" y="1374" on="0"/>
        <pt x="1938" y="1390" on="1"/>
        <pt x="1889" y="1418" on="0"/>
        <pt x="1748" y="1418" on="1"/>
        <pt x="1059" y="1418" on="1"/>
        <pt x="1232" y="1284" on="0"/>
        <pt x="1306" y="1054" on="1"/>
        <pt x="1330" y="980" on="0"/>
        <pt x="1349" y="893" on="1"/>
        <pt x="1902" y="893" on="1"/>
        <pt x="1875" y="779" on="1"/>
      </contour>
      <contour>
        <pt x="1185" y="598" on="1"/>
        <pt x="1183" y="906" on="0"/>
        <pt x="1117" y="1081" on="1"/>
        <pt x="1042" y="1281" on="0"/>
        <pt x="843" y="1449" on="1"/>
        <pt x="634" y="1275" on="0"/>
        <pt x="552" y="1084" on="1"/>
        <pt x="474" y="903" on="0"/>
        <pt x="462" y="598" on="1"/>
      </contour>
      <contour>
        <pt x="1092" y="1692" on="1"/>
        <pt x="1544" y="1970" on="1"/>
        <pt x="1658" y="1752" on="1"/>
        <pt x="1124" y="1602" on="1"/>
      </contour>
    </TTGlyph>
    <TTGlyph name="Aacute" xMin="46" yMin="0" xMax="1488" yMax="1970">
      <contour>
        <pt x="46" y="83" on="1"/>
        <pt x="160" y="103" on="0"/>
        <pt x="191" y="132" on="0"/>
        <pt x="193" y="173" on="0"/>
        <pt x="193" y="210" on="1"/>
        <pt x="192" y="313" on="1"/>
        <pt x="192" y="367" on="1"/>
        <pt x="192" y="896" on="0"/>
        <pt x="326" y="1154" on="1"/>
        <pt x="411" y="1320" on="0"/>
        <pt x="581" y="1456" on="1"/>
        <pt x="663" y="1521" on="0"/>
        <pt x="765" y="1589" on="1"/>
        <pt x="766" y="1589" on="1"/>
        <pt x="989" y="1440" on="0"/>
        <pt x="1094" y="1314" on="1"/>
        <pt x="1221" y="1163" on="0"/>
        <pt x="1276" y="950" on="1"/>
        <pt x="1332" y="732" on="0"/>
        <pt x="1332" y="369" on="1"/>
        <pt x="1332" y="313" on="1"/>
        <pt x="1331" y="212" on="1"/>
        <pt x="1331" y="174" on="0"/>
        <pt x="1337" y="132" on="0"/>
        <pt x="1352" y="120" on="1"/>
        <pt x="1371" y="103" on="0"/>
        <pt x="1488" y="83" on="1"/>
        <pt x="1488" y="0" on="1"/>
        <pt x="939" y="0" on="1"/>
        <pt x="939" y="83" on="1"/>
        <pt x="1070" y="98" on="0"/>
        <pt x="1096" y="126" on="1"/>
        <pt x="1117" y="149" on="0"/>
        <pt x="1122" y="241" on="0"/>
        <pt x="1122" y="284" on="1"/>
        <pt x="1122" y="526" on="1"/>
        <pt x="403" y="526" on="1"/>
        <pt x="403" y="284" on="1"/>
        <pt x="403" y="219" on="0"/>
        <pt x="410" y="146" on="0"/>
        <pt x="446" y="107" on="0"/>
        <pt x="520" y="91" on="0"/>
        <pt x="587" y="83" on="1"/>
        <pt x="587" y="0" on="1"/>
        <pt x="46" y="0" on="1"/>
      </contour>
      <contour>
        <pt x="1120" y="638" on="1"/>
        <pt x="1118" y="896" on="0"/>
        <pt x="1048" y="1064" on="1"/>
        <pt x="974" y="1241" on="0"/>
        <pt x="765" y="1448" on="1"/>
        <pt x="624" y="1307" on="0"/>
        <pt x="511" y="1126" on="0"/>
        <pt x="459" y="1002" on="0"/>
        <pt x="442" y="935" on="1"/>
        <pt x="414" y="817" on="0"/>
        <pt x="405" y="638" on="1"/>
      </contour>
      <contour>
        <pt x="482" y="1692" on="1"/>
        <pt x="934" y="1970" on="1"/>
        <pt x="1048" y="1752" on="1"/>
        <pt x="514" y="1602" on="1"/>
      </contour>
    </TTGlyph>
    <TTGlyph name="Abreve" xMin="46" yMin="0" xMax="1488" yMax="1945">
      <contour>
        <pt x="46" y="83" on="1"/>
        <pt x="160" y="103" on="0"/>
        <pt x="191" y="132" on="0"/>
        <pt x="193" y="173" on="0"/>
        <pt x="193" y="210" on="1"/>
        <pt x="192" y="313" on="1"/>
        <pt x="192" y="367" on="1"/>
        <pt x="192" y="896" on="0"/>
        <pt x="326" y="1154" on="1"/>
        <pt x="411" y="1320" on="0"/>
        <pt x="581" y="1456" on="1"/>
        <pt x="663" y="1521" on="0"/>
        <pt x="765" y="1589" on="1"/>
        <pt x="766" y="1589" on="1"/>
        <pt x="989" y="1440" on="0"/>
        <pt x="1094" y="1314" on="1"/>
        <pt x="1221" y="1163" on="0"/>
        <pt x="1276" y="950" on="1"/>
        <pt x="1332" y="732" on="0"/>
        <pt x="1332" y="369" on="1"/>
        <pt x="1332" y="313" on="1"/>
        <pt x="1331" y="212" on="1"/>
        <pt x="1331" y="174" on="0"/>
        <pt x="1337" y="132" on="0"/>
        <pt x="1352" y="120" on="1"/>
        <pt x="1371" y="103" on="0"/>
        <pt x="1488" y="83" on="1"/>
        <pt x="1488" y="0" on="1"/>
        <pt x="939" y="0" on="1"/>
        <pt x="939" y="83" on="1"/>
        <pt x="1070" y="98" on="0"/>
        <pt x="1096" y="126" on="1"/>
        <pt x="1117" y="149" on="0"/>
        <pt x="1122" y="241" on="0"/>
        <pt x="1122" y="284" on="1"/>
        <pt x="1122" y="526" on="1"/>
        <pt x="403" y="526" on="1"/>
        <pt x="403" y="284" on="1"/>
        <pt x="403" y="219" on="0"/>
        <pt x="410" y="146" on="0"/>
        <pt x="446" y="107" on="0"/>
        <pt x="520" y="91" on="0"/>
        <pt x="587" y="83" on="1"/>
        <pt x="587" y="0" on="1"/>
        <pt x="46" y="0" on="1"/>
      </contour>
      <contour>
        <pt x="1120" y="638" on="1"/>
        <pt x="1118" y="896" on="0"/>
        <pt x="1048" y="1064" on="1"/>
        <pt x="974" y="1241" on="0"/>
        <pt x="765" y="1448" on="1"/>
        <pt x="624" y="1307" on="0"/>
        <pt x="511" y="1126" on="0"/>
        <pt x="459" y="1002" on="0"/>
        <pt x="442" y="935" on="1"/>
        <pt x="414" y="817" on="0"/>
        <pt x="405" y="638" on="1"/>
      </contour>
      <contour>
        <pt x="889" y="1660" on="1"/>
        <pt x="837" y="1642" on="0"/>
        <pt x="702" y="1642" on="0"/>
        <pt x="589" y="1685" on="0"/>
        <pt x="546" y="1725" on="1"/>
        <pt x="453" y="1813" on="0"/>
        <pt x="451" y="1945" on="1"/>
        <pt x="554" y="1945" on="1"/>
        <pt x="568" y="1880" on="0"/>
        <pt x="680" y="1801" on="0"/>
        <pt x="819" y="1801" on="0"/>
        <pt x="887" y="1826" on="0"/>
        <pt x="933" y="1867" on="0"/>
        <pt x="948" y="1893" on="1"/>
        <pt x="977" y="1945" on="1"/>
        <pt x="1080" y="1945" on="1"/>
        <pt x="1065" y="1723" on="0"/>
      </contour>
    </TTGlyph>
    <TTGlyph name="Acircumflex" xMin="46" yMin="0" xMax="1488" yMax="1971">
      <contour>
        <pt x="46" y="83" on="1"/>
        <pt x="160" y="103" on="0"/>
        <pt x="191" y="132" on="0"/>
        <pt x="193" y="173" on="0"/>
        <pt x="193" y="210" on="1"/>
        <pt x="192" y="313" on="1"/>
        <pt x="192" y="367" on="1"/>
        <pt x="192" y="896" on="0"/>
        <pt x="326" y="1154" on="1"/>
        <pt x="411" y="1320" on="0"/>
        <pt x="581" y="1456" on="1"/>
        <pt x="663" y="1521" on="0"/>
        <pt x="765" y="1589" on="1"/>
        <pt x="766" y="1589" on="1"/>
        <pt x="989" y="1440" on="0"/>
        <pt x="1094" y="1314" on="1"/>
        <pt x="1221" y="1163" on="0"/>
        <pt x="1276" y="950" on="1"/>
        <pt x="1332" y="732" on="0"/>
        <pt x="1332" y="369" on="1"/>
        <pt x="1332" y="313" on="1"/>
        <pt x="1331" y="212" on="1"/>
        <pt x="1331" y="174" on="0"/>
        <pt x="1337" y="132" on="0"/>
        <pt x="1352" y="120" on="1"/>
        <pt x="1371" y="103" on="0"/>
        <pt x="1488" y="83" on="1"/>
        <pt x="1488" y="0" on="1"/>
        <pt x="939" y="0" on="1"/>
        <pt x="939" y="83" on="1"/>
        <pt x="1070" y="98" on="0"/>
        <pt x="1096" y="126" on="1"/>
        <pt x="1117" y="149" on="0"/>
        <pt x="1122" y="241" on="0"/>
        <pt x="1122" y="284" on="1"/>
        <pt x="1122" y="526" on="1"/>
        <pt x="403" y="526" on="1"/>
        <pt x="403" y="284" on="1"/>
        <pt x="403" y="219" on="0"/>
        <pt x="410" y="146" on="0"/>
        <pt x="446" y="107" on="0"/>
        <pt x="520" y="91" on="0"/>
        <pt x="587" y="83" on="1"/>
        <pt x="587" y="0" on="1"/>
        <pt x="46" y="0" on="1"/>
      </contour>
      <contour>
        <pt x="1120" y="638" on="1"/>
        <pt x="1118" y="896" on="0"/>
        <pt x="1048" y="1064" on="1"/>
        <pt x="974" y="1241" on="0"/>
        <pt x="765" y="1448" on="1"/>
        <pt x="624" y="1307" on="0"/>
        <pt x="511" y="1126" on="0"/>
        <pt x="459" y="1002" on="0"/>
        <pt x="442" y="935" on="1"/>
        <pt x="414" y="817" on="0"/>
        <pt x="405" y="638" on="1"/>
      </contour>
      <contour>
        <pt x="430" y="1690" on="1"/>
        <pt x="672" y="1971" on="1"/>
        <pt x="858" y="1971" on="1"/>
        <pt x="1100" y="1690" on="1"/>
        <pt x="1036" y="1626" on="1"/>
        <pt x="765" y="1798" on="1"/>
        <pt x="494" y="1626" on="1"/>
      </contour>
    </TTGlyph>
    <TTGlyph name="Adieresis" xMin="46" yMin="0" xMax="1488" yMax="1972">
      <contour>
        <pt x="46" y="83" on="1"/>
        <pt x="160" y="103" on="0"/>
        <pt x="191" y="132" on="0"/>
        <pt x="193" y="173" on="0"/>
        <pt x="193" y="210" on="1"/>
        <pt x="192" y="313" on="1"/>
        <pt x="192" y="367" on="1"/>
        <pt x="192" y="896" on="0"/>
        <pt x="326" y="1154" on="1"/>
        <pt x="411" y="1320" on="0"/>
        <pt x="581" y="1456" on="1"/>
        <pt x="663" y="1521" on="0"/>
        <pt x="765" y="1589" on="1"/>
        <pt x="766" y="1589" on="1"/>
        <pt x="989" y="1440" on="0"/>
        <pt x="1094" y="1314" on="1"/>
        <pt x="1221" y="1163" on="0"/>
        <pt x="1276" y="950" on="1"/>
        <pt x="1332" y="732" on="0"/>
        <pt x="1332" y="369" on="1"/>
        <pt x="1332" y="313" on="1"/>
        <pt x="1331" y="212" on="1"/>
        <pt x="1331" y="174" on="0"/>
        <pt x="1337" y="132" on="0"/>
        <pt x="1352" y="120" on="1"/>
        <pt x="1371" y="103" on="0"/>
        <pt x="1488" y="83" on="1"/>
        <pt x="1488" y="0" on="1"/>
        <pt x="939" y="0" on="1"/>
        <pt x="939" y="83" on="1"/>
        <pt x="1070" y="98" on="0"/>
        <pt x="1096" y="126" on="1"/>
        <pt x="1117" y="149" on="0"/>
        <pt x="1122" y="241" on="0"/>
        <pt x="1122" y="284" on="1"/>
        <pt x="1122" y="526" on="1"/>
        <pt x="403" y="526" on="1"/>
        <pt x="403" y="284" on="1"/>
        <pt x="403" y="219" on="0"/>
        <pt x="410" y="146" on="0"/>
        <pt x="446" y="107" on="0"/>
        <pt x="520" y="91" on="0"/>
        <pt x="587" y="83" on="1"/>
        <pt x="587" y="0" on="1"/>
        <pt x="46" y="0" on="1"/>
      </contour>
      <contour>
        <pt x="1120" y="638" on="1"/>
        <pt x="1118" y="896" on="0"/>
        <pt x="1048" y="1064" on="1"/>
        <pt x="974" y="1241" on="0"/>
        <pt x="765" y="1448" on="1"/>
        <pt x="624" y="1307" on="0"/>
        <pt x="511" y="1126" on="0"/>
        <pt x="459" y="1002" on="0"/>
        <pt x="442" y="935" on="1"/>
        <pt x="414" y="817" on="0"/>
        <pt x="405" y="638" on="1"/>
      </contour>
      <contour>
        <pt x="819" y="1793" on="1"/>
        <pt x="1002" y="1972" on="1"/>
        <pt x="1181" y="1793" on="1"/>
        <pt x="1002" y="1612" on="1"/>
      </contour>
      <contour>
        <pt x="349" y="1793" on="1"/>
        <pt x="532" y="1972" on="1"/>
        <pt x="711" y="1793" on="1"/>
        <pt x="532" y="1612" on="1"/>
      </contour>
    </TTGlyph>
    <TTGlyph name="Agrave" xMin="46" yMin="0" xMax="1488" yMax="1970">
      <contour>
        <pt x="46" y="83" on="1"/>
        <pt x="160" y="103" on="0"/>
        <pt x="191" y="132" on="0"/>
        <pt x="193" y="173" on="0"/>
        <pt x="193" y="210" on="1"/>
        <pt x="192" y="313" on="1"/>
        <pt x="192" y="367" on="1"/>
        <pt x="192" y="896" on="0"/>
        <pt x="326" y="1154" on="1"/>
        <pt x="411" y="1320" on="0"/>
        <pt x="581" y="1456" on="1"/>
        <pt x="663" y="1521" on="0"/>
        <pt x="765" y="1589" on="1"/>
        <pt x="766" y="1589" on="1"/>
        <pt x="989" y="1440" on="0"/>
        <pt x="1094" y="1314" on="1"/>
        <pt x="1221" y="1163" on="0"/>
        <pt x="1276" y="950" on="1"/>
        <pt x="1332" y="732" on="0"/>
        <pt x="1332" y="369" on="1"/>
        <pt x="1332" y="313" on="1"/>
        <pt x="1331" y="212" on="1"/>
        <pt x="1331" y="174" on="0"/>
        <pt x="1337" y="132" on="0"/>
        <pt x="1352" y="120" on="1"/>
        <pt x="1371" y="103" on="0"/>
        <pt x="1488" y="83" on="1"/>
        <pt x="1488" y="0" on="1"/>
        <pt x="939" y="0" on="1"/>
        <pt x="939" y="83" on="1"/>
        <pt x="1070" y="98" on="0"/>
        <pt x="1096" y="126" on="1"/>
        <pt x="1117" y="149" on="0"/>
        <pt x="1122" y="241" on="0"/>
        <pt x="1122" y="284" on="1"/>
        <pt x="1122" y="526" on="1"/>
        <pt x="403" y="526" on="1"/>
        <pt x="403" y="284" on="1"/>
        <pt x="403" y="219" on="0"/>
        <pt x="410" y="146" on="0"/>
        <pt x="446" y="107" on="0"/>
        <pt x="520" y="91" on="0"/>
        <pt x="587" y="83" on="1"/>
        <pt x="587" y="0" on="1"/>
        <pt x="46" y="0" on="1"/>
      </contour>
      <contour>
        <pt x="1120" y="638" on="1"/>
        <pt x="1118" y="896" on="0"/>
        <pt x="1048" y="1064" on="1"/>
        <pt x="974" y="1241" on="0"/>
        <pt x="765" y="1448" on="1"/>
        <pt x="624" y="1307" on="0"/>
        <pt x="511" y="1126" on="0"/>
        <pt x="459" y="1002" on="0"/>
        <pt x="442" y="935" on="1"/>
        <pt x="414" y="817" on="0"/>
        <pt x="405" y="638" on="1"/>
      </contour>
      <contour>
        <pt x="482" y="1752" on="1"/>
        <pt x="596" y="1970" on="1"/>
        <pt x="1048" y="1692" on="1"/>
        <pt x="1016" y="1602" on="1"/>
      </contour>
    </TTGlyph>
    <TTGlyph name="Amacron" xMin="46" yMin="0" xMax="1488" yMax="1972">
      <contour>
        <pt x="46" y="83" on="1"/>
        <pt x="160" y="103" on="0"/>
        <pt x="191" y="132" on="0"/>
        <pt x="193" y="173" on="0"/>
        <pt x="193" y="210" on="1"/>
        <pt x="192" y="313" on="1"/>
        <pt x="192" y="367" on="1"/>
        <pt x="192" y="896" on="0"/>
        <pt x="326" y="1154" on="1"/>
        <pt x="411" y="1320" on="0"/>
        <pt x="581" y="1456" on="1"/>
        <pt x="663" y="1521" on="0"/>
        <pt x="765" y="1589" on="1"/>
        <pt x="766" y="1589" on="1"/>
        <pt x="989" y="1440" on="0"/>
        <pt x="1094" y="1314" on="1"/>
        <pt x="1221" y="1163" on="0"/>
        <pt x="1276" y="950" on="1"/>
        <pt x="1332" y="732" on="0"/>
        <pt x="1332" y="369" on="1"/>
        <pt x="1332" y="313" on="1"/>
        <pt x="1331" y="212" on="1"/>
        <pt x="1331" y="174" on="0"/>
        <pt x="1337" y="132" on="0"/>
        <pt x="1352" y="120" on="1"/>
        <pt x="1371" y="103" on="0"/>
        <pt x="1488" y="83" on="1"/>
        <pt x="1488" y="0" on="1"/>
        <pt x="939" y="0" on="1"/>
        <pt x="939" y="83" on="1"/>
        <pt x="1070" y="98" on="0"/>
        <pt x="1096" y="126" on="1"/>
        <pt x="1117" y="149" on="0"/>
        <pt x="1122" y="241" on="0"/>
        <pt x="1122" y="284" on="1"/>
        <pt x="1122" y="526" on="1"/>
        <pt x="403" y="526" on="1"/>
        <pt x="403" y="284" on="1"/>
        <pt x="403" y="219" on="0"/>
        <pt x="410" y="146" on="0"/>
        <pt x="446" y="107" on="0"/>
        <pt x="520" y="91" on="0"/>
        <pt x="587" y="83" on="1"/>
        <pt x="587" y="0" on="1"/>
        <pt x="46" y="0" on="1"/>
      </contour>
      <contour>
        <pt x="1120" y="638" on="1"/>
        <pt x="1118" y="896" on="0"/>
        <pt x="1048" y="1064" on="1"/>
        <pt x="974" y="1241" on="0"/>
        <pt x="765" y="1448" on="1"/>
        <pt x="624" y="1307" on="0"/>
        <pt x="511" y="1126" on="0"/>
        <pt x="459" y="1002" on="0"/>
        <pt x="442" y="935" on="1"/>
        <pt x="414" y="817" on="0"/>
        <pt x="405" y="638" on="1"/>
      </contour>
      <contour>
        <pt x="460" y="1943" on="1"/>
        <pt x="1071" y="1972" on="1"/>
        <pt x="1071" y="1789" on="1"/>
        <pt x="460" y="1812" on="1"/>
      </contour>
    </TTGlyph>
    <TTGlyph name="Aogonek" xMin="41" yMin="-568" xMax="1521" yMax="1589">
      <contour>
        <pt x="1132" y="-319" on="1"/>
        <pt x="1132" y="-444" on="0"/>
        <pt x="1269" y="-444" on="1"/>
        <pt x="1343" y="-444" on="0"/>
        <pt x="1429" y="-402" on="1"/>
        <pt x="1463" y="-481" on="1"/>
        <pt x="1363" y="-539" on="0"/>
        <pt x="1243" y="-561" on="1"/>
        <pt x="1205" y="-568" on="0"/>
        <pt x="1172" y="-568" on="1"/>
        <pt x="1059" y="-568" on="0"/>
        <pt x="928" y="-462" on="0"/>
        <pt x="928" y="-362" on="1"/>
        <pt x="928" y="-166" on="0"/>
        <pt x="1191" y="0" on="1"/>
        <pt x="962" y="0" on="1"/>
        <pt x="962" y="83" on="1"/>
        <pt x="1093" y="98" on="0"/>
        <pt x="1120" y="126" on="1"/>
        <pt x="1140" y="149" on="0"/>
        <pt x="1145" y="241" on="0"/>
        <pt x="1145" y="284" on="1"/>
        <pt x="1145" y="526" on="1"/>
        <pt x="418" y="526" on="1"/>
        <pt x="418" y="284" on="1"/>
        <pt x="418" y="219" on="0"/>
        <pt x="425" y="146" on="0"/>
        <pt x="461" y="107" on="0"/>
        <pt x="535" y="91" on="0"/>
        <pt x="602" y="83" on="1"/>
        <pt x="602" y="0" on="1"/>
        <pt x="41" y="0" on="1"/>
        <pt x="41" y="83" on="1"/>
        <pt x="161" y="104" on="0"/>
        <pt x="199" y="132" on="0"/>
        <pt x="208" y="173" on="0"/>
        <pt x="208" y="210" on="1"/>
        <pt x="207" y="313" on="1"/>
        <pt x="207" y="366" on="1"/>
        <pt x="207" y="898" on="0"/>
        <pt x="342" y="1154" on="1"/>
        <pt x="431" y="1322" on="0"/>
        <pt x="600" y="1456" on="1"/>
        <pt x="682" y="1521" on="0"/>
        <pt x="784" y="1589" on="1"/>
        <pt x="785" y="1589" on="1"/>
        <pt x="1007" y="1441" on="0"/>
        <pt x="1114" y="1314" on="1"/>
        <pt x="1243" y="1162" on="0"/>
        <pt x="1298" y="949" on="1"/>
        <pt x="1355" y="727" on="0"/>
        <pt x="1355" y="367" on="1"/>
        <pt x="1355" y="313" on="1"/>
        <pt x="1354" y="212" on="1"/>
        <pt x="1354" y="139" on="0"/>
        <pt x="1397" y="107" on="0"/>
        <pt x="1464" y="93" on="0"/>
        <pt x="1521" y="83" on="1"/>
        <pt x="1521" y="0" on="1"/>
        <pt x="1346" y="0" on="1"/>
        <pt x="1253" y="-62" on="0"/>
        <pt x="1192" y="-154" on="1"/>
        <pt x="1132" y="-242" on="0"/>
      </contour>
      <contour>
        <pt x="1143" y="638" on="1"/>
        <pt x="1141" y="895" on="0"/>
        <pt x="1068" y="1064" on="1"/>
        <pt x="993" y="1241" on="0"/>
        <pt x="784" y="1448" on="1"/>
        <pt x="640" y="1304" on="0"/>
        <pt x="529" y="1126" on="0"/>
        <pt x="476" y="1002" on="0"/>
        <pt x="459" y="935" on="1"/>
        <pt x="428" y="814" on="0"/>
        <pt x="420" y="638" on="1"/>
      </contour>
    </TTGlyph>
    <TTGlyph name="Aring" xMin="46" yMin="0" xMax="1488" yMax="1971">
      <contour>
        <pt x="46" y="83" on="1"/>
        <pt x="160" y="103" on="0"/>
        <pt x="191" y="132" on="0"/>
        <pt x="193" y="173" on="0"/>
        <pt x="193" y="210" on="1"/>
        <pt x="192" y="313" on="1"/>
        <pt x="192" y="367" on="1"/>
        <pt x="192" y="896" on="0"/>
        <pt x="326" y="1154" on="1"/>
        <pt x="411" y="1320" on="0"/>
        <pt x="581" y="1456" on="1"/>
        <pt x="663" y="1521" on="0"/>
        <pt x="765" y="1589" on="1"/>
        <pt x="766" y="1589" on="1"/>
        <pt x="989" y="1440" on="0"/>
        <pt x="1094" y="1314" on="1"/>
        <pt x="1221" y="1163" on="0"/>
        <pt x="1276" y="950" on="1"/>
        <pt x="1332" y="732" on="0"/>
        <pt x="1332" y="369" on="1"/>
        <pt x="1332" y="313" on="1"/>
        <pt x="1331" y="212" on="1"/>
        <pt x="1331" y="174" on="0"/>
        <pt x="1337" y="132" on="0"/>
        <pt x="1352" y="120" on="1"/>
        <pt x="1371" y="103" on="0"/>
        <pt x="1488" y="83" on="1"/>
        <pt x="1488" y="0" on="1"/>
        <pt x="939" y="0" on="1"/>
        <pt x="939" y="83" on="1"/>
        <pt x="1070" y="98" on="0"/>
        <pt x="1096" y="126" on="1"/>
        <pt x="1117" y="149" on="0"/>
        <pt x="1122" y="241" on="0"/>
        <pt x="1122" y="284" on="1"/>
        <pt x="1122" y="526" on="1"/>
        <pt x="403" y="526" on="1"/>
        <pt x="403" y="284" on="1"/>
        <pt x="403" y="219" on="0"/>
        <pt x="410" y="146" on="0"/>
        <pt x="446" y="107" on="0"/>
        <pt x="520" y="91" on="0"/>
        <pt x="587" y="83" on="1"/>
        <pt x="587" y="0" on="1"/>
        <pt x="46" y="0" on="1"/>
      </contour>
      <contour>
        <pt x="1120" y="638" on="1"/>
        <pt x="1118" y="896" on="0"/>
        <pt x="1048" y="1064" on="1"/>
        <pt x="974" y="1241" on="0"/>
        <pt x="765" y="1448" on="1"/>
        <pt x="624" y="1307" on="0"/>
        <pt x="511" y="1126" on="0"/>
        <pt x="459" y="1002" on="0"/>
        <pt x="442" y="935" on="1"/>
        <pt x="414" y="817" on="0"/>
        <pt x="405" y="638" on="1"/>
      </contour>
      <contour>
        <pt x="766" y="1480" on="1"/>
        <pt x="652" y="1480" on="0"/>
        <pt x="573" y="1548" on="1"/>
        <pt x="492" y="1617" on="0"/>
        <pt x="492" y="1724" on="1"/>
        <pt x="492" y="1830" on="0"/>
        <pt x="573" y="1901" on="1"/>
        <pt x="652" y="1971" on="0"/>
        <pt x="766" y="1971" on="1"/>
        <pt x="879" y="1971" on="0"/>
        <pt x="959" y="1901" on="1"/>
        <pt x="1039" y="1830" on="0"/>
        <pt x="1039" y="1724" on="1"/>
        <pt x="1039" y="1617" on="0"/>
        <pt x="959" y="1548" on="1"/>
        <pt x="879" y="1480" on="0"/>
      </contour>
      <contour>
        <pt x="687" y="1614" on="0"/>
        <pt x="737" y="1597" on="0"/>
        <pt x="794" y="1597" on="0"/>
        <pt x="844" y="1614" on="0"/>
        <pt x="863" y="1630" on="1"/>
        <pt x="903" y="1664" on="0"/>
        <pt x="903" y="1750" on="0"/>
        <pt x="882" y="1796" on="0"/>
        <pt x="863" y="1812" on="1"/>
        <pt x="823" y="1847" on="0"/>
        <pt x="737" y="1847" on="0"/>
        <pt x="687" y="1829" on="0"/>
        <pt x="669" y="1812" on="1"/>
        <pt x="628" y="1776" on="0"/>
        <pt x="628" y="1693" on="0"/>
        <pt x="650" y="1646" on="0"/>
      </contour>
    </TTGlyph>
    <TTGlyph name="Atilde" xMin="46" yMin="0" xMax="1488" yMax="1971">
      <contour>
        <pt x="46" y="83" on="1"/>
        <pt x="160" y="103" on="0"/>
        <pt x="191" y="132" on="0"/>
        <pt x="193" y="173" on="0"/>
        <pt x="193" y="210" on="1"/>
        <pt x="192" y="313" on="1"/>
        <pt x="192" y="367" on="1"/>
        <pt x="192" y="896" on="0"/>
        <pt x="326" y="1154" on="1"/>
        <pt x="411" y="1320" on="0"/>
        <pt x="581" y="1456" on="1"/>
        <pt x="663" y="1521" on="0"/>
        <pt x="765" y="1589" on="1"/>
        <pt x="766" y="1589" on="1"/>
        <pt x="989" y="1440" on="0"/>
        <pt x="1094" y="1314" on="1"/>
        <pt x="1221" y="1163" on="0"/>
        <pt x="1276" y="950" on="1"/>
        <pt x="1332" y="732" on="0"/>
        <pt x="1332" y="369" on="1"/>
        <pt x="1332" y="313" on="1"/>
        <pt x="1331" y="212" on="1"/>
        <pt x="1331" y="174" on="0"/>
        <pt x="1337" y="132" on="0"/>
        <pt x="1352" y="120" on="1"/>
        <pt x="1371" y="103" on="0"/>
        <pt x="1488" y="83" on="1"/>
        <pt x="1488" y="0" on="1"/>
        <pt x="939" y="0" on="1"/>
        <pt x="939" y="83" on="1"/>
        <pt x="1070" y="98" on="0"/>
        <pt x="1096" y="126" on="1"/>
        <pt x="1117" y="149" on="0"/>
        <pt x="1122" y="241" on="0"/>
        <pt x="1122" y="284" on="1"/>
        <pt x="1122" y="526" on="1"/>
        <pt x="403" y="526" on="1"/>
        <pt x="403" y="284" on="1"/>
        <pt x="403" y="219" on="0"/>
        <pt x="410" y="146" on="0"/>
        <pt x="446" y="107" on="0"/>
        <pt x="520" y="91" on="0"/>
        <pt x="587" y="83" on="1"/>
        <pt x="587" y="0" on="1"/>
        <pt x="46" y="0" on="1"/>
      </contour>
      <contour>
        <pt x="1120" y="638" on="1"/>
        <pt x="1118" y="896" on="0"/>
        <pt x="1048" y="1064" on="1"/>
        <pt x="974" y="1241" on="0"/>
        <pt x="765" y="1448" on="1"/>
        <pt x="624" y="1307" on="0"/>
        <pt x="511" y="1126" on="0"/>
        <pt x="459" y="1002" on="0"/>
        <pt x="442" y="935" on="1"/>
        <pt x="414" y="817" on="0"/>
        <pt x="405" y="638" on="1"/>
      </contour>
      <contour>
        <pt x="601" y="1804" on="1"/>
        <pt x="522" y="1804" on="0"/>
        <pt x="506" y="1716" on="1"/>
        <pt x="413" y="1716" on="1"/>
        <pt x="419" y="1831" on="0"/>
        <pt x="493" y="1903" on="1"/>
        <pt x="563" y="1971" on="0"/>
        <pt x="653" y="1971" on="1"/>
        <pt x="713" y="1971" on="0"/>
        <pt x="811" y="1915" on="1"/>
        <pt x="890" y="1869" on="0"/>
        <pt x="929" y="1869" on="1"/>
        <pt x="1008" y="1869" on="0"/>
        <pt x="1024" y="1957" on="1"/>
        <pt x="1117" y="1957" on="1"/>
        <pt x="1111" y="1844" on="0"/>
        <pt x="1037" y="1770" on="1"/>
        <pt x="967" y="1702" on="0"/>
        <pt x="877" y="1702" on="1"/>
        <pt x="820" y="1702" on="0"/>
        <pt x="724" y="1757" on="1"/>
        <pt x="661" y="1789" on="1"/>
        <pt x="630" y="1804" on="0"/>
      </contour>
    </TTGlyph>
    <TTGlyph name="B" xMin="91" yMin="-30" xMax="1426" yMax="1550">
      <contour>
        <pt x="91" y="83" on="1"/>
        <pt x="206" y="93" on="0"/>
        <pt x="254" y="142" on="0"/>
        <pt x="264" y="201" on="0"/>
        <pt x="264" y="249" on="1"/>
        <pt x="264" y="1281" on="1"/>
        <pt x="264" y="1377" on="0"/>
        <pt x="219" y="1422" on="0"/>
        <pt x="150" y="1438" on="0"/>
        <pt x="91" y="1443" on="1"/>
        <pt x="91" y="1530" on="1"/>
        <pt x="351" y="1530" on="1"/>
        <pt x="417" y="1530" on="0"/>
        <pt x="499" y="1537" on="1"/>
        <pt x="650" y="1550" on="0"/>
        <pt x="879" y="1550" on="0"/>
        <pt x="1095" y="1502" on="0"/>
        <pt x="1164" y="1458" on="1"/>
        <pt x="1298" y="1373" on="0"/>
        <pt x="1298" y="1214" on="1"/>
        <pt x="1298" y="1010" on="0"/>
        <pt x="1144" y="892" on="1"/>
        <pt x="1093" y="853" on="0"/>
        <pt x="1023" y="829" on="1"/>
        <pt x="1321" y="779" on="0"/>
        <pt x="1401" y="587" on="1"/>
        <pt x="1426" y="527" on="0"/>
        <pt x="1426" y="362" on="0"/>
        <pt x="1351" y="185" on="0"/>
        <pt x="1272" y="118" on="1"/>
        <pt x="1099" y="-30" on="0"/>
        <pt x="782" y="-30" on="1"/>
        <pt x="703" y="-30" on="0"/>
        <pt x="608" y="-20" on="1"/>
        <pt x="433" y="0" on="0"/>
        <pt x="351" y="0" on="1"/>
        <pt x="91" y="0" on="1"/>
      </contour>
      <contour>
        <pt x="467" y="292" on="1"/>
        <pt x="467" y="192" on="0"/>
        <pt x="516" y="148" on="1"/>
        <pt x="586" y="86" on="0"/>
        <pt x="786" y="86" on="1"/>
        <pt x="1014" y="86" on="0"/>
        <pt x="1116" y="188" on="1"/>
        <pt x="1200" y="272" on="0"/>
        <pt x="1200" y="418" on="1"/>
        <pt x="1200" y="631" on="0"/>
        <pt x="1039" y="718" on="1"/>
        <pt x="979" y="751" on="0"/>
        <pt x="859" y="760" on="0"/>
        <pt x="826" y="762" on="1"/>
        <pt x="758" y="766" on="1"/>
        <pt x="723" y="768" on="0"/>
        <pt x="656" y="771" on="0"/>
        <pt x="626" y="773" on="1"/>
        <pt x="626" y="867" on="1"/>
        <pt x="833" y="880" on="1"/>
        <pt x="964" y="893" on="0"/>
        <pt x="1025" y="994" on="1"/>
        <pt x="1072" y="1071" on="0"/>
        <pt x="1072" y="1195" on="1"/>
        <pt x="1072" y="1313" on="0"/>
        <pt x="1006" y="1372" on="1"/>
        <pt x="926" y="1443" on="0"/>
        <pt x="732" y="1443" on="1"/>
        <pt x="498" y="1443" on="0"/>
        <pt x="474" y="1318" on="1"/>
        <pt x="467" y="1281" on="0"/>
        <pt x="467" y="1238" on="1"/>
      </contour>
    </TTGlyph>
    <TTGlyph name="C" xMin="120" yMin="-25" xMax="1512" yMax="1553">
      <contour>
        <pt x="1284" y="1023" on="1"/>
        <pt x="1289" y="1083" on="0"/>
        <pt x="1289" y="1118" on="1"/>
        <pt x="1289" y="1193" on="0"/>
        <pt x="1258" y="1298" on="0"/>
        <pt x="1180" y="1369" on="0"/>
        <pt x="1128" y="1393" on="1"/>
        <pt x="1020" y="1442" on="0"/>
        <pt x="793" y="1442" on="0"/>
        <pt x="635" y="1385" on="0"/>
        <pt x="516" y="1287" on="0"/>
        <pt x="432" y="1153" on="0"/>
        <pt x="406" y="1076" on="1"/>
        <pt x="355" y="929" on="0"/>
        <pt x="355" y="748" on="1"/>
        <pt x="355" y="500" on="0"/>
        <pt x="489" y="320" on="1"/>
        <pt x="584" y="194" on="0"/>
        <pt x="747" y="142" on="1"/>
        <pt x="830" y="115" on="0"/>
        <pt x="1008" y="115" on="0"/>
        <pt x="1136" y="136" on="0"/>
        <pt x="1192" y="158" on="1"/>
        <pt x="1304" y="200" on="0"/>
        <pt x="1398" y="292" on="1"/>
        <pt x="1448" y="225" on="1"/>
        <pt x="1371" y="110" on="0"/>
        <pt x="1090" y="-25" on="0"/>
        <pt x="892" y="-25" on="1"/>
        <pt x="526" y="-25" on="0"/>
        <pt x="314" y="212" on="1"/>
        <pt x="120" y="431" on="0"/>
        <pt x="120" y="755" on="1"/>
        <pt x="120" y="958" on="0"/>
        <pt x="208" y="1138" on="1"/>
        <pt x="350" y="1427" on="0"/>
        <pt x="662" y="1520" on="1"/>
        <pt x="769" y="1551" on="0"/>
        <pt x="945" y="1551" on="0"/>
        <pt x="1025" y="1542" on="0"/>
        <pt x="1091" y="1527" on="0"/>
        <pt x="1118" y="1518" on="1"/>
        <pt x="1169" y="1501" on="1"/>
        <pt x="1256" y="1471" on="0"/>
        <pt x="1356" y="1471" on="0"/>
        <pt x="1417" y="1553" on="1"/>
        <pt x="1512" y="1553" on="1"/>
        <pt x="1380" y="1023" on="1"/>
      </contour>
    </TTGlyph>
    <TTGlyph name="Cacute" xMin="120" yMin="-25" xMax="1512" yMax="1970">
      <contour>
        <pt x="1284" y="1023" on="1"/>
        <pt x="1289" y="1083" on="0"/>
        <pt x="1289" y="1118" on="1"/>
        <pt x="1289" y="1193" on="0"/>
        <pt x="1258" y="1298" on="0"/>
        <pt x="1180" y="1369" on="0"/>
        <pt x="1128" y="1393" on="1"/>
        <pt x="1020" y="1442" on="0"/>
        <pt x="793" y="1442" on="0"/>
        <pt x="635" y="1385" on="0"/>
        <pt x="516" y="1287" on="0"/>
        <pt x="432" y="1153" on="0"/>
        <pt x="406" y="1076" on="1"/>
        <pt x="355" y="929" on="0"/>
        <pt x="355" y="748" on="1"/>
        <pt x="355" y="500" on="0"/>
        <pt x="489" y="320" on="1"/>
        <pt x="584" y="194" on="0"/>
        <pt x="747" y="142" on="1"/>
        <pt x="830" y="115" on="0"/>
        <pt x="1008" y="115" on="0"/>
        <pt x="1136" y="136" on="0"/>
        <pt x="1192" y="158" on="1"/>
        <pt x="1304" y="200" on="0"/>
        <pt x="1398" y="292" on="1"/>
        <pt x="1448" y="225" on="1"/>
        <pt x="1371" y="110" on="0"/>
        <pt x="1090" y="-25" on="0"/>
        <pt x="892" y="-25" on="1"/>
        <pt x="526" y="-25" on="0"/>
        <pt x="314" y="212" on="1"/>
        <pt x="120" y="431" on="0"/>
        <pt x="120" y="755" on="1"/>
        <pt x="120" y="958" on="0"/>
        <pt x="208" y="1138" on="1"/>
        <pt x="350" y="1427" on="0"/>
        <pt x="662" y="1520" on="1"/>
        <pt x="769" y="1551" on="0"/>
        <pt x="945" y="1551" on="0"/>
        <pt x="1025" y="1542" on="0"/>
        <pt x="1091" y="1527" on="0"/>
        <pt x="1118" y="1518" on="1"/>
        <pt x="1169" y="1501" on="1"/>
        <pt x="1256" y="1471" on="0"/>
        <pt x="1356" y="1471" on="0"/>
        <pt x="1417" y="1553" on="1"/>
        <pt x="1512" y="1553" on="1"/>
        <pt x="1380" y="1023" on="1"/>
      </contour>
      <contour>
        <pt x="585" y="1692" on="1"/>
        <pt x="1037" y="1970" on="1"/>
        <pt x="1151" y="1752" on="1"/>
        <pt x="617" y="1602" on="1"/>
      </contour>
    </TTGlyph>
    <TTGlyph name="Ccaron" xMin="120" yMin="-25" xMax="1512" yMax="1972">
      <contour>
        <pt x="1284" y="1023" on="1"/>
        <pt x="1289" y="1083" on="0"/>
        <pt x="1289" y="1118" on="1"/>
        <pt x="1289" y="1193" on="0"/>
        <pt x="1258" y="1298" on="0"/>
        <pt x="1180" y="1369" on="0"/>
        <pt x="1128" y="1393" on="1"/>
        <pt x="1020" y="1442" on="0"/>
        <pt x="793" y="1442" on="0"/>
        <pt x="635" y="1385" on="0"/>
        <pt x="516" y="1287" on="0"/>
        <pt x="432" y="1153" on="0"/>
        <pt x="406" y="1076" on="1"/>
        <pt x="355" y="929" on="0"/>
        <pt x="355" y="748" on="1"/>
        <pt x="355" y="500" on="0"/>
        <pt x="489" y="320" on="1"/>
        <pt x="584" y="194" on="0"/>
        <pt x="747" y="142" on="1"/>
        <pt x="830" y="115" on="0"/>
        <pt x="1008" y="115" on="0"/>
        <pt x="1136" y="136" on="0"/>
        <pt x="1192" y="158" on="1"/>
        <pt x="1304" y="200" on="0"/>
        <pt x="1398" y="292" on="1"/>
        <pt x="1448" y="225" on="1"/>
        <pt x="1371" y="110" on="0"/>
        <pt x="1090" y="-25" on="0"/>
        <pt x="892" y="-25" on="1"/>
        <pt x="526" y="-25" on="0"/>
        <pt x="314" y="212" on="1"/>
        <pt x="120" y="431" on="0"/>
        <pt x="120" y="755" on="1"/>
        <pt x="120" y="958" on="0"/>
        <pt x="208" y="1138" on="1"/>
        <pt x="350" y="1427" on="0"/>
        <pt x="662" y="1520" on="1"/>
        <pt x="769" y="1551" on="0"/>
        <pt x="945" y="1551" on="0"/>
        <pt x="1025" y="1542" on="0"/>
        <pt x="1091" y="1527" on="0"/>
        <pt x="1118" y="1518" on="1"/>
        <pt x="1169" y="1501" on="1"/>
        <pt x="1256" y="1471" on="0"/>
        <pt x="1356" y="1471" on="0"/>
        <pt x="1417" y="1553" on="1"/>
        <pt x="1512" y="1553" on="1"/>
        <pt x="1380" y="1023" on="1"/>
      </contour>
      <contour>
        <pt x="532" y="1908" on="1"/>
        <pt x="596" y="1972" on="1"/>
        <pt x="878" y="1800" on="1"/>
        <pt x="878" y="1800" on="0"/>
        <pt x="1141" y="1972" on="1"/>
        <pt x="1205" y="1908" on="1"/>
        <pt x="971" y="1627" on="1"/>
        <pt x="787" y="1627" on="1"/>
      </contour>
    </TTGlyph>
    <TTGlyph name="Ccedilla" xMin="120" yMin="-587" xMax="1512" yMax="1553">
      <contour>
        <pt x="921" y="-351" on="1"/>
        <pt x="921" y="-220" on="0"/>
        <pt x="711" y="-220" on="1"/>
        <pt x="789" y="-19" on="1"/>
        <pt x="473" y="13" on="0"/>
        <pt x="289" y="243" on="1"/>
        <pt x="120" y="454" on="0"/>
        <pt x="120" y="755" on="1"/>
        <pt x="120" y="958" on="0"/>
        <pt x="208" y="1138" on="1"/>
        <pt x="350" y="1427" on="0"/>
        <pt x="662" y="1520" on="1"/>
        <pt x="769" y="1551" on="0"/>
        <pt x="945" y="1551" on="0"/>
        <pt x="1025" y="1542" on="0"/>
        <pt x="1091" y="1527" on="0"/>
        <pt x="1118" y="1518" on="1"/>
        <pt x="1169" y="1501" on="1"/>
        <pt x="1256" y="1471" on="0"/>
        <pt x="1356" y="1471" on="0"/>
        <pt x="1417" y="1553" on="1"/>
        <pt x="1512" y="1553" on="1"/>
        <pt x="1380" y="1023" on="1"/>
        <pt x="1284" y="1023" on="1"/>
        <pt x="1289" y="1083" on="0"/>
        <pt x="1289" y="1118" on="1"/>
        <pt x="1289" y="1193" on="0"/>
        <pt x="1258" y="1298" on="0"/>
        <pt x="1180" y="1369" on="0"/>
        <pt x="1128" y="1393" on="1"/>
        <pt x="1020" y="1442" on="0"/>
        <pt x="793" y="1442" on="0"/>
        <pt x="635" y="1385" on="0"/>
        <pt x="516" y="1287" on="0"/>
        <pt x="432" y="1153" on="0"/>
        <pt x="406" y="1076" on="1"/>
        <pt x="355" y="929" on="0"/>
        <pt x="355" y="748" on="1"/>
        <pt x="355" y="500" on="0"/>
        <pt x="489" y="320" on="1"/>
        <pt x="584" y="194" on="0"/>
        <pt x="747" y="142" on="1"/>
        <pt x="830" y="115" on="0"/>
        <pt x="1008" y="115" on="0"/>
        <pt x="1136" y="136" on="0"/>
        <pt x="1192" y="158" on="1"/>
        <pt x="1304" y="200" on="0"/>
        <pt x="1398" y="292" on="1"/>
        <pt x="1448" y="225" on="1"/>
        <pt x="1373" y="112" on="0"/>
        <pt x="1098" y="-22" on="0"/>
        <pt x="906" y="-25" on="1"/>
        <pt x="868" y="-127" on="1"/>
        <pt x="973" y="-125" on="0"/>
        <pt x="1048" y="-175" on="1"/>
        <pt x="1128" y="-228" on="0"/>
        <pt x="1128" y="-318" on="1"/>
        <pt x="1128" y="-392" on="0"/>
        <pt x="1066" y="-458" on="1"/>
        <pt x="989" y="-539" on="0"/>
        <pt x="851" y="-575" on="1"/>
        <pt x="813" y="-585" on="0"/>
        <pt x="782" y="-587" on="1"/>
        <pt x="725" y="-504" on="1"/>
        <pt x="816" y="-482" on="0"/>
        <pt x="921" y="-402" on="0"/>
      </contour>
    </TTGlyph>
    <TTGlyph name="Ccircumflex" xMin="120" yMin="-25" xMax="1512" yMax="1971">
      <contour>
        <pt x="1284" y="1023" on="1"/>
        <pt x="1289" y="1083" on="0"/>
        <pt x="1289" y="1118" on="1"/>
        <pt x="1289" y="1193" on="0"/>
        <pt x="1258" y="1298" on="0"/>
        <pt x="1180" y="1369" on="0"/>
        <pt x="1128" y="1393" on="1"/>
        <pt x="1020" y="1442" on="0"/>
        <pt x="793" y="1442" on="0"/>
        <pt x="635" y="1385" on="0"/>
        <pt x="516" y="1287" on="0"/>
        <pt x="432" y="1153" on="0"/>
        <pt x="406" y="1076" on="1"/>
        <pt x="355" y="929" on="0"/>
        <pt x="355" y="748" on="1"/>
        <pt x="355" y="500" on="0"/>
        <pt x="489" y="320" on="1"/>
        <pt x="584" y="194" on="0"/>
        <pt x="747" y="142" on="1"/>
        <pt x="830" y="115" on="0"/>
        <pt x="1008" y="115" on="0"/>
        <pt x="1136" y="136" on="0"/>
        <pt x="1192" y="158" on="1"/>
        <pt x="1304" y="200" on="0"/>
        <pt x="1398" y="292" on="1"/>
        <pt x="1448" y="225" on="1"/>
        <pt x="1371" y="110" on="0"/>
        <pt x="1090" y="-25" on="0"/>
        <pt x="892" y="-25" on="1"/>
        <pt x="526" y="-25" on="0"/>
        <pt x="314" y="212" on="1"/>
        <pt x="120" y="431" on="0"/>
        <pt x="120" y="755" on="1"/>
        <pt x="120" y="958" on="0"/>
        <pt x="208" y="1138" on="1"/>
        <pt x="350" y="1427" on="0"/>
        <pt x="662" y="1520" on="1"/>
        <pt x="769" y="1551" on="0"/>
        <pt x="945" y="1551" on="0"/>
        <pt x="1025" y="1542" on="0"/>
        <pt x="1091" y="1527" on="0"/>
        <pt x="1118" y="1518" on="1"/>
        <pt x="1169" y="1501" on="1"/>
        <pt x="1256" y="1471" on="0"/>
        <pt x="1356" y="1471" on="0"/>
        <pt x="1417" y="1553" on="1"/>
        <pt x="1512" y="1553" on="1"/>
        <pt x="1380" y="1023" on="1"/>
      </contour>
      <contour>
        <pt x="533" y="1690" on="1"/>
        <pt x="775" y="1971" on="1"/>
        <pt x="961" y="1971" on="1"/>
        <pt x="1203" y="1690" on="1"/>
        <pt x="1139" y="1626" on="1"/>
        <pt x="868" y="1798" on="1"/>
        <pt x="597" y="1626" on="1"/>
      </contour>
    </TTGlyph>
    <TTGlyph name="Cdotaccent" xMin="120" yMin="-25" xMax="1512" yMax="1972">
      <contour>
        <pt x="1284" y="1023" on="1"/>
        <pt x="1289" y="1083" on="0"/>
        <pt x="1289" y="1118" on="1"/>
        <pt x="1289" y="1193" on="0"/>
        <pt x="1258" y="1298" on="0"/>
        <pt x="1180" y="1369" on="0"/>
        <pt x="1128" y="1393" on="1"/>
        <pt x="1020" y="1442" on="0"/>
        <pt x="793" y="1442" on="0"/>
        <pt x="635" y="1385" on="0"/>
        <pt x="516" y="1287" on="0"/>
        <pt x="432" y="1153" on="0"/>
        <pt x="406" y="1076" on="1"/>
        <pt x="355" y="929" on="0"/>
        <pt x="355" y="748" on="1"/>
        <pt x="355" y="500" on="0"/>
        <pt x="489" y="320" on="1"/>
        <pt x="584" y="194" on="0"/>
        <pt x="747" y="142" on="1"/>
        <pt x="830" y="115" on="0"/>
        <pt x="1008" y="115" on="0"/>
        <pt x="1136" y="136" on="0"/>
        <pt x="1192" y="158" on="1"/>
        <pt x="1304" y="200" on="0"/>
        <pt x="1398" y="292" on="1"/>
        <pt x="1448" y="225" on="1"/>
        <pt x="1371" y="110" on="0"/>
        <pt x="1090" y="-25" on="0"/>
        <pt x="892" y="-25" on="1"/>
        <pt x="526" y="-25" on="0"/>
        <pt x="314" y="212" on="1"/>
        <pt x="120" y="431" on="0"/>
        <pt x="120" y="755" on="1"/>
        <pt x="120" y="958" on="0"/>
        <pt x="208" y="1138" on="1"/>
        <pt x="350" y="1427" on="0"/>
        <pt x="662" y="1520" on="1"/>
        <pt x="769" y="1551" on="0"/>
        <pt x="945" y="1551" on="0"/>
        <pt x="1025" y="1542" on="0"/>
        <pt x="1091" y="1527" on="0"/>
        <pt x="1118" y="1518" on="1"/>
        <pt x="1169" y="1501" on="1"/>
        <pt x="1256" y="1471" on="0"/>
        <pt x="1356" y="1471" on="0"/>
        <pt x="1417" y="1553" on="1"/>
        <pt x="1512" y="1553" on="1"/>
        <pt x="1380" y="1023" on="1"/>
      </contour>
      <contour>
        <pt x="688" y="1793" on="1"/>
        <pt x="870" y="1972" on="1"/>
        <pt x="1048" y="1793" on="1"/>
        <pt x="870" y="1613" on="1"/>
      </contour>
    </TTGlyph>
    <TTGlyph name="D" xMin="64" yMin="-25" xMax="1499" yMax="1544">
      <contour>
        <pt x="355" y="1531" on="1"/>
        <pt x="435" y="1530" on="1"/>
        <pt x="481" y="1530" on="0"/>
        <pt x="522" y="1532" on="1"/>
        <pt x="594" y="1537" on="1"/>
        <pt x="704" y="1544" on="0"/>
        <pt x="743" y="1544" on="1"/>
        <pt x="1085" y="1544" on="0"/>
        <pt x="1284" y="1370" on="1"/>
        <pt x="1499" y="1183" on="0"/>
        <pt x="1499" y="817" on="1"/>
        <pt x="1499" y="436" on="0"/>
        <pt x="1299" y="209" on="1"/>
        <pt x="1092" y="-25" on="0"/>
        <pt x="726" y="-25" on="1"/>
        <pt x="631" y="-25" on="0"/>
        <pt x="554" y="-17" on="1"/>
        <pt x="428" y="-4" on="1"/>
        <pt x="379" y="1" on="0"/>
        <pt x="355" y="1" on="1"/>
        <pt x="64" y="0" on="1"/>
        <pt x="64" y="83" on="1"/>
        <pt x="121" y="91" on="0"/>
        <pt x="189" y="106" on="0"/>
        <pt x="207" y="124" on="1"/>
        <pt x="237" y="153" on="0"/>
        <pt x="237" y="265" on="1"/>
        <pt x="237" y="1269" on="1"/>
        <pt x="237" y="1382" on="0"/>
        <pt x="189" y="1426" on="0"/>
        <pt x="121" y="1438" on="0"/>
        <pt x="64" y="1443" on="1"/>
        <pt x="64" y="1531" on="1"/>
      </contour>
      <contour>
        <pt x="440" y="217" on="1"/>
        <pt x="440" y="129" on="0"/>
        <pt x="638" y="98" on="1"/>
        <pt x="697" y="88" on="0"/>
        <pt x="751" y="88" on="1"/>
        <pt x="1156" y="88" on="0"/>
        <pt x="1246" y="523" on="1"/>
        <pt x="1275" y="666" on="0"/>
        <pt x="1275" y="1018" on="0"/>
        <pt x="1193" y="1243" on="0"/>
        <pt x="1119" y="1312" on="1"/>
        <pt x="980" y="1443" on="0"/>
        <pt x="714" y="1443" on="1"/>
        <pt x="544" y="1443" on="0"/>
        <pt x="468" y="1385" on="1"/>
        <pt x="440" y="1363" on="0"/>
        <pt x="440" y="1329" on="1"/>
      </contour>
    </TTGlyph>
    <TTGlyph name="Dcaron" xMin="64" yMin="-25" xMax="1499" yMax="1972">
      <contour>
        <pt x="355" y="1531" on="1"/>
        <pt x="435" y="1530" on="1"/>
        <pt x="481" y="1530" on="0"/>
        <pt x="522" y="1532" on="1"/>
        <pt x="594" y="1537" on="1"/>
        <pt x="704" y="1544" on="0"/>
        <pt x="743" y="1544" on="1"/>
        <pt x="1085" y="1544" on="0"/>
        <pt x="1284" y="1370" on="1"/>
        <pt x="1499" y="1183" on="0"/>
        <pt x="1499" y="817" on="1"/>
        <pt x="1499" y="436" on="0"/>
        <pt x="1299" y="209" on="1"/>
        <pt x="1092" y="-25" on="0"/>
        <pt x="726" y="-25" on="1"/>
        <pt x="631" y="-25" on="0"/>
        <pt x="554" y="-17" on="1"/>
        <pt x="428" y="-4" on="1"/>
        <pt x="379" y="1" on="0"/>
        <pt x="355" y="1" on="1"/>
        <pt x="64" y="0" on="1"/>
        <pt x="64" y="83" on="1"/>
        <pt x="121" y="91" on="0"/>
        <pt x="189" y="106" on="0"/>
        <pt x="207" y="124" on="1"/>
        <pt x="237" y="153" on="0"/>
        <pt x="237" y="265" on="1"/>
        <pt x="237" y="1269" on="1"/>
        <pt x="237" y="1382" on="0"/>
        <pt x="189" y="1426" on="0"/>
        <pt x="121" y="1438" on="0"/>
        <pt x="64" y="1443" on="1"/>
        <pt x="64" y="1531" on="1"/>
      </contour>
      <contour>
        <pt x="440" y="217" on="1"/>
        <pt x="440" y="129" on="0"/>
        <pt x="638" y="98" on="1"/>
        <pt x="697" y="88" on="0"/>
        <pt x="751" y="88" on="1"/>
        <pt x="1156" y="88" on="0"/>
        <pt x="1246" y="523" on="1"/>
        <pt x="1275" y="666" on="0"/>
        <pt x="1275" y="1018" on="0"/>
        <pt x="1193" y="1243" on="0"/>
        <pt x="1119" y="1312" on="1"/>
        <pt x="980" y="1443" on="0"/>
        <pt x="714" y="1443" on="1"/>
        <pt x="544" y="1443" on="0"/>
        <pt x="468" y="1385" on="1"/>
        <pt x="440" y="1363" on="0"/>
        <pt x="440" y="1329" on="1"/>
      </contour>
      <contour>
        <pt x="455" y="1908" on="1"/>
        <pt x="519" y="1972" on="1"/>
        <pt x="801" y="1800" on="1"/>
        <pt x="801" y="1800" on="0"/>
        <pt x="1064" y="1972" on="1"/>
        <pt x="1128" y="1908" on="1"/>
        <pt x="894" y="1627" on="1"/>
        <pt x="710" y="1627" on="1"/>
      </contour>
    </TTGlyph>
    <TTGlyph name="Dcroat" xMin="7" yMin="-25" xMax="1519" yMax="1544">
      <contour>
        <pt x="355" y="1531" on="1"/>
        <pt x="435" y="1530" on="1"/>
        <pt x="481" y="1530" on="0"/>
        <pt x="522" y="1532" on="1"/>
        <pt x="594" y="1537" on="1"/>
        <pt x="704" y="1544" on="0"/>
        <pt x="743" y="1544" on="1"/>
        <pt x="1094" y="1544" on="0"/>
        <pt x="1298" y="1370" on="1"/>
        <pt x="1519" y="1182" on="0"/>
        <pt x="1519" y="817" on="1"/>
        <pt x="1519" y="434" on="0"/>
        <pt x="1314" y="209" on="1"/>
        <pt x="1101" y="-25" on="0"/>
        <pt x="726" y="-25" on="1"/>
        <pt x="631" y="-25" on="0"/>
        <pt x="554" y="-17" on="1"/>
        <pt x="428" y="-4" on="1"/>
        <pt x="379" y="1" on="0"/>
        <pt x="355" y="1" on="1"/>
        <pt x="64" y="0" on="1"/>
        <pt x="64" y="83" on="1"/>
        <pt x="121" y="91" on="0"/>
        <pt x="189" y="106" on="0"/>
        <pt x="207" y="124" on="1"/>
        <pt x="237" y="153" on="0"/>
        <pt x="237" y="265" on="1"/>
        <pt x="237" y="766" on="1"/>
        <pt x="7" y="766" on="1"/>
        <pt x="36" y="891" on="1"/>
        <pt x="237" y="891" on="1"/>
        <pt x="237" y="1269" on="1"/>
        <pt x="237" y="1382" on="0"/>
        <pt x="189" y="1426" on="0"/>
        <pt x="121" y="1438" on="0"/>
        <pt x="64" y="1443" on="1"/>
        <pt x="64" y="1531" on="1"/>
      </contour>
      <contour>
        <pt x="440" y="217" on="1"/>
        <pt x="440" y="129" on="0"/>
        <pt x="638" y="98" on="1"/>
        <pt x="697" y="88" on="0"/>
        <pt x="751" y="88" on="1"/>
        <pt x="1172" y="88" on="0"/>
        <pt x="1264" y="523" on="1"/>
        <pt x="1295" y="666" on="0"/>
        <pt x="1295" y="1018" on="0"/>
        <pt x="1210" y="1243" on="0"/>
        <pt x="1134" y="1312" on="1"/>
        <pt x="990" y="1443" on="0"/>
        <pt x="714" y="1443" on="1"/>
        <pt x="544" y="1443" on="0"/>
        <pt x="468" y="1385" on="1"/>
        <pt x="440" y="1363" on="0"/>
        <pt x="440" y="1329" on="1"/>
        <pt x="440" y="891" on="1"/>
        <pt x="782" y="891" on="1"/>
        <pt x="752" y="766" on="1"/>
        <pt x="440" y="766" on="1"/>
      </contour>
    </TTGlyph>
    <TTGlyph name="Delta" xMin="26" yMin="0" xMax="1504" yMax="1589">
      <contour>
        <pt x="26" y="87" on="1"/>
        <pt x="92" y="94" on="0"/>
        <pt x="134" y="145" on="0"/>
        <pt x="145" y="171" on="1"/>
        <pt x="145" y="171" on="0"/>
        <pt x="718" y="1589" on="1"/>
        <pt x="790" y="1588" on="1"/>
        <pt x="1349" y="223" on="1"/>
        <pt x="1377" y="153" on="0"/>
        <pt x="1399" y="133" on="1"/>
        <pt x="1436" y="96" on="0"/>
        <pt x="1504" y="87" on="1"/>
        <pt x="1504" y="0" on="1"/>
        <pt x="26" y="0" on="1"/>
      </contour>
      <contour>
        <pt x="1164" y="153" on="1"/>
        <pt x="733" y="1256" on="1"/>
        <pt x="315" y="153" on="1"/>
      </contour>
    </TTGlyph>
    <TTGlyph name="E" xMin="107" yMin="-25" xMax="1437" yMax="1552">
      <contour>
        <pt x="898" y="104" on="1"/>
        <pt x="1198" y="104" on="0"/>
        <pt x="1375" y="292" on="1"/>
        <pt x="1425" y="225" on="1"/>
        <pt x="1292" y="44" on="0"/>
        <pt x="1028" y="-8" on="1"/>
        <pt x="945" y="-25" on="0"/>
        <pt x="856" y="-25" on="1"/>
        <pt x="683" y="-25" on="0"/>
        <pt x="405" y="96" on="0"/>
        <pt x="308" y="199" on="1"/>
        <pt x="107" y="412" on="0"/>
        <pt x="107" y="725" on="1"/>
        <pt x="107" y="1055" on="0"/>
        <pt x="290" y="1294" on="1"/>
        <pt x="413" y="1455" on="0"/>
        <pt x="607" y="1520" on="1"/>
        <pt x="705" y="1552" on="0"/>
        <pt x="874" y="1552" on="0"/>
        <pt x="955" y="1542" on="0"/>
        <pt x="1019" y="1526" on="0"/>
        <pt x="1070" y="1507" on="0"/>
        <pt x="1100" y="1497" on="1"/>
        <pt x="1182" y="1469" on="0"/>
        <pt x="1282" y="1469" on="0"/>
        <pt x="1341" y="1551" on="1"/>
        <pt x="1437" y="1551" on="1"/>
        <pt x="1304" y="1021" on="1"/>
        <pt x="1209" y="1021" on="1"/>
        <pt x="1214" y="1098" on="0"/>
        <pt x="1214" y="1129" on="1"/>
        <pt x="1214" y="1195" on="0"/>
        <pt x="1183" y="1296" on="0"/>
        <pt x="1109" y="1368" on="0"/>
        <pt x="1058" y="1393" on="1"/>
        <pt x="956" y="1443" on="0"/>
        <pt x="711" y="1443" on="0"/>
        <pt x="536" y="1345" on="0"/>
        <pt x="476" y="1260" on="1"/>
        <pt x="363" y="1097" on="0"/>
        <pt x="341" y="817" on="1"/>
        <pt x="986" y="817" on="1"/>
        <pt x="959" y="704" on="1"/>
        <pt x="338" y="704" on="1"/>
        <pt x="348" y="471" on="0"/>
        <pt x="492" y="296" on="1"/>
        <pt x="651" y="104" on="0"/>
      </contour>
    </TTGlyph>
    <TTGlyph name="Eacute" xMin="107" yMin="-25" xMax="1437" yMax="1970">
      <contour>
        <pt x="898" y="104" on="1"/>
        <pt x="1198" y="104" on="0"/>
        <pt x="1375" y="292" on="1"/>
        <pt x="1425" y="225" on="1"/>
        <pt x="1292" y="44" on="0"/>
        <pt x="1028" y="-8" on="1"/>
        <pt x="945" y="-25" on="0"/>
        <pt x="856" y="-25" on="1"/>
        <pt x="683" y="-25" on="0"/>
        <pt x="405" y="96" on="0"/>
        <pt x="308" y="199" on="1"/>
        <pt x="107" y="412" on="0"/>
        <pt x="107" y="725" on="1"/>
        <pt x="107" y="1055" on="0"/>
        <pt x="290" y="1294" on="1"/>
        <pt x="413" y="1455" on="0"/>
        <pt x="607" y="1520" on="1"/>
        <pt x="705" y="1552" on="0"/>
        <pt x="874" y="1552" on="0"/>
        <pt x="955" y="1542" on="0"/>
        <pt x="1019" y="1526" on="0"/>
        <pt x="1070" y="1507" on="0"/>
        <pt x="1100" y="1497" on="1"/>
        <pt x="1182" y="1469" on="0"/>
        <pt x="1282" y="1469" on="0"/>
        <pt x="1341" y="1551" on="1"/>
        <pt x="1437" y="1551" on="1"/>
        <pt x="1304" y="1021" on="1"/>
        <pt x="1209" y="1021" on="1"/>
        <pt x="1214" y="1098" on="0"/>
        <pt x="1214" y="1129" on="1"/>
        <pt x="1214" y="1195" on="0"/>
        <pt x="1183" y="1296" on="0"/>
        <pt x="1109" y="1368" on="0"/>
        <pt x="1058" y="1393" on="1"/>
        <pt x="956" y="1443" on="0"/>
        <pt x="711" y="1443" on="0"/>
        <pt x="536" y="1345" on="0"/>
        <pt x="476" y="1260" on="1"/>
        <pt x="363" y="1097" on="0"/>
        <pt x="341" y="817" on="1"/>
        <pt x="986" y="817" on="1"/>
        <pt x="959" y="704" on="1"/>
        <pt x="338" y="704" on="1"/>
        <pt x="348" y="471" on="0"/>
        <pt x="492" y="296" on="1"/>
        <pt x="651" y="104" on="0"/>
      </contour>
      <contour>
        <pt x="529" y="1692" on="1"/>
        <pt x="981" y="1970" on="1"/>
        <pt x="1095" y="1752" on="1"/>
        <pt x="561" y="1602" on="1"/>
      </contour>
    </TTGlyph>
    <TTGlyph name="Ebreve" xMin="107" yMin="-25" xMax="1437" yMax="1945">
      <contour>
        <pt x="898" y="104" on="1"/>
        <pt x="1198" y="104" on="0"/>
        <pt x="1375" y="292" on="1"/>
        <pt x="1425" y="225" on="1"/>
        <pt x="1292" y="44" on="0"/>
        <pt x="1028" y="-8" on="1"/>
        <pt x="945" y="-25" on="0"/>
        <pt x="856" y="-25" on="1"/>
        <pt x="683" y="-25" on="0"/>
        <pt x="405" y="96" on="0"/>
        <pt x="308" y="199" on="1"/>
        <pt x="107" y="412" on="0"/>
        <pt x="107" y="725" on="1"/>
        <pt x="107" y="1055" on="0"/>
        <pt x="290" y="1294" on="1"/>
        <pt x="413" y="1455" on="0"/>
        <pt x="607" y="1520" on="1"/>
        <pt x="705" y="1552" on="0"/>
        <pt x="874" y="1552" on="0"/>
        <pt x="955" y="1542" on="0"/>
        <pt x="1019" y="1526" on="0"/>
        <pt x="1070" y="1507" on="0"/>
        <pt x="1100" y="1497" on="1"/>
        <pt x="1182" y="1469" on="0"/>
        <pt x="1282" y="1469" on="0"/>
        <pt x="1341" y="1551" on="1"/>
        <pt x="1437" y="1551" on="1"/>
        <pt x="1304" y="1021" on="1"/>
        <pt x="1209" y="1021" on="1"/>
        <pt x="1214" y="1098" on="0"/>
        <pt x="1214" y="1129" on="1"/>
        <pt x="1214" y="1195" on="0"/>
        <pt x="1183" y="1296" on="0"/>
        <pt x="1109" y="1368" on="0"/>
        <pt x="1058" y="1393" on="1"/>
        <pt x="956" y="1443" on="0"/>
        <pt x="711" y="1443" on="0"/>
        <pt x="536" y="1345" on="0"/>
        <pt x="476" y="1260" on="1"/>
        <pt x="363" y="1097" on="0"/>
        <pt x="341" y="817" on="1"/>
        <pt x="986" y="817" on="1"/>
        <pt x="959" y="704" on="1"/>
        <pt x="338" y="704" on="1"/>
        <pt x="348" y="471" on="0"/>
        <pt x="492" y="296" on="1"/>
        <pt x="651" y="104" on="0"/>
      </contour>
      <contour>
        <pt x="936" y="1660" on="1"/>
        <pt x="884" y="1642" on="0"/>
        <pt x="749" y="1642" on="0"/>
        <pt x="636" y="1685" on="0"/>
        <pt x="593" y="1725" on="1"/>
        <pt x="500" y="1813" on="0"/>
        <pt x="498" y="1945" on="1"/>
        <pt x="601" y="1945" on="1"/>
        <pt x="615" y="1880" on="0"/>
        <pt x="727" y="1801" on="0"/>
        <pt x="866" y="1801" on="0"/>
        <pt x="934" y="1826" on="0"/>
        <pt x="980" y="1867" on="0"/>
        <pt x="995" y="1893" on="1"/>
        <pt x="1024" y="1945" on="1"/>
        <pt x="1127" y="1945" on="1"/>
        <pt x="1112" y="1723" on="0"/>
      </contour>
    </TTGlyph>
    <TTGlyph name="Ecaron" xMin="107" yMin="-25" xMax="1437" yMax="1972">
      <contour>
        <pt x="898" y="104" on="1"/>
        <pt x="1198" y="104" on="0"/>
        <pt x="1375" y="292" on="1"/>
        <pt x="1425" y="225" on="1"/>
        <pt x="1292" y="44" on="0"/>
        <pt x="1028" y="-8" on="1"/>
        <pt x="945" y="-25" on="0"/>
        <pt x="856" y="-25" on="1"/>
        <pt x="683" y="-25" on="0"/>
        <pt x="405" y="96" on="0"/>
        <pt x="308" y="199" on="1"/>
        <pt x="107" y="412" on="0"/>
        <pt x="107" y="725" on="1"/>
        <pt x="107" y="1055" on="0"/>
        <pt x="290" y="1294" on="1"/>
        <pt x="413" y="1455" on="0"/>
        <pt x="607" y="1520" on="1"/>
        <pt x="705" y="1552" on="0"/>
        <pt x="874" y="1552" on="0"/>
        <pt x="955" y="1542" on="0"/>
        <pt x="1019" y="1526" on="0"/>
        <pt x="1070" y="1507" on="0"/>
        <pt x="1100" y="1497" on="1"/>
        <pt x="1182" y="1469" on="0"/>
        <pt x="1282" y="1469" on="0"/>
        <pt x="1341" y="1551" on="1"/>
        <pt x="1437" y="1551" on="1"/>
        <pt x="1304" y="1021" on="1"/>
        <pt x="1209" y="1021" on="1"/>
        <pt x="1214" y="1098" on="0"/>
        <pt x="1214" y="1129" on="1"/>
        <pt x="1214" y="1195" on="0"/>
        <pt x="1183" y="1296" on="0"/>
        <pt x="1109" y="1368" on="0"/>
        <pt x="1058" y="1393" on="1"/>
        <pt x="956" y="1443" on="0"/>
        <pt x="711" y="1443" on="0"/>
        <pt x="536" y="1345" on="0"/>
        <pt x="476" y="1260" on="1"/>
        <pt x="363" y="1097" on="0"/>
        <pt x="341" y="817" on="1"/>
        <pt x="986" y="817" on="1"/>
        <pt x="959" y="704" on="1"/>
        <pt x="338" y="704" on="1"/>
        <pt x="348" y="471" on="0"/>
        <pt x="492" y="296" on="1"/>
        <pt x="651" y="104" on="0"/>
      </contour>
      <contour>
        <pt x="476" y="1908" on="1"/>
        <pt x="540" y="1972" on="1"/>
        <pt x="822" y="1800" on="1"/>
        <pt x="822" y="1800" on="0"/>
        <pt x="1085" y="1972" on="1"/>
        <pt x="1149" y="1908" on="1"/>
        <pt x="915" y="1627" on="1"/>
        <pt x="731" y="1627" on="1"/>
      </contour>
    </TTGlyph>
    <TTGlyph name="Ecircumflex" xMin="107" yMin="-25" xMax="1437" yMax="1971">
      <contour>
        <pt x="898" y="104" on="1"/>
        <pt x="1198" y="104" on="0"/>
        <pt x="1375" y="292" on="1"/>
        <pt x="1425" y="225" on="1"/>
        <pt x="1292" y="44" on="0"/>
        <pt x="1028" y="-8" on="1"/>
        <pt x="945" y="-25" on="0"/>
        <pt x="856" y="-25" on="1"/>
        <pt x="683" y="-25" on="0"/>
        <pt x="405" y="96" on="0"/>
        <pt x="308" y="199" on="1"/>
        <pt x="107" y="412" on="0"/>
        <pt x="107" y="725" on="1"/>
        <pt x="107" y="1055" on="0"/>
        <pt x="290" y="1294" on="1"/>
        <pt x="413" y="1455" on="0"/>
        <pt x="607" y="1520" on="1"/>
        <pt x="705" y="1552" on="0"/>
        <pt x="874" y="1552" on="0"/>
        <pt x="955" y="1542" on="0"/>
        <pt x="1019" y="1526" on="0"/>
        <pt x="1070" y="1507" on="0"/>
        <pt x="1100" y="1497" on="1"/>
        <pt x="1182" y="1469" on="0"/>
        <pt x="1282" y="1469" on="0"/>
        <pt x="1341" y="1551" on="1"/>
        <pt x="1437" y="1551" on="1"/>
        <pt x="1304" y="1021" on="1"/>
        <pt x="1209" y="1021" on="1"/>
        <pt x="1214" y="1098" on="0"/>
        <pt x="1214" y="1129" on="1"/>
        <pt x="1214" y="1195" on="0"/>
        <pt x="1183" y="1296" on="0"/>
        <pt x="1109" y="1368" on="0"/>
        <pt x="1058" y="1393" on="1"/>
        <pt x="956" y="1443" on="0"/>
        <pt x="711" y="1443" on="0"/>
        <pt x="536" y="1345" on="0"/>
        <pt x="476" y="1260" on="1"/>
        <pt x="363" y="1097" on="0"/>
        <pt x="341" y="817" on="1"/>
        <pt x="986" y="817" on="1"/>
        <pt x="959" y="704" on="1"/>
        <pt x="338" y="704" on="1"/>
        <pt x="348" y="471" on="0"/>
        <pt x="492" y="296" on="1"/>
        <pt x="651" y="104" on="0"/>
      </contour>
      <contour>
        <pt x="477" y="1690" on="1"/>
        <pt x="719" y="1971" on="1"/>
        <pt x="905" y="1971" on="1"/>
        <pt x="1147" y="1690" on="1"/>
        <pt x="1083" y="1626" on="1"/>
        <pt x="812" y="1798" on="1"/>
        <pt x="541" y="1626" on="1"/>
      </contour>
    </TTGlyph>
    <TTGlyph name="Edieresis" xMin="107" yMin="-25" xMax="1437" yMax="1972">
      <contour>
        <pt x="898" y="104" on="1"/>
        <pt x="1198" y="104" on="0"/>
        <pt x="1375" y="292" on="1"/>
        <pt x="1425" y="225" on="1"/>
        <pt x="1292" y="44" on="0"/>
        <pt x="1028" y="-8" on="1"/>
        <pt x="945" y="-25" on="0"/>
        <pt x="856" y="-25" on="1"/>
        <pt x="683" y="-25" on="0"/>
        <pt x="405" y="96" on="0"/>
        <pt x="308" y="199" on="1"/>
        <pt x="107" y="412" on="0"/>
        <pt x="107" y="725" on="1"/>
        <pt x="107" y="1055" on="0"/>
        <pt x="290" y="1294" on="1"/>
        <pt x="413" y="1455" on="0"/>
        <pt x="607" y="1520" on="1"/>
        <pt x="705" y="1552" on="0"/>
        <pt x="874" y="1552" on="0"/>
        <pt x="955" y="1542" on="0"/>
        <pt x="1019" y="1526" on="0"/>
        <pt x="1070" y="1507" on="0"/>
        <pt x="1100" y="1497" on="1"/>
        <pt x="1182" y="1469" on="0"/>
        <pt x="1282" y="1469" on="0"/>
        <pt x="1341" y="1551" on="1"/>
        <pt x="1437" y="1551" on="1"/>
        <pt x="1304" y="1021" on="1"/>
        <pt x="1209" y="1021" on="1"/>
        <pt x="1214" y="1098" on="0"/>
        <pt x="1214" y="1129" on="1"/>
        <pt x="1214" y="1195" on="0"/>
        <pt x="1183" y="1296" on="0"/>
        <pt x="1109" y="1368" on="0"/>
        <pt x="1058" y="1393" on="1"/>
        <pt x="956" y="1443" on="0"/>
        <pt x="711" y="1443" on="0"/>
        <pt x="536" y="1345" on="0"/>
        <pt x="476" y="1260" on="1"/>
        <pt x="363" y="1097" on="0"/>
        <pt x="341" y="817" on="1"/>
        <pt x="986" y="817" on="1"/>
        <pt x="959" y="704" on="1"/>
        <pt x="338" y="704" on="1"/>
        <pt x="348" y="471" on="0"/>
        <pt x="492" y="296" on="1"/>
        <pt x="651" y="104" on="0"/>
      </contour>
      <contour>
        <pt x="866" y="1793" on="1"/>
        <pt x="1049" y="1972" on="1"/>
        <pt x="1228" y="1793" on="1"/>
        <pt x="1049" y="1612" on="1"/>
      </contour>
      <contour>
        <pt x="396" y="1793" on="1"/>
        <pt x="579" y="1972" on="1"/>
        <pt x="758" y="1793" on="1"/>
        <pt x="579" y="1612" on="1"/>
      </contour>
    </TTGlyph>
    <TTGlyph name="Edotaccent" xMin="107" yMin="-25" xMax="1437" yMax="1972">
      <contour>
        <pt x="898" y="104" on="1"/>
        <pt x="1198" y="104" on="0"/>
        <pt x="1375" y="292" on="1"/>
        <pt x="1425" y="225" on="1"/>
        <pt x="1292" y="44" on="0"/>
        <pt x="1028" y="-8" on="1"/>
        <pt x="945" y="-25" on="0"/>
        <pt x="856" y="-25" on="1"/>
        <pt x="683" y="-25" on="0"/>
        <pt x="405" y="96" on="0"/>
        <pt x="308" y="199" on="1"/>
        <pt x="107" y="412" on="0"/>
        <pt x="107" y="725" on="1"/>
        <pt x="107" y="1055" on="0"/>
        <pt x="290" y="1294" on="1"/>
        <pt x="413" y="1455" on="0"/>
        <pt x="607" y="1520" on="1"/>
        <pt x="705" y="1552" on="0"/>
        <pt x="874" y="1552" on="0"/>
        <pt x="955" y="1542" on="0"/>
        <pt x="1019" y="1526" on="0"/>
        <pt x="1070" y="1507" on="0"/>
        <pt x="1100" y="1497" on="1"/>
        <pt x="1182" y="1469" on="0"/>
        <pt x="1282" y="1469" on="0"/>
        <pt x="1341" y="1551" on="1"/>
        <pt x="1437" y="1551" on="1"/>
        <pt x="1304" y="1021" on="1"/>
        <pt x="1209" y="1021" on="1"/>
        <pt x="1214" y="1098" on="0"/>
        <pt x="1214" y="1129" on="1"/>
        <pt x="1214" y="1195" on="0"/>
        <pt x="1183" y="1296" on="0"/>
        <pt x="1109" y="1368" on="0"/>
        <pt x="1058" y="1393" on="1"/>
        <pt x="956" y="1443" on="0"/>
        <pt x="711" y="1443" on="0"/>
        <pt x="536" y="1345" on="0"/>
        <pt x="476" y="1260" on="1"/>
        <pt x="363" y="1097" on="0"/>
        <pt x="341" y="817" on="1"/>
        <pt x="986" y="817" on="1"/>
        <pt x="959" y="704" on="1"/>
        <pt x="338" y="704" on="1"/>
        <pt x="348" y="471" on="0"/>
        <pt x="492" y="296" on="1"/>
        <pt x="651" y="104" on="0"/>
      </contour>
      <contour>
        <pt x="632" y="1793" on="1"/>
        <pt x="814" y="1972" on="1"/>
        <pt x="992" y="1793" on="1"/>
        <pt x="814" y="1613" on="1"/>
      </contour>
    </TTGlyph>
    <TTGlyph name="Egrave" xMin="107" yMin="-25" xMax="1437" yMax="1970">
      <contour>
        <pt x="898" y="104" on="1"/>
        <pt x="1198" y="104" on="0"/>
        <pt x="1375" y="292" on="1"/>
        <pt x="1425" y="225" on="1"/>
        <pt x="1292" y="44" on="0"/>
        <pt x="1028" y="-8" on="1"/>
        <pt x="945" y="-25" on="0"/>
        <pt x="856" y="-25" on="1"/>
        <pt x="683" y="-25" on="0"/>
        <pt x="405" y="96" on="0"/>
        <pt x="308" y="199" on="1"/>
        <pt x="107" y="412" on="0"/>
        <pt x="107" y="725" on="1"/>
        <pt x="107" y="1055" on="0"/>
        <pt x="290" y="1294" on="1"/>
        <pt x="413" y="1455" on="0"/>
        <pt x="607" y="1520" on="1"/>
        <pt x="705" y="1552" on="0"/>
        <pt x="874" y="1552" on="0"/>
        <pt x="955" y="1542" on="0"/>
        <pt x="1019" y="1526" on="0"/>
        <pt x="1070" y="1507" on="0"/>
        <pt x="1100" y="1497" on="1"/>
        <pt x="1182" y="1469" on="0"/>
        <pt x="1282" y="1469" on="0"/>
        <pt x="1341" y="1551" on="1"/>
        <pt x="1437" y="1551" on="1"/>
        <pt x="1304" y="1021" on="1"/>
        <pt x="1209" y="1021" on="1"/>
        <pt x="1214" y="1098" on="0"/>
        <pt x="1214" y="1129" on="1"/>
        <pt x="1214" y="1195" on="0"/>
        <pt x="1183" y="1296" on="0"/>
        <pt x="1109" y="1368" on="0"/>
        <pt x="1058" y="1393" on="1"/>
        <pt x="956" y="1443" on="0"/>
        <pt x="711" y="1443" on="0"/>
        <pt x="536" y="1345" on="0"/>
        <pt x="476" y="1260" on="1"/>
        <pt x="363" y="1097" on="0"/>
        <pt x="341" y="817" on="1"/>
        <pt x="986" y="817" on="1"/>
        <pt x="959" y="704" on="1"/>
        <pt x="338" y="704" on="1"/>
        <pt x="348" y="471" on="0"/>
        <pt x="492" y="296" on="1"/>
        <pt x="651" y="104" on="0"/>
      </contour>
      <contour>
        <pt x="529" y="1752" on="1"/>
        <pt x="643" y="1970" on="1"/>
        <pt x="1095" y="1692" on="1"/>
        <pt x="1063" y="1602" on="1"/>
      </contour>
    </TTGlyph>
    <TTGlyph name="Emacron" xMin="107" yMin="-25" xMax="1437" yMax="1972">
      <contour>
        <pt x="898" y="104" on="1"/>
        <pt x="1198" y="104" on="0"/>
        <pt x="1375" y="292" on="1"/>
        <pt x="1425" y="225" on="1"/>
        <pt x="1292" y="44" on="0"/>
        <pt x="1028" y="-8" on="1"/>
        <pt x="945" y="-25" on="0"/>
        <pt x="856" y="-25" on="1"/>
        <pt x="683" y="-25" on="0"/>
        <pt x="405" y="96" on="0"/>
        <pt x="308" y="199" on="1"/>
        <pt x="107" y="412" on="0"/>
        <pt x="107" y="725" on="1"/>
        <pt x="107" y="1055" on="0"/>
        <pt x="290" y="1294" on="1"/>
        <pt x="413" y="1455" on="0"/>
        <pt x="607" y="1520" on="1"/>
        <pt x="705" y="1552" on="0"/>
        <pt x="874" y="1552" on="0"/>
        <pt x="955" y="1542" on="0"/>
        <pt x="1019" y="1526" on="0"/>
        <pt x="1070" y="1507" on="0"/>
        <pt x="1100" y="1497" on="1"/>
        <pt x="1182" y="1469" on="0"/>
        <pt x="1282" y="1469" on="0"/>
        <pt x="1341" y="1551" on="1"/>
        <pt x="1437" y="1551" on="1"/>
        <pt x="1304" y="1021" on="1"/>
        <pt x="1209" y="1021" on="1"/>
        <pt x="1214" y="1098" on="0"/>
        <pt x="1214" y="1129" on="1"/>
        <pt x="1214" y="1195" on="0"/>
        <pt x="1183" y="1296" on="0"/>
        <pt x="1109" y="1368" on="0"/>
        <pt x="1058" y="1393" on="1"/>
        <pt x="956" y="1443" on="0"/>
        <pt x="711" y="1443" on="0"/>
        <pt x="536" y="1345" on="0"/>
        <pt x="476" y="1260" on="1"/>
        <pt x="363" y="1097" on="0"/>
        <pt x="341" y="817" on="1"/>
        <pt x="986" y="817" on="1"/>
        <pt x="959" y="704" on="1"/>
        <pt x="338" y="704" on="1"/>
        <pt x="348" y="471" on="0"/>
        <pt x="492" y="296" on="1"/>
        <pt x="651" y="104" on="0"/>
      </contour>
      <contour>
        <pt x="507" y="1943" on="1"/>
        <pt x="1118" y="1972" on="1"/>
        <pt x="1118" y="1789" on="1"/>
        <pt x="507" y="1812" on="1"/>
      </contour>
    </TTGlyph>
    <TTGlyph name="Eng" xMin="45" yMin="-587" xMax="1641" yMax="1588">
      <contour>
        <pt x="45" y="83" on="1"/>
        <pt x="90" y="89" on="1"/>
        <pt x="179" y="103" on="0"/>
        <pt x="200" y="117" on="1"/>
        <pt x="238" y="142" on="0"/>
        <pt x="238" y="210" on="1"/>
        <pt x="238" y="1558" on="1"/>
        <pt x="323" y="1588" on="1"/>
        <pt x="1307" y="350" on="1"/>
        <pt x="1307" y="1287" on="1"/>
        <pt x="1307" y="1383" on="0"/>
        <pt x="1267" y="1412" on="1"/>
        <pt x="1237" y="1434" on="0"/>
        <pt x="1113" y="1445" on="1"/>
        <pt x="1113" y="1530" on="1"/>
        <pt x="1641" y="1530" on="1"/>
        <pt x="1641" y="1445" on="1"/>
        <pt x="1588" y="1439" on="0"/>
        <pt x="1518" y="1428" on="0"/>
        <pt x="1497" y="1413" on="1"/>
        <pt x="1459" y="1386" on="0"/>
        <pt x="1459" y="1290" on="1"/>
        <pt x="1459" y="334" on="1"/>
        <pt x="1459" y="-67" on="0"/>
        <pt x="1312" y="-285" on="1"/>
        <pt x="1153" y="-523" on="0"/>
        <pt x="792" y="-587" on="1"/>
        <pt x="772" y="-489" on="1"/>
        <pt x="1114" y="-411" on="0"/>
        <pt x="1224" y="-122" on="1"/>
        <pt x="1259" y="-28" on="0"/>
        <pt x="1272" y="85" on="1"/>
        <pt x="390" y="1200" on="1"/>
        <pt x="390" y="241" on="1"/>
        <pt x="390" y="155" on="0"/>
        <pt x="430" y="125" on="1"/>
        <pt x="459" y="104" on="0"/>
        <pt x="591" y="85" on="0"/>
        <pt x="604" y="83" on="1"/>
        <pt x="604" y="0" on="1"/>
        <pt x="45" y="0" on="1"/>
      </contour>
    </TTGlyph>
    <TTGlyph name="Eogonek" xMin="97" yMin="-568" xMax="1447" yMax="1552">
      <contour>
        <pt x="994" y="-7" on="1"/>
        <pt x="908" y="-25" on="0"/>
        <pt x="717" y="-25" on="0"/>
        <pt x="516" y="30" on="0"/>
        <pt x="352" y="130" on="0"/>
        <pt x="226" y="269" on="0"/>
        <pt x="184" y="352" on="1"/>
        <pt x="97" y="521" on="0"/>
        <pt x="97" y="725" on="1"/>
        <pt x="97" y="1056" on="0"/>
        <pt x="285" y="1294" on="1"/>
        <pt x="412" y="1456" on="0"/>
        <pt x="611" y="1520" on="1"/>
        <pt x="712" y="1552" on="0"/>
        <pt x="884" y="1552" on="0"/>
        <pt x="965" y="1542" on="0"/>
        <pt x="1029" y="1526" on="0"/>
        <pt x="1080" y="1507" on="0"/>
        <pt x="1110" y="1497" on="1"/>
        <pt x="1192" y="1469" on="0"/>
        <pt x="1292" y="1469" on="0"/>
        <pt x="1351" y="1551" on="1"/>
        <pt x="1447" y="1551" on="1"/>
        <pt x="1314" y="1021" on="1"/>
        <pt x="1219" y="1021" on="1"/>
        <pt x="1224" y="1098" on="0"/>
        <pt x="1224" y="1129" on="1"/>
        <pt x="1224" y="1195" on="0"/>
        <pt x="1193" y="1296" on="0"/>
        <pt x="1119" y="1368" on="0"/>
        <pt x="1068" y="1393" on="1"/>
        <pt x="966" y="1443" on="0"/>
        <pt x="757" y="1443" on="0"/>
        <pt x="623" y="1391" on="0"/>
        <pt x="516" y="1302" on="0"/>
        <pt x="434" y="1180" on="0"/>
        <pt x="406" y="1110" on="1"/>
        <pt x="350" y="975" on="0"/>
        <pt x="335" y="817" on="1"/>
        <pt x="1015" y="817" on="1"/>
        <pt x="988" y="704" on="1"/>
        <pt x="332" y="704" on="1"/>
        <pt x="342" y="467" on="0"/>
        <pt x="474" y="296" on="1"/>
        <pt x="622" y="104" on="0"/>
        <pt x="878" y="104" on="1"/>
        <pt x="1011" y="104" on="0"/>
        <pt x="1098" y="134" on="1"/>
        <pt x="1247" y="184" on="0"/>
        <pt x="1385" y="292" on="1"/>
        <pt x="1435" y="225" on="1"/>
        <pt x="1389" y="187" on="0"/>
        <pt x="1334" y="146" on="1"/>
        <pt x="1224" y="64" on="1"/>
        <pt x="1095" y="-35" on="0"/>
        <pt x="1039" y="-100" on="1"/>
        <pt x="936" y="-221" on="0"/>
        <pt x="936" y="-319" on="1"/>
        <pt x="936" y="-379" on="0"/>
        <pt x="998" y="-444" on="0"/>
        <pt x="1147" y="-444" on="0"/>
        <pt x="1233" y="-402" on="1"/>
        <pt x="1267" y="-481" on="1"/>
        <pt x="1167" y="-539" on="0"/>
        <pt x="1047" y="-561" on="1"/>
        <pt x="1009" y="-568" on="0"/>
        <pt x="922" y="-568" on="0"/>
        <pt x="832" y="-539" on="0"/>
        <pt x="800" y="-512" on="1"/>
        <pt x="732" y="-456" on="0"/>
        <pt x="732" y="-362" on="1"/>
        <pt x="732" y="-187" on="0"/>
      </contour>
    </TTGlyph>
    <TTGlyph name="Eth" xMin="7" yMin="-24" xMax="1519" yMax="1545">
      <contour>
        <pt x="355" y="1532" on="1"/>
        <pt x="435" y="1531" on="1"/>
        <pt x="481" y="1531" on="0"/>
        <pt x="522" y="1534" on="1"/>
        <pt x="594" y="1538" on="1"/>
        <pt x="704" y="1545" on="0"/>
        <pt x="743" y="1545" on="1"/>
        <pt x="1094" y="1545" on="0"/>
        <pt x="1298" y="1372" on="1"/>
        <pt x="1519" y="1183" on="0"/>
        <pt x="1519" y="818" on="1"/>
        <pt x="1519" y="435" on="0"/>
        <pt x="1314" y="210" on="1"/>
        <pt x="1101" y="-24" on="0"/>
        <pt x="726" y="-24" on="1"/>
        <pt x="631" y="-24" on="0"/>
        <pt x="554" y="-16" on="1"/>
        <pt x="428" y="-3" on="1"/>
        <pt x="379" y="2" on="0"/>
        <pt x="355" y="2" on="1"/>
        <pt x="64" y="1" on="1"/>
        <pt x="64" y="84" on="1"/>
        <pt x="121" y="92" on="0"/>
        <pt x="189" y="107" on="0"/>
        <pt x="207" y="124" on="1"/>
        <pt x="237" y="154" on="0"/>
        <pt x="237" y="266" on="1"/>
        <pt x="237" y="766" on="1"/>
        <pt x="7" y="766" on="1"/>
        <pt x="36" y="891" on="1"/>
        <pt x="237" y="891" on="1"/>
        <pt x="237" y="1270" on="1"/>
        <pt x="237" y="1383" on="0"/>
        <pt x="189" y="1427" on="0"/>
        <pt x="121" y="1439" on="0"/>
        <pt x="64" y="1444" on="1"/>
        <pt x="64" y="1532" on="1"/>
      </contour>
      <contour>
        <pt x="440" y="218" on="1"/>
        <pt x="440" y="130" on="0"/>
        <pt x="638" y="98" on="1"/>
        <pt x="697" y="89" on="0"/>
        <pt x="751" y="89" on="1"/>
        <pt x="1172" y="89" on="0"/>
        <pt x="1264" y="524" on="1"/>
        <pt x="1295" y="667" on="0"/>
        <pt x="1295" y="1019" on="0"/>
        <pt x="1210" y="1244" on="0"/>
        <pt x="1134" y="1314" on="1"/>
        <pt x="990" y="1444" on="0"/>
        <pt x="714" y="1444" on="1"/>
        <pt x="544" y="1444" on="0"/>
        <pt x="468" y="1386" on="1"/>
        <pt x="440" y="1364" on="0"/>
        <pt x="440" y="1330" on="1"/>
        <pt x="440" y="891" on="1"/>
        <pt x="782" y="891" on="1"/>
        <pt x="752" y="766" on="1"/>
        <pt x="440" y="766" on="1"/>
      </contour>
    </TTGlyph>
    <TTGlyph name="Euro" xMin="140" yMin="-24" xMax="1669" yMax="1554">
      <contour>
        <pt x="574" y="828" on="1"/>
        <pt x="572" y="788" on="0"/>
        <pt x="572" y="762" on="1"/>
        <pt x="572" y="722" on="1"/>
        <pt x="572" y="710" on="0"/>
        <pt x="573" y="697" on="1"/>
        <pt x="1235" y="697" on="1"/>
        <pt x="1208" y="584" on="1"/>
        <pt x="588" y="584" on="1"/>
        <pt x="650" y="265" on="0"/>
        <pt x="908" y="155" on="1"/>
        <pt x="1000" y="116" on="0"/>
        <pt x="1190" y="116" on="0"/>
        <pt x="1310" y="137" on="0"/>
        <pt x="1364" y="158" on="1"/>
        <pt x="1466" y="200" on="0"/>
        <pt x="1555" y="293" on="1"/>
        <pt x="1605" y="226" on="1"/>
        <pt x="1491" y="46" on="0"/>
        <pt x="1252" y="-6" on="1"/>
        <pt x="1172" y="-24" on="0"/>
        <pt x="922" y="-24" on="0"/>
        <pt x="673" y="72" on="0"/>
        <pt x="582" y="154" on="1"/>
        <pt x="401" y="318" on="0"/>
        <pt x="352" y="584" on="1"/>
        <pt x="140" y="584" on="1"/>
        <pt x="140" y="697" on="1"/>
        <pt x="339" y="697" on="1"/>
        <pt x="337" y="725" on="0"/>
        <pt x="337" y="792" on="0"/>
        <pt x="340" y="828" on="1"/>
        <pt x="140" y="828" on="1"/>
        <pt x="140" y="941" on="1"/>
        <pt x="356" y="941" on="1"/>
        <pt x="409" y="1203" on="0"/>
        <pt x="592" y="1370" on="1"/>
        <pt x="791" y="1552" on="0"/>
        <pt x="1083" y="1552" on="1"/>
        <pt x="1206" y="1552" on="0"/>
        <pt x="1305" y="1519" on="1"/>
        <pt x="1356" y="1502" on="1"/>
        <pt x="1426" y="1472" on="0"/>
        <pt x="1463" y="1472" on="1"/>
        <pt x="1513" y="1472" on="0"/>
        <pt x="1574" y="1554" on="1"/>
        <pt x="1669" y="1554" on="1"/>
        <pt x="1537" y="1024" on="1"/>
        <pt x="1441" y="1024" on="1"/>
        <pt x="1446" y="1084" on="0"/>
        <pt x="1446" y="1119" on="1"/>
        <pt x="1446" y="1194" on="0"/>
        <pt x="1416" y="1299" on="0"/>
        <pt x="1345" y="1370" on="0"/>
        <pt x="1296" y="1394" on="1"/>
        <pt x="1197" y="1443" on="0"/>
        <pt x="965" y="1443" on="0"/>
        <pt x="794" y="1361" on="0"/>
        <pt x="734" y="1292" on="1"/>
        <pt x="622" y="1162" on="0"/>
        <pt x="587" y="941" on="1"/>
        <pt x="1299" y="941" on="1"/>
        <pt x="1272" y="828" on="1"/>
      </contour>
    </TTGlyph>
    <TTGlyph name="F" xMin="86" yMin="0" xMax="1339" yMax="1530">
      <contour>
        <pt x="1139" y="1100" on="1"/>
        <pt x="1160" y="1213" on="0"/>
        <pt x="1160" y="1317" on="0"/>
        <pt x="1135" y="1374" on="0"/>
        <pt x="1106" y="1390" on="1"/>
        <pt x="1057" y="1418" on="0"/>
        <pt x="915" y="1418" on="1"/>
        <pt x="461" y="1418" on="1"/>
        <pt x="461" y="842" on="1"/>
        <pt x="1057" y="842" on="1"/>
        <pt x="1030" y="728" on="1"/>
        <pt x="461" y="728" on="1"/>
        <pt x="461" y="265" on="1"/>
        <pt x="461" y="207" on="0"/>
        <pt x="476" y="142" on="0"/>
        <pt x="533" y="108" on="0"/>
        <pt x="645" y="92" on="0"/>
        <pt x="741" y="83" on="1"/>
        <pt x="741" y="0" on="1"/>
        <pt x="86" y="0" on="1"/>
        <pt x="86" y="83" on="1"/>
        <pt x="143" y="91" on="0"/>
        <pt x="211" y="106" on="0"/>
        <pt x="229" y="124" on="1"/>
        <pt x="259" y="153" on="0"/>
        <pt x="259" y="265" on="1"/>
        <pt x="259" y="1267" on="1"/>
        <pt x="259" y="1381" on="0"/>
        <pt x="211" y="1425" on="0"/>
        <pt x="143" y="1438" on="0"/>
        <pt x="86" y="1443" on="1"/>
        <pt x="86" y="1530" on="1"/>
        <pt x="1339" y="1530" on="1"/>
        <pt x="1234" y="1100" on="1"/>
      </contour>
    </TTGlyph>
    <TTGlyph name="G" xMin="96" yMin="-388" xMax="1591" yMax="1553">
      <contour>
        <pt x="1288" y="58" on="1"/>
        <pt x="1120" y="-26" on="0"/>
        <pt x="883" y="-26" on="1"/>
        <pt x="509" y="-26" on="0"/>
        <pt x="294" y="218" on="1"/>
        <pt x="96" y="444" on="0"/>
        <pt x="96" y="761" on="1"/>
        <pt x="96" y="1082" on="0"/>
        <pt x="293" y="1304" on="1"/>
        <pt x="511" y="1551" on="0"/>
        <pt x="893" y="1551" on="1"/>
        <pt x="1018" y="1551" on="0"/>
        <pt x="1128" y="1518" on="1"/>
        <pt x="1185" y="1501" on="1"/>
        <pt x="1280" y="1471" on="0"/>
        <pt x="1380" y="1471" on="0"/>
        <pt x="1441" y="1553" on="1"/>
        <pt x="1536" y="1553" on="1"/>
        <pt x="1403" y="1043" on="1"/>
        <pt x="1308" y="1043" on="1"/>
        <pt x="1312" y="1100" on="1"/>
        <pt x="1313" y="1125" on="0"/>
        <pt x="1313" y="1150" on="1"/>
        <pt x="1313" y="1274" on="0"/>
        <pt x="1240" y="1334" on="1"/>
        <pt x="1157" y="1404" on="0"/>
        <pt x="1019" y="1430" on="1"/>
        <pt x="954" y="1443" on="0"/>
        <pt x="782" y="1443" on="0"/>
        <pt x="612" y="1386" on="0"/>
        <pt x="487" y="1288" on="0"/>
        <pt x="405" y="1155" on="0"/>
        <pt x="380" y="1080" on="1"/>
        <pt x="335" y="944" on="0"/>
        <pt x="335" y="761" on="1"/>
        <pt x="335" y="501" on="0"/>
        <pt x="459" y="314" on="1"/>
        <pt x="604" y="95" on="0"/>
        <pt x="1155" y="95" on="0"/>
        <pt x="1282" y="210" on="1"/>
        <pt x="1270" y="502" on="1"/>
        <pt x="1266" y="615" on="0"/>
        <pt x="1220" y="644" on="1"/>
        <pt x="1182" y="669" on="0"/>
        <pt x="1023" y="680" on="1"/>
        <pt x="1023" y="765" on="1"/>
        <pt x="1591" y="765" on="1"/>
        <pt x="1591" y="680" on="1"/>
        <pt x="1561" y="674" on="0"/>
        <pt x="1520" y="662" on="0"/>
        <pt x="1508" y="645" on="1"/>
        <pt x="1485" y="614" on="0"/>
        <pt x="1481" y="502" on="1"/>
        <pt x="1438" y="-388" on="1"/>
        <pt x="1313" y="-388" on="1"/>
      </contour>
    </TTGlyph>
    <TTGlyph name="Gbreve" xMin="96" yMin="-388" xMax="1591" yMax="1945">
      <contour>
        <pt x="1288" y="58" on="1"/>
        <pt x="1120" y="-26" on="0"/>
        <pt x="883" y="-26" on="1"/>
        <pt x="509" y="-26" on="0"/>
        <pt x="294" y="218" on="1"/>
        <pt x="96" y="444" on="0"/>
        <pt x="96" y="761" on="1"/>
        <pt x="96" y="1082" on="0"/>
        <pt x="293" y="1304" on="1"/>
        <pt x="511" y="1551" on="0"/>
        <pt x="893" y="1551" on="1"/>
        <pt x="1018" y="1551" on="0"/>
        <pt x="1128" y="1518" on="1"/>
        <pt x="1185" y="1501" on="1"/>
        <pt x="1280" y="1471" on="0"/>
        <pt x="1380" y="1471" on="0"/>
        <pt x="1441" y="1553" on="1"/>
        <pt x="1536" y="1553" on="1"/>
        <pt x="1403" y="1043" on="1"/>
        <pt x="1308" y="1043" on="1"/>
        <pt x="1312" y="1100" on="1"/>
        <pt x="1313" y="1125" on="0"/>
        <pt x="1313" y="1150" on="1"/>
        <pt x="1313" y="1274" on="0"/>
        <pt x="1240" y="1334" on="1"/>
        <pt x="1157" y="1404" on="0"/>
        <pt x="1019" y="1430" on="1"/>
        <pt x="954" y="1443" on="0"/>
        <pt x="782" y="1443" on="0"/>
        <pt x="612" y="1386" on="0"/>
        <pt x="487" y="1288" on="0"/>
        <pt x="405" y="1155" on="0"/>
        <pt x="380" y="1080" on="1"/>
        <pt x="335" y="944" on="0"/>
        <pt x="335" y="761" on="1"/>
        <pt x="335" y="501" on="0"/>
        <pt x="459" y="314" on="1"/>
        <pt x="604" y="95" on="0"/>
        <pt x="1155" y="95" on="0"/>
        <pt x="1282" y="210" on="1"/>
        <pt x="1270" y="502" on="1"/>
        <pt x="1266" y="615" on="0"/>
        <pt x="1220" y="644" on="1"/>
        <pt x="1182" y="669" on="0"/>
        <pt x="1023" y="680" on="1"/>
        <pt x="1023" y="765" on="1"/>
        <pt x="1591" y="765" on="1"/>
        <pt x="1591" y="680" on="1"/>
        <pt x="1561" y="674" on="0"/>
        <pt x="1520" y="662" on="0"/>
        <pt x="1508" y="645" on="1"/>
        <pt x="1485" y="614" on="0"/>
        <pt x="1481" y="502" on="1"/>
        <pt x="1438" y="-388" on="1"/>
        <pt x="1313" y="-388" on="1"/>
      </contour>
      <contour>
        <pt x="1021" y="1660" on="1"/>
        <pt x="969" y="1642" on="0"/>
        <pt x="834" y="1642" on="0"/>
        <pt x="721" y="1685" on="0"/>
        <pt x="678" y="1725" on="1"/>
        <pt x="585" y="1813" on="0"/>
        <pt x="583" y="1945" on="1"/>
        <pt x="686" y="1945" on="1"/>
        <pt x="700" y="1880" on="0"/>
        <pt x="812" y="1801" on="0"/>
        <pt x="951" y="1801" on="0"/>
        <pt x="1019" y="1826" on="0"/>
        <pt x="1065" y="1867" on="0"/>
        <pt x="1080" y="1893" on="1"/>
        <pt x="1109" y="1945" on="1"/>
        <pt x="1212" y="1945" on="1"/>
        <pt x="1197" y="1723" on="0"/>
      </contour>
    </TTGlyph>
    <TTGlyph name="Gcircumflex" xMin="96" yMin="-388" xMax="1591" yMax="1971">
      <contour>
        <pt x="1288" y="58" on="1"/>
        <pt x="1120" y="-26" on="0"/>
        <pt x="883" y="-26" on="1"/>
        <pt x="509" y="-26" on="0"/>
        <pt x="294" y="218" on="1"/>
        <pt x="96" y="444" on="0"/>
        <pt x="96" y="761" on="1"/>
        <pt x="96" y="1082" on="0"/>
        <pt x="293" y="1304" on="1"/>
        <pt x="511" y="1551" on="0"/>
        <pt x="893" y="1551" on="1"/>
        <pt x="1018" y="1551" on="0"/>
        <pt x="1128" y="1518" on="1"/>
        <pt x="1185" y="1501" on="1"/>
        <pt x="1280" y="1471" on="0"/>
        <pt x="1380" y="1471" on="0"/>
        <pt x="1441" y="1553" on="1"/>
        <pt x="1536" y="1553" on="1"/>
        <pt x="1403" y="1043" on="1"/>
        <pt x="1308" y="1043" on="1"/>
        <pt x="1312" y="1100" on="1"/>
        <pt x="1313" y="1125" on="0"/>
        <pt x="1313" y="1150" on="1"/>
        <pt x="1313" y="1274" on="0"/>
        <pt x="1240" y="1334" on="1"/>
        <pt x="1157" y="1404" on="0"/>
        <pt x="1019" y="1430" on="1"/>
        <pt x="954" y="1443" on="0"/>
        <pt x="782" y="1443" on="0"/>
        <pt x="612" y="1386" on="0"/>
        <pt x="487" y="1288" on="0"/>
        <pt x="405" y="1155" on="0"/>
        <pt x="380" y="1080" on="1"/>
        <pt x="335" y="944" on="0"/>
        <pt x="335" y="761" on="1"/>
        <pt x="335" y="501" on="0"/>
        <pt x="459" y="314" on="1"/>
        <pt x="604" y="95" on="0"/>
        <pt x="1155" y="95" on="0"/>
        <pt x="1282" y="210" on="1"/>
        <pt x="1270" y="502" on="1"/>
        <pt x="1266" y="615" on="0"/>
        <pt x="1220" y="644" on="1"/>
        <pt x="1182" y="669" on="0"/>
        <pt x="1023" y="680" on="1"/>
        <pt x="1023" y="765" on="1"/>
        <pt x="1591" y="765" on="1"/>
        <pt x="1591" y="680" on="1"/>
        <pt x="1561" y="674" on="0"/>
        <pt x="1520" y="662" on="0"/>
        <pt x="1508" y="645" on="1"/>
        <pt x="1485" y="614" on="0"/>
        <pt x="1481" y="502" on="1"/>
        <pt x="1438" y="-388" on="1"/>
        <pt x="1313" y="-388" on="1"/>
      </contour>
      <contour>
        <pt x="562" y="1690" on="1"/>
        <pt x="804" y="1971" on="1"/>
        <pt x="990" y="1971" on="1"/>
        <pt x="1232" y="1690" on="1"/>
        <pt x="1168" y="1626" on="1"/>
        <pt x="897" y="1798" on="1"/>
        <pt x="626" y="1626" on="1"/>
      </contour>
    </TTGlyph>
    <TTGlyph name="Gcommaaccent" xMin="96" yMin="-588" xMax="1591" yMax="1553">
      <contour>
        <pt x="1288" y="58" on="1"/>
        <pt x="1120" y="-26" on="0"/>
        <pt x="883" y="-26" on="1"/>
        <pt x="509" y="-26" on="0"/>
        <pt x="294" y="218" on="1"/>
        <pt x="96" y="444" on="0"/>
        <pt x="96" y="761" on="1"/>
        <pt x="96" y="1082" on="0"/>
        <pt x="293" y="1304" on="1"/>
        <pt x="511" y="1551" on="0"/>
        <pt x="893" y="1551" on="1"/>
        <pt x="1018" y="1551" on="0"/>
        <pt x="1128" y="1518" on="1"/>
        <pt x="1185" y="1501" on="1"/>
        <pt x="1280" y="1471" on="0"/>
        <pt x="1380" y="1471" on="0"/>
        <pt x="1441" y="1553" on="1"/>
        <pt x="1536" y="1553" on="1"/>
        <pt x="1403" y="1043" on="1"/>
        <pt x="1308" y="1043" on="1"/>
        <pt x="1312" y="1100" on="1"/>
        <pt x="1313" y="1125" on="0"/>
        <pt x="1313" y="1150" on="1"/>
        <pt x="1313" y="1274" on="0"/>
        <pt x="1240" y="1334" on="1"/>
        <pt x="1157" y="1404" on="0"/>
        <pt x="1019" y="1430" on="1"/>
        <pt x="954" y="1443" on="0"/>
        <pt x="782" y="1443" on="0"/>
        <pt x="612" y="1386" on="0"/>
        <pt x="487" y="1288" on="0"/>
        <pt x="405" y="1155" on="0"/>
        <pt x="380" y="1080" on="1"/>
        <pt x="335" y="944" on="0"/>
        <pt x="335" y="761" on="1"/>
        <pt x="335" y="501" on="0"/>
        <pt x="459" y="314" on="1"/>
        <pt x="604" y="95" on="0"/>
        <pt x="1155" y="95" on="0"/>
        <pt x="1282" y="210" on="1"/>
        <pt x="1270" y="502" on="1"/>
        <pt x="1266" y="615" on="0"/>
        <pt x="1220" y="644" on="1"/>
        <pt x="1182" y="669" on="0"/>
        <pt x="1023" y="680" on="1"/>
        <pt x="1023" y="765" on="1"/>
        <pt x="1591" y="765" on="1"/>
        <pt x="1591" y="680" on="1"/>
        <pt x="1561" y="674" on="0"/>
        <pt x="1520" y="662" on="0"/>
        <pt x="1508" y="645" on="1"/>
        <pt x="1485" y="614" on="0"/>
        <pt x="1481" y="502" on="1"/>
        <pt x="1438" y="-388" on="1"/>
        <pt x="1313" y="-388" on="1"/>
      </contour>
      <contour>
        <pt x="895" y="-93" on="1"/>
        <pt x="1045" y="-245" on="1"/>
        <pt x="1045" y="-410" on="0"/>
        <pt x="912" y="-521" on="1"/>
        <pt x="864" y="-561" on="0"/>
        <pt x="794" y="-588" on="1"/>
        <pt x="752" y="-514" on="1"/>
        <pt x="787" y="-492" on="0"/>
        <pt x="838" y="-436" on="0"/>
        <pt x="838" y="-372" on="0"/>
        <pt x="828" y="-340" on="0"/>
        <pt x="817" y="-323" on="1"/>
        <pt x="799" y="-295" on="0"/>
        <pt x="746" y="-240" on="1"/>
      </contour>
    </TTGlyph>
    <TTGlyph name="Gdotaccent" xMin="96" yMin="-388" xMax="1591" yMax="1972">
      <contour>
        <pt x="1288" y="58" on="1"/>
        <pt x="1120" y="-26" on="0"/>
        <pt x="883" y="-26" on="1"/>
        <pt x="509" y="-26" on="0"/>
        <pt x="294" y="218" on="1"/>
        <pt x="96" y="444" on="0"/>
        <pt x="96" y="761" on="1"/>
        <pt x="96" y="1082" on="0"/>
        <pt x="293" y="1304" on="1"/>
        <pt x="511" y="1551" on="0"/>
        <pt x="893" y="1551" on="1"/>
        <pt x="1018" y="1551" on="0"/>
        <pt x="1128" y="1518" on="1"/>
        <pt x="1185" y="1501" on="1"/>
        <pt x="1280" y="1471" on="0"/>
        <pt x="1380" y="1471" on="0"/>
        <pt x="1441" y="1553" on="1"/>
        <pt x="1536" y="1553" on="1"/>
        <pt x="1403" y="1043" on="1"/>
        <pt x="1308" y="1043" on="1"/>
        <pt x="1312" y="1100" on="1"/>
        <pt x="1313" y="1125" on="0"/>
        <pt x="1313" y="1150" on="1"/>
        <pt x="1313" y="1274" on="0"/>
        <pt x="1240" y="1334" on="1"/>
        <pt x="1157" y="1404" on="0"/>
        <pt x="1019" y="1430" on="1"/>
        <pt x="954" y="1443" on="0"/>
        <pt x="782" y="1443" on="0"/>
        <pt x="612" y="1386" on="0"/>
        <pt x="487" y="1288" on="0"/>
        <pt x="405" y="1155" on="0"/>
        <pt x="380" y="1080" on="1"/>
        <pt x="335" y="944" on="0"/>
        <pt x="335" y="761" on="1"/>
        <pt x="335" y="501" on="0"/>
        <pt x="459" y="314" on="1"/>
        <pt x="604" y="95" on="0"/>
        <pt x="1155" y="95" on="0"/>
        <pt x="1282" y="210" on="1"/>
        <pt x="1270" y="502" on="1"/>
        <pt x="1266" y="615" on="0"/>
        <pt x="1220" y="644" on="1"/>
        <pt x="1182" y="669" on="0"/>
        <pt x="1023" y="680" on="1"/>
        <pt x="1023" y="765" on="1"/>
        <pt x="1591" y="765" on="1"/>
        <pt x="1591" y="680" on="1"/>
        <pt x="1561" y="674" on="0"/>
        <pt x="1520" y="662" on="0"/>
        <pt x="1508" y="645" on="1"/>
        <pt x="1485" y="614" on="0"/>
        <pt x="1481" y="502" on="1"/>
        <pt x="1438" y="-388" on="1"/>
        <pt x="1313" y="-388" on="1"/>
      </contour>
      <contour>
        <pt x="717" y="1793" on="1"/>
        <pt x="899" y="1972" on="1"/>
        <pt x="1077" y="1793" on="1"/>
        <pt x="899" y="1613" on="1"/>
      </contour>
    </TTGlyph>
    <TTGlyph name="H" xMin="104" yMin="0" xMax="1593" yMax="1530">
      <contour>
        <pt x="112" y="83" on="1"/>
        <pt x="169" y="91" on="0"/>
        <pt x="234" y="106" on="0"/>
        <pt x="267" y="141" on="0"/>
        <pt x="275" y="207" on="0"/>
        <pt x="275" y="265" on="1"/>
        <pt x="275" y="1267" on="1"/>
        <pt x="275" y="1380" on="0"/>
        <pt x="229" y="1425" on="0"/>
        <pt x="161" y="1438" on="0"/>
        <pt x="104" y="1443" on="1"/>
        <pt x="104" y="1530" on="1"/>
        <pt x="647" y="1530" on="1"/>
        <pt x="647" y="1443" on="1"/>
        <pt x="590" y="1437" on="0"/>
        <pt x="522" y="1426" on="0"/>
        <pt x="504" y="1410" on="1"/>
        <pt x="475" y="1383" on="0"/>
        <pt x="475" y="1267" on="1"/>
        <pt x="475" y="849" on="1"/>
        <pt x="1220" y="849" on="1"/>
        <pt x="1220" y="1267" on="1"/>
        <pt x="1220" y="1381" on="0"/>
        <pt x="1173" y="1425" on="0"/>
        <pt x="1105" y="1438" on="0"/>
        <pt x="1048" y="1443" on="1"/>
        <pt x="1048" y="1530" on="1"/>
        <pt x="1593" y="1530" on="1"/>
        <pt x="1593" y="1443" on="1"/>
        <pt x="1537" y="1437" on="0"/>
        <pt x="1469" y="1426" on="0"/>
        <pt x="1451" y="1410" on="1"/>
        <pt x="1421" y="1382" on="0"/>
        <pt x="1421" y="1267" on="1"/>
        <pt x="1421" y="265" on="1"/>
        <pt x="1421" y="207" on="0"/>
        <pt x="1430" y="142" on="0"/>
        <pt x="1465" y="108" on="0"/>
        <pt x="1534" y="92" on="0"/>
        <pt x="1593" y="83" on="1"/>
        <pt x="1593" y="0" on="1"/>
        <pt x="1048" y="0" on="1"/>
        <pt x="1048" y="83" on="1"/>
        <pt x="1104" y="91" on="0"/>
        <pt x="1172" y="106" on="0"/>
        <pt x="1190" y="124" on="1"/>
        <pt x="1220" y="153" on="0"/>
        <pt x="1220" y="265" on="1"/>
        <pt x="1220" y="736" on="1"/>
        <pt x="475" y="736" on="1"/>
        <pt x="475" y="265" on="1"/>
        <pt x="475" y="152" on="0"/>
        <pt x="520" y="108" on="0"/>
        <pt x="588" y="92" on="0"/>
        <pt x="647" y="83" on="1"/>
        <pt x="647" y="0" on="1"/>
        <pt x="112" y="0" on="1"/>
      </contour>
    </TTGlyph>
    <TTGlyph name="Hbar" xMin="104" yMin="0" xMax="1593" yMax="1530">
      <contour>
        <pt x="112" y="83" on="1"/>
        <pt x="169" y="91" on="0"/>
        <pt x="234" y="106" on="0"/>
        <pt x="267" y="141" on="0"/>
        <pt x="275" y="207" on="0"/>
        <pt x="275" y="265" on="1"/>
        <pt x="275" y="1051" on="1"/>
        <pt x="121" y="1051" on="1"/>
        <pt x="121" y="1176" on="1"/>
        <pt x="275" y="1176" on="1"/>
        <pt x="275" y="1267" on="1"/>
        <pt x="275" y="1380" on="0"/>
        <pt x="229" y="1425" on="0"/>
        <pt x="161" y="1438" on="0"/>
        <pt x="104" y="1443" on="1"/>
        <pt x="104" y="1530" on="1"/>
        <pt x="650" y="1530" on="1"/>
        <pt x="650" y="1443" on="1"/>
        <pt x="593" y="1437" on="0"/>
        <pt x="525" y="1426" on="0"/>
        <pt x="507" y="1410" on="1"/>
        <pt x="478" y="1383" on="0"/>
        <pt x="478" y="1267" on="1"/>
        <pt x="478" y="1176" on="1"/>
        <pt x="1218" y="1176" on="1"/>
        <pt x="1218" y="1267" on="1"/>
        <pt x="1218" y="1381" on="0"/>
        <pt x="1171" y="1425" on="0"/>
        <pt x="1103" y="1438" on="0"/>
        <pt x="1046" y="1443" on="1"/>
        <pt x="1046" y="1530" on="1"/>
        <pt x="1593" y="1530" on="1"/>
        <pt x="1593" y="1443" on="1"/>
        <pt x="1537" y="1437" on="0"/>
        <pt x="1469" y="1426" on="0"/>
        <pt x="1451" y="1410" on="1"/>
        <pt x="1421" y="1382" on="0"/>
        <pt x="1421" y="1267" on="1"/>
        <pt x="1421" y="1176" on="1"/>
        <pt x="1560" y="1176" on="1"/>
        <pt x="1560" y="1051" on="1"/>
        <pt x="1421" y="1051" on="1"/>
        <pt x="1421" y="265" on="1"/>
        <pt x="1421" y="207" on="0"/>
        <pt x="1430" y="142" on="0"/>
        <pt x="1465" y="108" on="0"/>
        <pt x="1534" y="92" on="0"/>
        <pt x="1593" y="83" on="1"/>
        <pt x="1593" y="0" on="1"/>
        <pt x="1046" y="0" on="1"/>
        <pt x="1046" y="83" on="1"/>
        <pt x="1102" y="91" on="0"/>
        <pt x="1170" y="106" on="0"/>
        <pt x="1188" y="124" on="1"/>
        <pt x="1218" y="153" on="0"/>
        <pt x="1218" y="265" on="1"/>
        <pt x="1218" y="736" on="1"/>
        <pt x="478" y="736" on="1"/>
        <pt x="478" y="265" on="1"/>
        <pt x="478" y="152" on="0"/>
        <pt x="523" y="108" on="0"/>
        <pt x="591" y="92" on="0"/>
        <pt x="650" y="83" on="1"/>
        <pt x="650" y="0" on="1"/>
        <pt x="112" y="0" on="1"/>
      </contour>
      <contour>
        <pt x="1218" y="849" on="1"/>
        <pt x="1218" y="1051" on="1"/>
        <pt x="478" y="1051" on="1"/>
        <pt x="478" y="849" on="1"/>
      </contour>
    </TTGlyph>
    <TTGlyph name="Hcircumflex" xMin="104" yMin="0" xMax="1593" yMax="1971">
      <contour>
        <pt x="112" y="83" on="1"/>
        <pt x="169" y="91" on="0"/>
        <pt x="234" y="106" on="0"/>
        <pt x="267" y="141" on="0"/>
        <pt x="275" y="207" on="0"/>
        <pt x="275" y="265" on="1"/>
        <pt x="275" y="1267" on="1"/>
        <pt x="275" y="1380" on="0"/>
        <pt x="229" y="1425" on="0"/>
        <pt x="161" y="1438" on="0"/>
        <pt x="104" y="1443" on="1"/>
        <pt x="104" y="1530" on="1"/>
        <pt x="647" y="1530" on="1"/>
        <pt x="647" y="1443" on="1"/>
        <pt x="590" y="1437" on="0"/>
        <pt x="522" y="1426" on="0"/>
        <pt x="504" y="1410" on="1"/>
        <pt x="475" y="1383" on="0"/>
        <pt x="475" y="1267" on="1"/>
        <pt x="475" y="849" on="1"/>
        <pt x="1220" y="849" on="1"/>
        <pt x="1220" y="1267" on="1"/>
        <pt x="1220" y="1381" on="0"/>
        <pt x="1173" y="1425" on="0"/>
        <pt x="1105" y="1438" on="0"/>
        <pt x="1048" y="1443" on="1"/>
        <pt x="1048" y="1530" on="1"/>
        <pt x="1593" y="1530" on="1"/>
        <pt x="1593" y="1443" on="1"/>
        <pt x="1537" y="1437" on="0"/>
        <pt x="1469" y="1426" on="0"/>
        <pt x="1451" y="1410" on="1"/>
        <pt x="1421" y="1382" on="0"/>
        <pt x="1421" y="1267" on="1"/>
        <pt x="1421" y="265" on="1"/>
        <pt x="1421" y="207" on="0"/>
        <pt x="1430" y="142" on="0"/>
        <pt x="1465" y="108" on="0"/>
        <pt x="1534" y="92" on="0"/>
        <pt x="1593" y="83" on="1"/>
        <pt x="1593" y="0" on="1"/>
        <pt x="1048" y="0" on="1"/>
        <pt x="1048" y="83" on="1"/>
        <pt x="1104" y="91" on="0"/>
        <pt x="1172" y="106" on="0"/>
        <pt x="1190" y="124" on="1"/>
        <pt x="1220" y="153" on="0"/>
        <pt x="1220" y="265" on="1"/>
        <pt x="1220" y="736" on="1"/>
        <pt x="475" y="736" on="1"/>
        <pt x="475" y="265" on="1"/>
        <pt x="475" y="152" on="0"/>
        <pt x="520" y="108" on="0"/>
        <pt x="588" y="92" on="0"/>
        <pt x="647" y="83" on="1"/>
        <pt x="647" y="0" on="1"/>
        <pt x="112" y="0" on="1"/>
      </contour>
      <contour>
        <pt x="513" y="1690" on="1"/>
        <pt x="755" y="1971" on="1"/>
        <pt x="941" y="1971" on="1"/>
        <pt x="1183" y="1690" on="1"/>
        <pt x="1119" y="1626" on="1"/>
        <pt x="848" y="1798" on="1"/>
        <pt x="577" y="1626" on="1"/>
      </contour>
    </TTGlyph>
    <TTGlyph name="I" xMin="154" yMin="0" xMax="701" yMax="1530">
      <contour>
        <pt x="154" y="82" on="1"/>
        <pt x="156" y="83" on="1"/>
        <pt x="188" y="88" on="1"/>
        <pt x="279" y="100" on="0"/>
        <pt x="298" y="121" on="1"/>
        <pt x="327" y="154" on="0"/>
        <pt x="327" y="265" on="1"/>
        <pt x="327" y="1267" on="1"/>
        <pt x="327" y="1381" on="0"/>
        <pt x="279" y="1425" on="0"/>
        <pt x="211" y="1438" on="0"/>
        <pt x="154" y="1443" on="1"/>
        <pt x="154" y="1530" on="1"/>
        <pt x="701" y="1530" on="1"/>
        <pt x="701" y="1443" on="1"/>
        <pt x="645" y="1437" on="0"/>
        <pt x="577" y="1426" on="0"/>
        <pt x="559" y="1410" on="1"/>
        <pt x="529" y="1382" on="0"/>
        <pt x="529" y="1267" on="1"/>
        <pt x="529" y="265" on="1"/>
        <pt x="529" y="153" on="0"/>
        <pt x="565" y="109" on="0"/>
        <pt x="618" y="96" on="0"/>
        <pt x="663" y="89" on="1"/>
        <pt x="701" y="83" on="1"/>
        <pt x="701" y="0" on="1"/>
        <pt x="154" y="0" on="1"/>
      </contour>
    </TTGlyph>
    <TTGlyph name="IJ" xMin="154" yMin="-565" xMax="1534" yMax="1530">
      <contour>
        <pt x="154" y="82" on="1"/>
        <pt x="156" y="83" on="1"/>
        <pt x="188" y="88" on="1"/>
        <pt x="279" y="100" on="0"/>
        <pt x="298" y="121" on="1"/>
        <pt x="327" y="154" on="0"/>
        <pt x="327" y="265" on="1"/>
        <pt x="327" y="1267" on="1"/>
        <pt x="327" y="1381" on="0"/>
        <pt x="279" y="1425" on="0"/>
        <pt x="211" y="1438" on="0"/>
        <pt x="154" y="1443" on="1"/>
        <pt x="154" y="1530" on="1"/>
        <pt x="701" y="1530" on="1"/>
        <pt x="701" y="1443" on="1"/>
        <pt x="645" y="1437" on="0"/>
        <pt x="577" y="1426" on="0"/>
        <pt x="559" y="1410" on="1"/>
        <pt x="529" y="1382" on="0"/>
        <pt x="529" y="1267" on="1"/>
        <pt x="529" y="265" on="1"/>
        <pt x="529" y="153" on="0"/>
        <pt x="565" y="109" on="0"/>
        <pt x="618" y="96" on="0"/>
        <pt x="663" y="89" on="1"/>
        <pt x="701" y="83" on="1"/>
        <pt x="701" y="0" on="1"/>
        <pt x="154" y="0" on="1"/>
      </contour>
      <contour>
        <pt x="1139" y="1266" on="1"/>
        <pt x="1139" y="1378" on="0"/>
        <pt x="1096" y="1410" on="1"/>
        <pt x="1074" y="1427" on="0"/>
        <pt x="1000" y="1438" on="0"/>
        <pt x="946" y="1443" on="1"/>
        <pt x="946" y="1530" on="1"/>
        <pt x="1534" y="1530" on="1"/>
        <pt x="1534" y="1443" on="1"/>
        <pt x="1474" y="1437" on="0"/>
        <pt x="1399" y="1426" on="0"/>
        <pt x="1378" y="1410" on="1"/>
        <pt x="1342" y="1381" on="0"/>
        <pt x="1342" y="1267" on="1"/>
        <pt x="1342" y="429" on="1"/>
        <pt x="1342" y="147" on="0"/>
        <pt x="1286" y="-106" on="0"/>
        <pt x="1218" y="-255" on="0"/>
        <pt x="1165" y="-320" on="1"/>
        <pt x="1066" y="-443" on="0"/>
        <pt x="869" y="-565" on="1"/>
        <pt x="815" y="-497" on="1"/>
        <pt x="961" y="-355" on="0"/>
        <pt x="1062" y="-188" on="0"/>
        <pt x="1106" y="-60" on="0"/>
        <pt x="1118" y="16" on="1"/>
        <pt x="1139" y="139" on="0"/>
        <pt x="1139" y="392" on="1"/>
      </contour>
    </TTGlyph>
    <TTGlyph name="Iacute" xMin="144" yMin="0" xMax="710" yMax="1970">
      <contour>
        <pt x="154" y="82" on="1"/>
        <pt x="156" y="83" on="1"/>
        <pt x="188" y="88" on="1"/>
        <pt x="279" y="100" on="0"/>
        <pt x="298" y="121" on="1"/>
        <pt x="327" y="154" on="0"/>
        <pt x="327" y="265" on="1"/>
        <pt x="327" y="1267" on="1"/>
        <pt x="327" y="1381" on="0"/>
        <pt x="279" y="1425" on="0"/>
        <pt x="211" y="1438" on="0"/>
        <pt x="154" y="1443" on="1"/>
        <pt x="154" y="1530" on="1"/>
        <pt x="701" y="1530" on="1"/>
        <pt x="701" y="1443" on="1"/>
        <pt x="645" y="1437" on="0"/>
        <pt x="577" y="1426" on="0"/>
        <pt x="559" y="1410" on="1"/>
        <pt x="529" y="1382" on="0"/>
        <pt x="529" y="1267" on="1"/>
        <pt x="529" y="265" on="1"/>
        <pt x="529" y="153" on="0"/>
        <pt x="565" y="109" on="0"/>
        <pt x="618" y="96" on="0"/>
        <pt x="663" y="89" on="1"/>
        <pt x="701" y="83" on="1"/>
        <pt x="701" y="0" on="1"/>
        <pt x="154" y="0" on="1"/>
      </contour>
      <contour>
        <pt x="144" y="1692" on="1"/>
        <pt x="596" y="1970" on="1"/>
        <pt x="710" y="1752" on="1"/>
        <pt x="176" y="1602" on="1"/>
      </contour>
    </TTGlyph>
    <TTGlyph name="Ibreve" xMin="114" yMin="0" xMax="743" yMax="1945">
      <contour>
        <pt x="154" y="82" on="1"/>
        <pt x="156" y="83" on="1"/>
        <pt x="188" y="88" on="1"/>
        <pt x="279" y="100" on="0"/>
        <pt x="298" y="121" on="1"/>
        <pt x="327" y="154" on="0"/>
        <pt x="327" y="265" on="1"/>
        <pt x="327" y="1267" on="1"/>
        <pt x="327" y="1381" on="0"/>
        <pt x="279" y="1425" on="0"/>
        <pt x="211" y="1438" on="0"/>
        <pt x="154" y="1443" on="1"/>
        <pt x="154" y="1530" on="1"/>
        <pt x="701" y="1530" on="1"/>
        <pt x="701" y="1443" on="1"/>
        <pt x="645" y="1437" on="0"/>
        <pt x="577" y="1426" on="0"/>
        <pt x="559" y="1410" on="1"/>
        <pt x="529" y="1382" on="0"/>
        <pt x="529" y="1267" on="1"/>
        <pt x="529" y="265" on="1"/>
        <pt x="529" y="153" on="0"/>
        <pt x="565" y="109" on="0"/>
        <pt x="618" y="96" on="0"/>
        <pt x="663" y="89" on="1"/>
        <pt x="701" y="83" on="1"/>
        <pt x="701" y="0" on="1"/>
        <pt x="154" y="0" on="1"/>
      </contour>
      <contour>
        <pt x="552" y="1660" on="1"/>
        <pt x="500" y="1642" on="0"/>
        <pt x="365" y="1642" on="0"/>
        <pt x="252" y="1685" on="0"/>
        <pt x="209" y="1725" on="1"/>
        <pt x="116" y="1813" on="0"/>
        <pt x="114" y="1945" on="1"/>
        <pt x="217" y="1945" on="1"/>
        <pt x="231" y="1880" on="0"/>
        <pt x="343" y="1801" on="0"/>
        <pt x="482" y="1801" on="0"/>
        <pt x="550" y="1826" on="0"/>
        <pt x="596" y="1867" on="0"/>
        <pt x="611" y="1893" on="1"/>
        <pt x="640" y="1945" on="1"/>
        <pt x="743" y="1945" on="1"/>
        <pt x="728" y="1723" on="0"/>
      </contour>
    </TTGlyph>
    <TTGlyph name="Icircumflex" xMin="93" yMin="0" xMax="763" yMax="1971">
      <contour>
        <pt x="154" y="82" on="1"/>
        <pt x="156" y="83" on="1"/>
        <pt x="188" y="88" on="1"/>
        <pt x="279" y="100" on="0"/>
        <pt x="298" y="121" on="1"/>
        <pt x="327" y="154" on="0"/>
        <pt x="327" y="265" on="1"/>
        <pt x="327" y="1267" on="1"/>
        <pt x="327" y="1381" on="0"/>
        <pt x="279" y="1425" on="0"/>
        <pt x="211" y="1438" on="0"/>
        <pt x="154" y="1443" on="1"/>
        <pt x="154" y="1530" on="1"/>
        <pt x="701" y="1530" on="1"/>
        <pt x="701" y="1443" on="1"/>
        <pt x="645" y="1437" on="0"/>
        <pt x="577" y="1426" on="0"/>
        <pt x="559" y="1410" on="1"/>
        <pt x="529" y="1382" on="0"/>
        <pt x="529" y="1267" on="1"/>
        <pt x="529" y="265" on="1"/>
        <pt x="529" y="153" on="0"/>
        <pt x="565" y="109" on="0"/>
        <pt x="618" y="96" on="0"/>
        <pt x="663" y="89" on="1"/>
        <pt x="701" y="83" on="1"/>
        <pt x="701" y="0" on="1"/>
        <pt x="154" y="0" on="1"/>
      </contour>
      <contour>
        <pt x="93" y="1690" on="1"/>
        <pt x="335" y="1971" on="1"/>
        <pt x="521" y="1971" on="1"/>
        <pt x="763" y="1690" on="1"/>
        <pt x="699" y="1626" on="1"/>
        <pt x="428" y="1798" on="1"/>
        <pt x="157" y="1626" on="1"/>
      </contour>
    </TTGlyph>
    <TTGlyph name="Idieresis" xMin="12" yMin="0" xMax="844" yMax="1972">
      <contour>
        <pt x="154" y="82" on="1"/>
        <pt x="156" y="83" on="1"/>
        <pt x="188" y="88" on="1"/>
        <pt x="279" y="100" on="0"/>
        <pt x="298" y="121" on="1"/>
        <pt x="327" y="154" on="0"/>
        <pt x="327" y="265" on="1"/>
        <pt x="327" y="1267" on="1"/>
        <pt x="327" y="1381" on="0"/>
        <pt x="279" y="1425" on="0"/>
        <pt x="211" y="1438" on="0"/>
        <pt x="154" y="1443" on="1"/>
        <pt x="154" y="1530" on="1"/>
        <pt x="701" y="1530" on="1"/>
        <pt x="701" y="1443" on="1"/>
        <pt x="645" y="1437" on="0"/>
        <pt x="577" y="1426" on="0"/>
        <pt x="559" y="1410" on="1"/>
        <pt x="529" y="1382" on="0"/>
        <pt x="529" y="1267" on="1"/>
        <pt x="529" y="265" on="1"/>
        <pt x="529" y="153" on="0"/>
        <pt x="565" y="109" on="0"/>
        <pt x="618" y="96" on="0"/>
        <pt x="663" y="89" on="1"/>
        <pt x="701" y="83" on="1"/>
        <pt x="701" y="0" on="1"/>
        <pt x="154" y="0" on="1"/>
      </contour>
      <contour>
        <pt x="482" y="1793" on="1"/>
        <pt x="665" y="1972" on="1"/>
        <pt x="844" y="1793" on="1"/>
        <pt x="665" y="1612" on="1"/>
      </contour>
      <contour>
        <pt x="12" y="1793" on="1"/>
        <pt x="195" y="1972" on="1"/>
        <pt x="374" y="1793" on="1"/>
        <pt x="195" y="1612" on="1"/>
      </contour>
    </TTGlyph>
    <TTGlyph name="Idotaccent" xMin="154" yMin="0" xMax="701" yMax="1972">
      <contour>
        <pt x="154" y="82" on="1"/>
        <pt x="156" y="83" on="1"/>
        <pt x="188" y="88" on="1"/>
        <pt x="279" y="100" on="0"/>
        <pt x="298" y="121" on="1"/>
        <pt x="327" y="154" on="0"/>
        <pt x="327" y="265" on="1"/>
        <pt x="327" y="1267" on="1"/>
        <pt x="327" y="1381" on="0"/>
        <pt x="279" y="1425" on="0"/>
        <pt x="211" y="1438" on="0"/>
        <pt x="154" y="1443" on="1"/>
        <pt x="154" y="1530" on="1"/>
        <pt x="701" y="1530" on="1"/>
        <pt x="701" y="1443" on="1"/>
        <pt x="645" y="1437" on="0"/>
        <pt x="577" y="1426" on="0"/>
        <pt x="559" y="1410" on="1"/>
        <pt x="529" y="1382" on="0"/>
        <pt x="529" y="1267" on="1"/>
        <pt x="529" y="265" on="1"/>
        <pt x="529" y="153" on="0"/>
        <pt x="565" y="109" on="0"/>
        <pt x="618" y="96" on="0"/>
        <pt x="663" y="89" on="1"/>
        <pt x="701" y="83" on="1"/>
        <pt x="701" y="0" on="1"/>
        <pt x="154" y="0" on="1"/>
      </contour>
      <contour>
        <pt x="247" y="1793" on="1"/>
        <pt x="429" y="1972" on="1"/>
        <pt x="607" y="1793" on="1"/>
        <pt x="429" y="1613" on="1"/>
      </contour>
    </TTGlyph>
    <TTGlyph name="Igrave" xMin="144" yMin="0" xMax="710" yMax="1970">
      <contour>
        <pt x="154" y="82" on="1"/>
        <pt x="156" y="83" on="1"/>
        <pt x="188" y="88" on="1"/>
        <pt x="279" y="100" on="0"/>
        <pt x="298" y="121" on="1"/>
        <pt x="327" y="154" on="0"/>
        <pt x="327" y="265" on="1"/>
        <pt x="327" y="1267" on="1"/>
        <pt x="327" y="1381" on="0"/>
        <pt x="279" y="1425" on="0"/>
        <pt x="211" y="1438" on="0"/>
        <pt x="154" y="1443" on="1"/>
        <pt x="154" y="1530" on="1"/>
        <pt x="701" y="1530" on="1"/>
        <pt x="701" y="1443" on="1"/>
        <pt x="645" y="1437" on="0"/>
        <pt x="577" y="1426" on="0"/>
        <pt x="559" y="1410" on="1"/>
        <pt x="529" y="1382" on="0"/>
        <pt x="529" y="1267" on="1"/>
        <pt x="529" y="265" on="1"/>
        <pt x="529" y="153" on="0"/>
        <pt x="565" y="109" on="0"/>
        <pt x="618" y="96" on="0"/>
        <pt x="663" y="89" on="1"/>
        <pt x="701" y="83" on="1"/>
        <pt x="701" y="0" on="1"/>
        <pt x="154" y="0" on="1"/>
      </contour>
      <contour>
        <pt x="144" y="1752" on="1"/>
        <pt x="258" y="1970" on="1"/>
        <pt x="710" y="1692" on="1"/>
        <pt x="678" y="1602" on="1"/>
      </contour>
    </TTGlyph>
    <TTGlyph name="Imacron" xMin="122" yMin="0" xMax="733" yMax="1972">
      <contour>
        <pt x="154" y="82" on="1"/>
        <pt x="156" y="83" on="1"/>
        <pt x="188" y="88" on="1"/>
        <pt x="279" y="100" on="0"/>
        <pt x="298" y="121" on="1"/>
        <pt x="327" y="154" on="0"/>
        <pt x="327" y="265" on="1"/>
        <pt x="327" y="1267" on="1"/>
        <pt x="327" y="1381" on="0"/>
        <pt x="279" y="1425" on="0"/>
        <pt x="211" y="1438" on="0"/>
        <pt x="154" y="1443" on="1"/>
        <pt x="154" y="1530" on="1"/>
        <pt x="701" y="1530" on="1"/>
        <pt x="701" y="1443" on="1"/>
        <pt x="645" y="1437" on="0"/>
        <pt x="577" y="1426" on="0"/>
        <pt x="559" y="1410" on="1"/>
        <pt x="529" y="1382" on="0"/>
        <pt x="529" y="1267" on="1"/>
        <pt x="529" y="265" on="1"/>
        <pt x="529" y="153" on="0"/>
        <pt x="565" y="109" on="0"/>
        <pt x="618" y="96" on="0"/>
        <pt x="663" y="89" on="1"/>
        <pt x="701" y="83" on="1"/>
        <pt x="701" y="0" on="1"/>
        <pt x="154" y="0" on="1"/>
      </contour>
      <contour>
        <pt x="122" y="1943" on="1"/>
        <pt x="733" y="1972" on="1"/>
        <pt x="733" y="1789" on="1"/>
        <pt x="122" y="1812" on="1"/>
      </contour>
    </TTGlyph>
    <TTGlyph name="Iogonek" xMin="109" yMin="-568" xMax="701" yMax="1530">
      <contour>
        <pt x="313" y="-319" on="1"/>
        <pt x="313" y="-444" on="0"/>
        <pt x="450" y="-444" on="1"/>
        <pt x="524" y="-444" on="0"/>
        <pt x="610" y="-402" on="1"/>
        <pt x="644" y="-481" on="1"/>
        <pt x="544" y="-539" on="0"/>
        <pt x="424" y="-561" on="1"/>
        <pt x="386" y="-568" on="0"/>
        <pt x="353" y="-568" on="1"/>
        <pt x="240" y="-568" on="0"/>
        <pt x="109" y="-462" on="0"/>
        <pt x="109" y="-362" on="1"/>
        <pt x="109" y="-166" on="0"/>
        <pt x="372" y="0" on="1"/>
        <pt x="154" y="0" on="1"/>
        <pt x="154" y="82" on="1"/>
        <pt x="156" y="83" on="1"/>
        <pt x="188" y="88" on="1"/>
        <pt x="279" y="100" on="0"/>
        <pt x="298" y="121" on="1"/>
        <pt x="327" y="154" on="0"/>
        <pt x="327" y="265" on="1"/>
        <pt x="327" y="1267" on="1"/>
        <pt x="327" y="1381" on="0"/>
        <pt x="279" y="1425" on="0"/>
        <pt x="211" y="1438" on="0"/>
        <pt x="154" y="1443" on="1"/>
        <pt x="154" y="1530" on="1"/>
        <pt x="701" y="1530" on="1"/>
        <pt x="701" y="1443" on="1"/>
        <pt x="645" y="1437" on="0"/>
        <pt x="577" y="1426" on="0"/>
        <pt x="559" y="1410" on="1"/>
        <pt x="529" y="1382" on="0"/>
        <pt x="529" y="1267" on="1"/>
        <pt x="529" y="265" on="1"/>
        <pt x="529" y="153" on="0"/>
        <pt x="565" y="109" on="0"/>
        <pt x="618" y="96" on="0"/>
        <pt x="663" y="89" on="1"/>
        <pt x="701" y="83" on="1"/>
        <pt x="701" y="0" on="1"/>
        <pt x="527" y="0" on="1"/>
        <pt x="434" y="-62" on="0"/>
        <pt x="372" y="-154" on="1"/>
        <pt x="313" y="-242" on="0"/>
      </contour>
    </TTGlyph>
    <TTGlyph name="Itilde" xMin="76" yMin="0" xMax="780" yMax="1971">
      <contour>
        <pt x="154" y="82" on="1"/>
        <pt x="156" y="83" on="1"/>
        <pt x="188" y="88" on="1"/>
        <pt x="279" y="100" on="0"/>
        <pt x="298" y="121" on="1"/>
        <pt x="327" y="154" on="0"/>
        <pt x="327" y="265" on="1"/>
        <pt x="327" y="1267" on="1"/>
        <pt x="327" y="1381" on="0"/>
        <pt x="279" y="1425" on="0"/>
        <pt x="211" y="1438" on="0"/>
        <pt x="154" y="1443" on="1"/>
        <pt x="154" y="1530" on="1"/>
        <pt x="701" y="1530" on="1"/>
        <pt x="701" y="1443" on="1"/>
        <pt x="645" y="1437" on="0"/>
        <pt x="577" y="1426" on="0"/>
        <pt x="559" y="1410" on="1"/>
        <pt x="529" y="1382" on="0"/>
        <pt x="529" y="1267" on="1"/>
        <pt x="529" y="265" on="1"/>
        <pt x="529" y="153" on="0"/>
        <pt x="565" y="109" on="0"/>
        <pt x="618" y="96" on="0"/>
        <pt x="663" y="89" on="1"/>
        <pt x="701" y="83" on="1"/>
        <pt x="701" y="0" on="1"/>
        <pt x="154" y="0" on="1"/>
      </contour>
      <contour>
        <pt x="264" y="1804" on="1"/>
        <pt x="185" y="1804" on="0"/>
        <pt x="169" y="1716" on="1"/>
        <pt x="76" y="1716" on="1"/>
        <pt x="82" y="1831" on="0"/>
        <pt x="156" y="1903" on="1"/>
        <pt x="226" y="1971" on="0"/>
        <pt x="316" y="1971" on="1"/>
        <pt x="376" y="1971" on="0"/>
        <pt x="474" y="1915" on="1"/>
        <pt x="553" y="1869" on="0"/>
        <pt x="592" y="1869" on="1"/>
        <pt x="671" y="1869" on="0"/>
        <pt x="687" y="1957" on="1"/>
        <pt x="780" y="1957" on="1"/>
        <pt x="774" y="1844" on="0"/>
        <pt x="700" y="1770" on="1"/>
        <pt x="630" y="1702" on="0"/>
        <pt x="540" y="1702" on="1"/>
        <pt x="483" y="1702" on="0"/>
        <pt x="387" y="1757" on="1"/>
        <pt x="324" y="1789" on="1"/>
        <pt x="293" y="1804" on="0"/>
      </contour>
    </TTGlyph>
    <TTGlyph name="J" xMin="-41" yMin="-565" xMax="678" yMax="1530">
      <contour>
        <pt x="283" y="1266" on="1"/>
        <pt x="283" y="1378" on="0"/>
        <pt x="240" y="1410" on="1"/>
        <pt x="218" y="1427" on="0"/>
        <pt x="144" y="1438" on="0"/>
        <pt x="90" y="1443" on="1"/>
        <pt x="90" y="1530" on="1"/>
        <pt x="678" y="1530" on="1"/>
        <pt x="678" y="1443" on="1"/>
        <pt x="618" y="1437" on="0"/>
        <pt x="543" y="1426" on="0"/>
        <pt x="522" y="1410" on="1"/>
        <pt x="486" y="1381" on="0"/>
        <pt x="486" y="1267" on="1"/>
        <pt x="486" y="429" on="1"/>
        <pt x="486" y="147" on="0"/>
        <pt x="430" y="-106" on="0"/>
        <pt x="362" y="-255" on="0"/>
        <pt x="309" y="-320" on="1"/>
        <pt x="210" y="-443" on="0"/>
        <pt x="13" y="-565" on="1"/>
        <pt x="-41" y="-497" on="1"/>
        <pt x="105" y="-355" on="0"/>
        <pt x="206" y="-188" on="0"/>
        <pt x="250" y="-60" on="0"/>
        <pt x="262" y="16" on="1"/>
        <pt x="283" y="139" on="0"/>
        <pt x="283" y="392" on="1"/>
      </contour>
    </TTGlyph>
    <TTGlyph name="Jcircumflex" xMin="-41" yMin="-565" xMax="768" yMax="1971">
      <contour>
        <pt x="283" y="1266" on="1"/>
        <pt x="283" y="1378" on="0"/>
        <pt x="240" y="1410" on="1"/>
        <pt x="218" y="1427" on="0"/>
        <pt x="144" y="1438" on="0"/>
        <pt x="90" y="1443" on="1"/>
        <pt x="90" y="1530" on="1"/>
        <pt x="678" y="1530" on="1"/>
        <pt x="678" y="1443" on="1"/>
        <pt x="618" y="1437" on="0"/>
        <pt x="543" y="1426" on="0"/>
        <pt x="522" y="1410" on="1"/>
        <pt x="486" y="1381" on="0"/>
        <pt x="486" y="1267" on="1"/>
        <pt x="486" y="429" on="1"/>
        <pt x="486" y="147" on="0"/>
        <pt x="430" y="-106" on="0"/>
        <pt x="362" y="-255" on="0"/>
        <pt x="309" y="-320" on="1"/>
        <pt x="210" y="-443" on="0"/>
        <pt x="13" y="-565" on="1"/>
        <pt x="-41" y="-497" on="1"/>
        <pt x="105" y="-355" on="0"/>
        <pt x="206" y="-188" on="0"/>
        <pt x="250" y="-60" on="0"/>
        <pt x="262" y="16" on="1"/>
        <pt x="283" y="139" on="0"/>
        <pt x="283" y="392" on="1"/>
      </contour>
      <contour>
        <pt x="98" y="1690" on="1"/>
        <pt x="340" y="1971" on="1"/>
        <pt x="526" y="1971" on="1"/>
        <pt x="768" y="1690" on="1"/>
        <pt x="704" y="1626" on="1"/>
        <pt x="433" y="1798" on="1"/>
        <pt x="162" y="1626" on="1"/>
      </contour>
    </TTGlyph>
    <TTGlyph name="K" xMin="102" yMin="-301" xMax="1617" yMax="1530">
      <contour>
        <pt x="913" y="1443" on="1"/>
        <pt x="913" y="1530" on="1"/>
        <pt x="1430" y="1530" on="1"/>
        <pt x="1430" y="1443" on="1"/>
        <pt x="1341" y="1432" on="0"/>
        <pt x="1276" y="1370" on="1"/>
        <pt x="1254" y="1349" on="0"/>
        <pt x="1230" y="1321" on="1"/>
        <pt x="824" y="791" on="1"/>
        <pt x="1617" y="-244" on="1"/>
        <pt x="1549" y="-301" on="1"/>
        <pt x="581" y="724" on="1"/>
        <pt x="991" y="1270" on="1"/>
        <pt x="1061" y="1350" on="0"/>
        <pt x="1061" y="1443" on="0"/>
      </contour>
      <contour>
        <pt x="102" y="83" on="1"/>
        <pt x="137" y="88" on="1"/>
        <pt x="228" y="100" on="0"/>
        <pt x="265" y="142" on="0"/>
        <pt x="275" y="207" on="0"/>
        <pt x="275" y="265" on="1"/>
        <pt x="275" y="1267" on="1"/>
        <pt x="275" y="1381" on="0"/>
        <pt x="228" y="1425" on="0"/>
        <pt x="159" y="1438" on="0"/>
        <pt x="102" y="1443" on="1"/>
        <pt x="102" y="1530" on="1"/>
        <pt x="651" y="1530" on="1"/>
        <pt x="651" y="1443" on="1"/>
        <pt x="593" y="1438" on="0"/>
        <pt x="524" y="1427" on="0"/>
        <pt x="488" y="1393" on="0"/>
        <pt x="478" y="1327" on="0"/>
        <pt x="478" y="1267" on="1"/>
        <pt x="478" y="265" on="1"/>
        <pt x="478" y="153" on="0"/>
        <pt x="519" y="109" on="0"/>
        <pt x="578" y="96" on="0"/>
        <pt x="629" y="89" on="1"/>
        <pt x="672" y="83" on="1"/>
        <pt x="672" y="0" on="1"/>
        <pt x="102" y="0" on="1"/>
      </contour>
    </TTGlyph>
    <TTGlyph name="Kcommaaccent" xMin="102" yMin="-588" xMax="1617" yMax="1530">
      <contour>
        <pt x="913" y="1443" on="1"/>
        <pt x="913" y="1530" on="1"/>
        <pt x="1430" y="1530" on="1"/>
        <pt x="1430" y="1443" on="1"/>
        <pt x="1341" y="1432" on="0"/>
        <pt x="1276" y="1370" on="1"/>
        <pt x="1254" y="1349" on="0"/>
        <pt x="1230" y="1321" on="1"/>
        <pt x="824" y="791" on="1"/>
        <pt x="1617" y="-244" on="1"/>
        <pt x="1549" y="-301" on="1"/>
        <pt x="581" y="724" on="1"/>
        <pt x="991" y="1270" on="1"/>
        <pt x="1061" y="1350" on="0"/>
        <pt x="1061" y="1443" on="0"/>
      </contour>
      <contour>
        <pt x="102" y="83" on="1"/>
        <pt x="137" y="88" on="1"/>
        <pt x="228" y="100" on="0"/>
        <pt x="265" y="142" on="0"/>
        <pt x="275" y="207" on="0"/>
        <pt x="275" y="265" on="1"/>
        <pt x="275" y="1267" on="1"/>
        <pt x="275" y="1381" on="0"/>
        <pt x="228" y="1425" on="0"/>
        <pt x="159" y="1438" on="0"/>
        <pt x="102" y="1443" on="1"/>
        <pt x="102" y="1530" on="1"/>
        <pt x="651" y="1530" on="1"/>
        <pt x="651" y="1443" on="1"/>
        <pt x="593" y="1438" on="0"/>
        <pt x="524" y="1427" on="0"/>
        <pt x="488" y="1393" on="0"/>
        <pt x="478" y="1327" on="0"/>
        <pt x="478" y="1267" on="1"/>
        <pt x="478" y="265" on="1"/>
        <pt x="478" y="153" on="0"/>
        <pt x="519" y="109" on="0"/>
        <pt x="578" y="96" on="0"/>
        <pt x="629" y="89" on="1"/>
        <pt x="672" y="83" on="1"/>
        <pt x="672" y="0" on="1"/>
        <pt x="102" y="0" on="1"/>
      </contour>
      <contour>
        <pt x="857" y="-93" on="1"/>
        <pt x="1007" y="-245" on="1"/>
        <pt x="1007" y="-410" on="0"/>
        <pt x="874" y="-521" on="1"/>
        <pt x="826" y="-561" on="0"/>
        <pt x="756" y="-588" on="1"/>
        <pt x="714" y="-514" on="1"/>
        <pt x="749" y="-492" on="0"/>
        <pt x="800" y="-436" on="0"/>
        <pt x="800" y="-372" on="0"/>
        <pt x="790" y="-340" on="0"/>
        <pt x="779" y="-323" on="1"/>
        <pt x="761" y="-295" on="0"/>
        <pt x="708" y="-240" on="1"/>
      </contour>
    </TTGlyph>
    <TTGlyph name="L" xMin="74" yMin="-78" xMax="1335" yMax="1530">
      <contour>
        <pt x="74" y="84" on="1"/>
        <pt x="201" y="96" on="0"/>
        <pt x="249" y="139" on="0"/>
        <pt x="258" y="193" on="0"/>
        <pt x="258" y="235" on="1"/>
        <pt x="258" y="1297" on="1"/>
        <pt x="258" y="1382" on="0"/>
        <pt x="208" y="1423" on="0"/>
        <pt x="135" y="1438" on="0"/>
        <pt x="74" y="1443" on="1"/>
        <pt x="74" y="1530" on="1"/>
        <pt x="657" y="1530" on="1"/>
        <pt x="657" y="1444" on="1"/>
        <pt x="535" y="1438" on="0"/>
        <pt x="478" y="1398" on="0"/>
        <pt x="462" y="1345" on="0"/>
        <pt x="462" y="1301" on="1"/>
        <pt x="462" y="210" on="1"/>
        <pt x="462" y="144" on="0"/>
        <pt x="522" y="125" on="1"/>
        <pt x="569" y="110" on="0"/>
        <pt x="828" y="110" on="0"/>
        <pt x="970" y="116" on="0"/>
        <pt x="1070" y="138" on="0"/>
        <pt x="1136" y="181" on="0"/>
        <pt x="1160" y="217" on="1"/>
        <pt x="1194" y="270" on="0"/>
        <pt x="1242" y="436" on="1"/>
        <pt x="1335" y="436" on="1"/>
        <pt x="1258" y="-78" on="1"/>
        <pt x="1172" y="-78" on="1"/>
        <pt x="1169" y="-41" on="0"/>
        <pt x="1126" y="0" on="0"/>
        <pt x="1091" y="0" on="1"/>
        <pt x="74" y="0" on="1"/>
      </contour>
    </TTGlyph>
    <TTGlyph name="Lacute" xMin="74" yMin="-78" xMax="1335" yMax="1970">
      <contour>
        <pt x="74" y="84" on="1"/>
        <pt x="201" y="96" on="0"/>
        <pt x="249" y="139" on="0"/>
        <pt x="258" y="193" on="0"/>
        <pt x="258" y="235" on="1"/>
        <pt x="258" y="1297" on="1"/>
        <pt x="258" y="1382" on="0"/>
        <pt x="208" y="1423" on="0"/>
        <pt x="135" y="1438" on="0"/>
        <pt x="74" y="1443" on="1"/>
        <pt x="74" y="1530" on="1"/>
        <pt x="657" y="1530" on="1"/>
        <pt x="657" y="1444" on="1"/>
        <pt x="535" y="1438" on="0"/>
        <pt x="478" y="1398" on="0"/>
        <pt x="462" y="1345" on="0"/>
        <pt x="462" y="1301" on="1"/>
        <pt x="462" y="210" on="1"/>
        <pt x="462" y="144" on="0"/>
        <pt x="522" y="125" on="1"/>
        <pt x="569" y="110" on="0"/>
        <pt x="828" y="110" on="0"/>
        <pt x="970" y="116" on="0"/>
        <pt x="1070" y="138" on="0"/>
        <pt x="1136" y="181" on="0"/>
        <pt x="1160" y="217" on="1"/>
        <pt x="1194" y="270" on="0"/>
        <pt x="1242" y="436" on="1"/>
        <pt x="1335" y="436" on="1"/>
        <pt x="1258" y="-78" on="1"/>
        <pt x="1172" y="-78" on="1"/>
        <pt x="1169" y="-41" on="0"/>
        <pt x="1126" y="0" on="0"/>
        <pt x="1091" y="0" on="1"/>
        <pt x="74" y="0" on="1"/>
      </contour>
      <contour>
        <pt x="421" y="1692" on="1"/>
        <pt x="873" y="1970" on="1"/>
        <pt x="987" y="1752" on="1"/>
        <pt x="453" y="1602" on="1"/>
      </contour>
    </TTGlyph>
    <TTGlyph name="Lcaron" xMin="74" yMin="-78" xMax="1335" yMax="1710">
      <contour>
        <pt x="74" y="84" on="1"/>
        <pt x="201" y="96" on="0"/>
        <pt x="249" y="139" on="0"/>
        <pt x="258" y="193" on="0"/>
        <pt x="258" y="235" on="1"/>
        <pt x="258" y="1297" on="1"/>
        <pt x="258" y="1382" on="0"/>
        <pt x="208" y="1423" on="0"/>
        <pt x="135" y="1438" on="0"/>
        <pt x="74" y="1443" on="1"/>
        <pt x="74" y="1530" on="1"/>
        <pt x="657" y="1530" on="1"/>
        <pt x="657" y="1444" on="1"/>
        <pt x="535" y="1438" on="0"/>
        <pt x="478" y="1398" on="0"/>
        <pt x="462" y="1345" on="0"/>
        <pt x="462" y="1301" on="1"/>
        <pt x="462" y="210" on="1"/>
        <pt x="462" y="144" on="0"/>
        <pt x="522" y="125" on="1"/>
        <pt x="569" y="110" on="0"/>
        <pt x="828" y="110" on="0"/>
        <pt x="970" y="116" on="0"/>
        <pt x="1070" y="138" on="0"/>
        <pt x="1136" y="181" on="0"/>
        <pt x="1160" y="217" on="1"/>
        <pt x="1194" y="270" on="0"/>
        <pt x="1242" y="436" on="1"/>
        <pt x="1335" y="436" on="1"/>
        <pt x="1258" y="-78" on="1"/>
        <pt x="1172" y="-78" on="1"/>
        <pt x="1169" y="-41" on="0"/>
        <pt x="1126" y="0" on="0"/>
        <pt x="1091" y="0" on="1"/>
        <pt x="74" y="0" on="1"/>
      </contour>
      <contour>
        <pt x="1029" y="1710" on="1"/>
        <pt x="1207" y="1531" on="1"/>
        <pt x="1216" y="1418" on="0"/>
        <pt x="1150" y="1247" on="1"/>
        <pt x="1076" y="1053" on="0"/>
        <pt x="945" y="905" on="1"/>
        <pt x="868" y="958" on="1"/>
        <pt x="944" y="1066" on="0"/>
        <pt x="970" y="1212" on="1"/>
        <pt x="977" y="1254" on="0"/>
        <pt x="977" y="1290" on="1"/>
        <pt x="977" y="1360" on="0"/>
        <pt x="954" y="1401" on="1"/>
        <pt x="921" y="1458" on="0"/>
        <pt x="848" y="1531" on="1"/>
      </contour>
    </TTGlyph>
    <TTGlyph name="Lcommaaccent" xMin="74" yMin="-588" xMax="1335" yMax="1530">
      <contour>
        <pt x="74" y="84" on="1"/>
        <pt x="201" y="96" on="0"/>
        <pt x="249" y="139" on="0"/>
        <pt x="258" y="193" on="0"/>
        <pt x="258" y="235" on="1"/>
        <pt x="258" y="1297" on="1"/>
        <pt x="258" y="1382" on="0"/>
        <pt x="208" y="1423" on="0"/>
        <pt x="135" y="1438" on="0"/>
        <pt x="74" y="1443" on="1"/>
        <pt x="74" y="1530" on="1"/>
        <pt x="657" y="1530" on="1"/>
        <pt x="657" y="1444" on="1"/>
        <pt x="535" y="1438" on="0"/>
        <pt x="478" y="1398" on="0"/>
        <pt x="462" y="1345" on="0"/>
        <pt x="462" y="1301" on="1"/>
        <pt x="462" y="210" on="1"/>
        <pt x="462" y="144" on="0"/>
        <pt x="522" y="125" on="1"/>
        <pt x="569" y="110" on="0"/>
        <pt x="828" y="110" on="0"/>
        <pt x="970" y="116" on="0"/>
        <pt x="1070" y="138" on="0"/>
        <pt x="1136" y="181" on="0"/>
        <pt x="1160" y="217" on="1"/>
        <pt x="1194" y="270" on="0"/>
        <pt x="1242" y="436" on="1"/>
        <pt x="1335" y="436" on="1"/>
        <pt x="1258" y="-78" on="1"/>
        <pt x="1172" y="-78" on="1"/>
        <pt x="1169" y="-41" on="0"/>
        <pt x="1126" y="0" on="0"/>
        <pt x="1091" y="0" on="1"/>
        <pt x="74" y="0" on="1"/>
      </contour>
      <contour>
        <pt x="702" y="-93" on="1"/>
        <pt x="852" y="-245" on="1"/>
        <pt x="852" y="-410" on="0"/>
        <pt x="719" y="-521" on="1"/>
        <pt x="671" y="-561" on="0"/>
        <pt x="601" y="-588" on="1"/>
        <pt x="559" y="-514" on="1"/>
        <pt x="594" y="-492" on="0"/>
        <pt x="645" y="-436" on="0"/>
        <pt x="645" y="-372" on="0"/>
        <pt x="635" y="-340" on="0"/>
        <pt x="624" y="-323" on="1"/>
        <pt x="606" y="-295" on="0"/>
        <pt x="553" y="-240" on="1"/>
      </contour>
    </TTGlyph>
    <TTGlyph name="Ldot" xMin="74" yMin="-78" xMax="1335" yMax="1530">
      <contour>
        <pt x="1118" y="1198" on="1"/>
        <pt x="1296" y="1019" on="1"/>
        <pt x="1118" y="838" on="1"/>
        <pt x="936" y="1019" on="1"/>
      </contour>
      <contour>
        <pt x="74" y="84" on="1"/>
        <pt x="201" y="96" on="0"/>
        <pt x="249" y="139" on="0"/>
        <pt x="258" y="193" on="0"/>
        <pt x="258" y="235" on="1"/>
        <pt x="258" y="1297" on="1"/>
        <pt x="258" y="1382" on="0"/>
        <pt x="208" y="1423" on="0"/>
        <pt x="135" y="1438" on="0"/>
        <pt x="74" y="1443" on="1"/>
        <pt x="74" y="1530" on="1"/>
        <pt x="657" y="1530" on="1"/>
        <pt x="657" y="1444" on="1"/>
        <pt x="535" y="1438" on="0"/>
        <pt x="478" y="1398" on="0"/>
        <pt x="462" y="1345" on="0"/>
        <pt x="462" y="1301" on="1"/>
        <pt x="462" y="210" on="1"/>
        <pt x="462" y="144" on="0"/>
        <pt x="522" y="125" on="1"/>
        <pt x="569" y="110" on="0"/>
        <pt x="828" y="110" on="0"/>
        <pt x="970" y="116" on="0"/>
        <pt x="1070" y="138" on="0"/>
        <pt x="1136" y="181" on="0"/>
        <pt x="1160" y="217" on="1"/>
        <pt x="1194" y="270" on="0"/>
        <pt x="1242" y="436" on="1"/>
        <pt x="1335" y="436" on="1"/>
        <pt x="1258" y="-78" on="1"/>
        <pt x="1172" y="-78" on="1"/>
        <pt x="1169" y="-41" on="0"/>
        <pt x="1126" y="0" on="0"/>
        <pt x="1091" y="0" on="1"/>
        <pt x="74" y="0" on="1"/>
      </contour>
    </TTGlyph>
    <TTGlyph name="Lslash" xMin="114" yMin="-78" xMax="1392" yMax="1530">
      <contour>
        <pt x="131" y="84" on="1"/>
        <pt x="258" y="96" on="0"/>
        <pt x="306" y="139" on="0"/>
        <pt x="315" y="193" on="0"/>
        <pt x="315" y="235" on="1"/>
        <pt x="315" y="639" on="1"/>
        <pt x="152" y="551" on="1"/>
        <pt x="114" y="670" on="1"/>
        <pt x="315" y="779" on="1"/>
        <pt x="315" y="1297" on="1"/>
        <pt x="315" y="1382" on="0"/>
        <pt x="265" y="1423" on="0"/>
        <pt x="192" y="1438" on="0"/>
        <pt x="131" y="1443" on="1"/>
        <pt x="131" y="1530" on="1"/>
        <pt x="714" y="1530" on="1"/>
        <pt x="714" y="1444" on="1"/>
        <pt x="592" y="1438" on="0"/>
        <pt x="535" y="1398" on="0"/>
        <pt x="519" y="1345" on="0"/>
        <pt x="519" y="1301" on="1"/>
        <pt x="519" y="890" on="1"/>
        <pt x="1073" y="1191" on="1"/>
        <pt x="1110" y="1072" on="1"/>
        <pt x="519" y="750" on="1"/>
        <pt x="519" y="210" on="1"/>
        <pt x="519" y="144" on="0"/>
        <pt x="578" y="125" on="1"/>
        <pt x="626" y="110" on="0"/>
        <pt x="885" y="110" on="0"/>
        <pt x="1027" y="116" on="0"/>
        <pt x="1127" y="138" on="0"/>
        <pt x="1193" y="181" on="0"/>
        <pt x="1216" y="217" on="1"/>
        <pt x="1251" y="270" on="0"/>
        <pt x="1299" y="436" on="1"/>
        <pt x="1392" y="436" on="1"/>
        <pt x="1315" y="-78" on="1"/>
        <pt x="1229" y="-78" on="1"/>
        <pt x="1226" y="-41" on="0"/>
        <pt x="1183" y="0" on="0"/>
        <pt x="1148" y="0" on="1"/>
        <pt x="131" y="0" on="1"/>
      </contour>
    </TTGlyph>
    <TTGlyph name="M" xMin="31" yMin="-50" xMax="2192" yMax="1559">
      <contour>
        <pt x="31" y="83" on="1"/>
        <pt x="121" y="96" on="0"/>
        <pt x="145" y="106" on="1"/>
        <pt x="183" y="124" on="0"/>
        <pt x="192" y="167" on="1"/>
        <pt x="484" y="1559" on="1"/>
        <pt x="558" y="1559" on="1"/>
        <pt x="1111" y="338" on="1"/>
        <pt x="1647" y="1559" on="1"/>
        <pt x="1715" y="1559" on="1"/>
        <pt x="1996" y="266" on="1"/>
        <pt x="2020" y="148" on="0"/>
        <pt x="2056" y="119" on="1"/>
        <pt x="2076" y="102" on="0"/>
        <pt x="2140" y="90" on="0"/>
        <pt x="2192" y="83" on="1"/>
        <pt x="2192" y="0" on="1"/>
        <pt x="1623" y="0" on="1"/>
        <pt x="1623" y="83" on="1"/>
        <pt x="1729" y="100" on="0"/>
        <pt x="1752" y="113" on="1"/>
        <pt x="1789" y="133" on="0"/>
        <pt x="1789" y="189" on="1"/>
        <pt x="1789" y="204" on="0"/>
        <pt x="1786" y="224" on="1"/>
        <pt x="1781" y="266" on="1"/>
        <pt x="1620" y="1104" on="1"/>
        <pt x="1110" y="-50" on="1"/>
        <pt x="1043" y="-50" on="1"/>
        <pt x="523" y="1104" on="1"/>
        <pt x="351" y="203" on="1"/>
        <pt x="348" y="185" on="0"/>
        <pt x="348" y="150" on="0"/>
        <pt x="366" y="120" on="0"/>
        <pt x="388" y="110" on="1"/>
        <pt x="430" y="91" on="0"/>
        <pt x="541" y="83" on="1"/>
        <pt x="541" y="0" on="1"/>
        <pt x="31" y="0" on="1"/>
      </contour>
    </TTGlyph>
    <TTGlyph name="N" xMin="45" yMin="-47" xMax="1641" yMax="1588">
      <contour>
        <pt x="45" y="83" on="1"/>
        <pt x="90" y="89" on="1"/>
        <pt x="179" y="103" on="0"/>
        <pt x="200" y="117" on="1"/>
        <pt x="238" y="142" on="0"/>
        <pt x="238" y="210" on="1"/>
        <pt x="238" y="1558" on="1"/>
        <pt x="323" y="1588" on="1"/>
        <pt x="1307" y="350" on="1"/>
        <pt x="1307" y="1287" on="1"/>
        <pt x="1307" y="1383" on="0"/>
        <pt x="1267" y="1412" on="1"/>
        <pt x="1237" y="1434" on="0"/>
        <pt x="1113" y="1445" on="1"/>
        <pt x="1113" y="1530" on="1"/>
        <pt x="1641" y="1530" on="1"/>
        <pt x="1641" y="1445" on="1"/>
        <pt x="1588" y="1439" on="0"/>
        <pt x="1518" y="1428" on="0"/>
        <pt x="1497" y="1413" on="1"/>
        <pt x="1459" y="1386" on="0"/>
        <pt x="1459" y="1290" on="1"/>
        <pt x="1459" y="-24" on="1"/>
        <pt x="1381" y="-47" on="1"/>
        <pt x="390" y="1200" on="1"/>
        <pt x="390" y="241" on="1"/>
        <pt x="390" y="155" on="0"/>
        <pt x="430" y="125" on="1"/>
        <pt x="459" y="104" on="0"/>
        <pt x="591" y="85" on="0"/>
        <pt x="604" y="83" on="1"/>
        <pt x="604" y="0" on="1"/>
        <pt x="45" y="0" on="1"/>
      </contour>
    </TTGlyph>
    <TTGlyph name="Nacute" xMin="45" yMin="-47" xMax="1641" yMax="1970">
      <contour>
        <pt x="45" y="83" on="1"/>
        <pt x="90" y="89" on="1"/>
        <pt x="179" y="103" on="0"/>
        <pt x="200" y="117" on="1"/>
        <pt x="238" y="142" on="0"/>
        <pt x="238" y="210" on="1"/>
        <pt x="238" y="1558" on="1"/>
        <pt x="323" y="1588" on="1"/>
        <pt x="1307" y="350" on="1"/>
        <pt x="1307" y="1287" on="1"/>
        <pt x="1307" y="1383" on="0"/>
        <pt x="1267" y="1412" on="1"/>
        <pt x="1237" y="1434" on="0"/>
        <pt x="1113" y="1445" on="1"/>
        <pt x="1113" y="1530" on="1"/>
        <pt x="1641" y="1530" on="1"/>
        <pt x="1641" y="1445" on="1"/>
        <pt x="1588" y="1439" on="0"/>
        <pt x="1518" y="1428" on="0"/>
        <pt x="1497" y="1413" on="1"/>
        <pt x="1459" y="1386" on="0"/>
        <pt x="1459" y="1290" on="1"/>
        <pt x="1459" y="-24" on="1"/>
        <pt x="1381" y="-47" on="1"/>
        <pt x="390" y="1200" on="1"/>
        <pt x="390" y="241" on="1"/>
        <pt x="390" y="155" on="0"/>
        <pt x="430" y="125" on="1"/>
        <pt x="459" y="104" on="0"/>
        <pt x="591" y="85" on="0"/>
        <pt x="604" y="83" on="1"/>
        <pt x="604" y="0" on="1"/>
        <pt x="45" y="0" on="1"/>
      </contour>
      <contour>
        <pt x="560" y="1692" on="1"/>
        <pt x="1012" y="1970" on="1"/>
        <pt x="1126" y="1752" on="1"/>
        <pt x="592" y="1602" on="1"/>
      </contour>
    </TTGlyph>
    <TTGlyph name="Ncaron" xMin="45" yMin="-47" xMax="1641" yMax="1972">
      <contour>
        <pt x="45" y="83" on="1"/>
        <pt x="90" y="89" on="1"/>
        <pt x="179" y="103" on="0"/>
        <pt x="200" y="117" on="1"/>
        <pt x="238" y="142" on="0"/>
        <pt x="238" y="210" on="1"/>
        <pt x="238" y="1558" on="1"/>
        <pt x="323" y="1588" on="1"/>
        <pt x="1307" y="350" on="1"/>
        <pt x="1307" y="1287" on="1"/>
        <pt x="1307" y="1383" on="0"/>
        <pt x="1267" y="1412" on="1"/>
        <pt x="1237" y="1434" on="0"/>
        <pt x="1113" y="1445" on="1"/>
        <pt x="1113" y="1530" on="1"/>
        <pt x="1641" y="1530" on="1"/>
        <pt x="1641" y="1445" on="1"/>
        <pt x="1588" y="1439" on="0"/>
        <pt x="1518" y="1428" on="0"/>
        <pt x="1497" y="1413" on="1"/>
        <pt x="1459" y="1386" on="0"/>
        <pt x="1459" y="1290" on="1"/>
        <pt x="1459" y="-24" on="1"/>
        <pt x="1381" y="-47" on="1"/>
        <pt x="390" y="1200" on="1"/>
        <pt x="390" y="241" on="1"/>
        <pt x="390" y="155" on="0"/>
        <pt x="430" y="125" on="1"/>
        <pt x="459" y="104" on="0"/>
        <pt x="591" y="85" on="0"/>
        <pt x="604" y="83" on="1"/>
        <pt x="604" y="0" on="1"/>
        <pt x="45" y="0" on="1"/>
      </contour>
      <contour>
        <pt x="507" y="1908" on="1"/>
        <pt x="571" y="1972" on="1"/>
        <pt x="853" y="1800" on="1"/>
        <pt x="853" y="1800" on="0"/>
        <pt x="1116" y="1972" on="1"/>
        <pt x="1180" y="1908" on="1"/>
        <pt x="946" y="1627" on="1"/>
        <pt x="762" y="1627" on="1"/>
      </contour>
    </TTGlyph>
    <TTGlyph name="Ncommaaccent" xMin="45" yMin="-588" xMax="1641" yMax="1588">
      <contour>
        <pt x="45" y="83" on="1"/>
        <pt x="90" y="89" on="1"/>
        <pt x="179" y="103" on="0"/>
        <pt x="200" y="117" on="1"/>
        <pt x="238" y="142" on="0"/>
        <pt x="238" y="210" on="1"/>
        <pt x="238" y="1558" on="1"/>
        <pt x="323" y="1588" on="1"/>
        <pt x="1307" y="350" on="1"/>
        <pt x="1307" y="1287" on="1"/>
        <pt x="1307" y="1383" on="0"/>
        <pt x="1267" y="1412" on="1"/>
        <pt x="1237" y="1434" on="0"/>
        <pt x="1113" y="1445" on="1"/>
        <pt x="1113" y="1530" on="1"/>
        <pt x="1641" y="1530" on="1"/>
        <pt x="1641" y="1445" on="1"/>
        <pt x="1588" y="1439" on="0"/>
        <pt x="1518" y="1428" on="0"/>
        <pt x="1497" y="1413" on="1"/>
        <pt x="1459" y="1386" on="0"/>
        <pt x="1459" y="1290" on="1"/>
        <pt x="1459" y="-24" on="1"/>
        <pt x="1381" y="-47" on="1"/>
        <pt x="390" y="1200" on="1"/>
        <pt x="390" y="241" on="1"/>
        <pt x="390" y="155" on="0"/>
        <pt x="430" y="125" on="1"/>
        <pt x="459" y="104" on="0"/>
        <pt x="591" y="85" on="0"/>
        <pt x="604" y="83" on="1"/>
        <pt x="604" y="0" on="1"/>
        <pt x="45" y="0" on="1"/>
      </contour>
      <contour>
        <pt x="841" y="-93" on="1"/>
        <pt x="991" y="-245" on="1"/>
        <pt x="991" y="-410" on="0"/>
        <pt x="858" y="-521" on="1"/>
        <pt x="810" y="-561" on="0"/>
        <pt x="740" y="-588" on="1"/>
        <pt x="698" y="-514" on="1"/>
        <pt x="733" y="-492" on="0"/>
        <pt x="784" y="-436" on="0"/>
        <pt x="784" y="-372" on="0"/>
        <pt x="774" y="-340" on="0"/>
        <pt x="763" y="-323" on="1"/>
        <pt x="745" y="-295" on="0"/>
        <pt x="692" y="-240" on="1"/>
      </contour>
    </TTGlyph>
    <TTGlyph name="Ntilde" xMin="45" yMin="-47" xMax="1641" yMax="1971">
      <contour>
        <pt x="45" y="83" on="1"/>
        <pt x="90" y="89" on="1"/>
        <pt x="179" y="103" on="0"/>
        <pt x="200" y="117" on="1"/>
        <pt x="238" y="142" on="0"/>
        <pt x="238" y="210" on="1"/>
        <pt x="238" y="1558" on="1"/>
        <pt x="323" y="1588" on="1"/>
        <pt x="1307" y="350" on="1"/>
        <pt x="1307" y="1287" on="1"/>
        <pt x="1307" y="1383" on="0"/>
        <pt x="1267" y="1412" on="1"/>
        <pt x="1237" y="1434" on="0"/>
        <pt x="1113" y="1445" on="1"/>
        <pt x="1113" y="1530" on="1"/>
        <pt x="1641" y="1530" on="1"/>
        <pt x="1641" y="1445" on="1"/>
        <pt x="1588" y="1439" on="0"/>
        <pt x="1518" y="1428" on="0"/>
        <pt x="1497" y="1413" on="1"/>
        <pt x="1459" y="1386" on="0"/>
        <pt x="1459" y="1290" on="1"/>
        <pt x="1459" y="-24" on="1"/>
        <pt x="1381" y="-47" on="1"/>
        <pt x="390" y="1200" on="1"/>
        <pt x="390" y="241" on="1"/>
        <pt x="390" y="155" on="0"/>
        <pt x="430" y="125" on="1"/>
        <pt x="459" y="104" on="0"/>
        <pt x="591" y="85" on="0"/>
        <pt x="604" y="83" on="1"/>
        <pt x="604" y="0" on="1"/>
        <pt x="45" y="0" on="1"/>
      </contour>
      <contour>
        <pt x="679" y="1804" on="1"/>
        <pt x="600" y="1804" on="0"/>
        <pt x="584" y="1716" on="1"/>
        <pt x="491" y="1716" on="1"/>
        <pt x="497" y="1831" on="0"/>
        <pt x="571" y="1903" on="1"/>
        <pt x="641" y="1971" on="0"/>
        <pt x="731" y="1971" on="1"/>
        <pt x="791" y="1971" on="0"/>
        <pt x="889" y="1915" on="1"/>
        <pt x="968" y="1869" on="0"/>
        <pt x="1007" y="1869" on="1"/>
        <pt x="1086" y="1869" on="0"/>
        <pt x="1102" y="1957" on="1"/>
        <pt x="1195" y="1957" on="1"/>
        <pt x="1189" y="1844" on="0"/>
        <pt x="1115" y="1770" on="1"/>
        <pt x="1045" y="1702" on="0"/>
        <pt x="955" y="1702" on="1"/>
        <pt x="898" y="1702" on="0"/>
        <pt x="802" y="1757" on="1"/>
        <pt x="739" y="1789" on="1"/>
        <pt x="708" y="1804" on="0"/>
      </contour>
    </TTGlyph>
    <TTGlyph name="O" xMin="119" yMin="-20" xMax="1584" yMax="1551">
      <contour>
        <pt x="119" y="756" on="1"/>
        <pt x="119" y="854" on="0"/>
        <pt x="159" y="1048" on="0"/>
        <pt x="240" y="1225" on="0"/>
        <pt x="362" y="1376" on="0"/>
        <pt x="443" y="1432" on="1"/>
        <pt x="615" y="1551" on="0"/>
        <pt x="851" y="1551" on="1"/>
        <pt x="1200" y="1551" on="0"/>
        <pt x="1402" y="1300" on="1"/>
        <pt x="1584" y="1075" on="0"/>
        <pt x="1584" y="756" on="1"/>
        <pt x="1584" y="434" on="0"/>
        <pt x="1402" y="218" on="1"/>
        <pt x="1202" y="-20" on="0"/>
        <pt x="851" y="-20" on="1"/>
        <pt x="498" y="-20" on="0"/>
        <pt x="300" y="220" on="1"/>
        <pt x="119" y="438" on="0"/>
      </contour>
      <contour>
        <pt x="358" y="674" on="0"/>
        <pt x="376" y="510" on="0"/>
        <pt x="419" y="360" on="0"/>
        <pt x="491" y="230" on="0"/>
        <pt x="546" y="182" on="1"/>
        <pt x="664" y="81" on="0"/>
        <pt x="853" y="81" on="1"/>
        <pt x="1205" y="81" on="0"/>
        <pt x="1309" y="434" on="1"/>
        <pt x="1349" y="570" on="0"/>
        <pt x="1349" y="756" on="1"/>
        <pt x="1349" y="1296" on="0"/>
        <pt x="1028" y="1415" on="1"/>
        <pt x="953" y="1443" on="0"/>
        <pt x="853" y="1443" on="1"/>
        <pt x="500" y="1443" on="0"/>
        <pt x="398" y="1078" on="1"/>
        <pt x="358" y="937" on="0"/>
      </contour>
    </TTGlyph>
    <TTGlyph name="OE" xMin="112" yMin="-26" xMax="2268" yMax="1563">
      <contour>
        <pt x="2004" y="1099" on="1"/>
        <pt x="2025" y="1212" on="0"/>
        <pt x="2025" y="1317" on="0"/>
        <pt x="2000" y="1374" on="0"/>
        <pt x="1972" y="1390" on="1"/>
        <pt x="1922" y="1418" on="0"/>
        <pt x="1781" y="1418" on="1"/>
        <pt x="1369" y="1418" on="1"/>
        <pt x="1369" y="817" on="1"/>
        <pt x="1935" y="817" on="1"/>
        <pt x="1908" y="704" on="1"/>
        <pt x="1369" y="704" on="1"/>
        <pt x="1369" y="112" on="1"/>
        <pt x="1677" y="112" on="1"/>
        <pt x="1832" y="112" on="0"/>
        <pt x="1953" y="141" on="0"/>
        <pt x="2027" y="182" on="0"/>
        <pt x="2058" y="217" on="1"/>
        <pt x="2118" y="283" on="0"/>
        <pt x="2174" y="425" on="1"/>
        <pt x="2268" y="425" on="1"/>
        <pt x="2173" y="0" on="1"/>
        <pt x="1255" y="0" on="1"/>
        <pt x="1196" y="0" on="0"/>
        <pt x="1130" y="-6" on="1"/>
        <pt x="1004" y="-16" on="1"/>
        <pt x="882" y="-26" on="0"/>
        <pt x="719" y="-26" on="0"/>
        <pt x="512" y="35" on="0"/>
        <pt x="350" y="144" on="0"/>
        <pt x="229" y="295" on="0"/>
        <pt x="190" y="386" on="1"/>
        <pt x="112" y="566" on="0"/>
        <pt x="112" y="950" on="0"/>
        <pt x="200" y="1232" on="0"/>
        <pt x="291" y="1337" on="1"/>
        <pt x="487" y="1563" on="0"/>
        <pt x="845" y="1563" on="1"/>
        <pt x="918" y="1563" on="0"/>
        <pt x="1024" y="1552" on="1"/>
        <pt x="1221" y="1530" on="0"/>
        <pt x="1259" y="1530" on="1"/>
        <pt x="2205" y="1530" on="1"/>
        <pt x="2100" y="1099" on="1"/>
      </contour>
      <contour>
        <pt x="1166" y="1379" on="1"/>
        <pt x="1038" y="1455" on="0"/>
        <pt x="847" y="1455" on="1"/>
        <pt x="408" y="1455" on="0"/>
        <pt x="358" y="961" on="1"/>
        <pt x="350" y="877" on="0"/>
        <pt x="350" y="699" on="0"/>
        <pt x="367" y="525" on="0"/>
        <pt x="408" y="368" on="0"/>
        <pt x="480" y="236" on="0"/>
        <pt x="536" y="188" on="1"/>
        <pt x="653" y="85" on="0"/>
        <pt x="1042" y="85" on="0"/>
        <pt x="1166" y="166" on="1"/>
      </contour>
    </TTGlyph>
    <TTGlyph name="Oacute" xMin="119" yMin="-20" xMax="1584" yMax="1970">
      <contour>
        <pt x="119" y="756" on="1"/>
        <pt x="119" y="854" on="0"/>
        <pt x="159" y="1048" on="0"/>
        <pt x="240" y="1225" on="0"/>
        <pt x="362" y="1376" on="0"/>
        <pt x="443" y="1432" on="1"/>
        <pt x="615" y="1551" on="0"/>
        <pt x="851" y="1551" on="1"/>
        <pt x="1200" y="1551" on="0"/>
        <pt x="1402" y="1300" on="1"/>
        <pt x="1584" y="1075" on="0"/>
        <pt x="1584" y="756" on="1"/>
        <pt x="1584" y="434" on="0"/>
        <pt x="1402" y="218" on="1"/>
        <pt x="1202" y="-20" on="0"/>
        <pt x="851" y="-20" on="1"/>
        <pt x="498" y="-20" on="0"/>
        <pt x="300" y="220" on="1"/>
        <pt x="119" y="438" on="0"/>
      </contour>
      <contour>
        <pt x="358" y="674" on="0"/>
        <pt x="376" y="510" on="0"/>
        <pt x="419" y="360" on="0"/>
        <pt x="491" y="230" on="0"/>
        <pt x="546" y="182" on="1"/>
        <pt x="664" y="81" on="0"/>
        <pt x="853" y="81" on="1"/>
        <pt x="1205" y="81" on="0"/>
        <pt x="1309" y="434" on="1"/>
        <pt x="1349" y="570" on="0"/>
        <pt x="1349" y="756" on="1"/>
        <pt x="1349" y="1296" on="0"/>
        <pt x="1028" y="1415" on="1"/>
        <pt x="953" y="1443" on="0"/>
        <pt x="853" y="1443" on="1"/>
        <pt x="500" y="1443" on="0"/>
        <pt x="398" y="1078" on="1"/>
        <pt x="358" y="937" on="0"/>
      </contour>
      <contour>
        <pt x="568" y="1692" on="1"/>
        <pt x="1020" y="1970" on="1"/>
        <pt x="1134" y="1752" on="1"/>
        <pt x="600" y="1602" on="1"/>
      </contour>
    </TTGlyph>
    <TTGlyph name="Obreve" xMin="119" yMin="-20" xMax="1584" yMax="1945">
      <contour>
        <pt x="119" y="756" on="1"/>
        <pt x="119" y="854" on="0"/>
        <pt x="159" y="1048" on="0"/>
        <pt x="240" y="1225" on="0"/>
        <pt x="362" y="1376" on="0"/>
        <pt x="443" y="1432" on="1"/>
        <pt x="615" y="1551" on="0"/>
        <pt x="851" y="1551" on="1"/>
        <pt x="1200" y="1551" on="0"/>
        <pt x="1402" y="1300" on="1"/>
        <pt x="1584" y="1075" on="0"/>
        <pt x="1584" y="756" on="1"/>
        <pt x="1584" y="434" on="0"/>
        <pt x="1402" y="218" on="1"/>
        <pt x="1202" y="-20" on="0"/>
        <pt x="851" y="-20" on="1"/>
        <pt x="498" y="-20" on="0"/>
        <pt x="300" y="220" on="1"/>
        <pt x="119" y="438" on="0"/>
      </contour>
      <contour>
        <pt x="358" y="674" on="0"/>
        <pt x="376" y="510" on="0"/>
        <pt x="419" y="360" on="0"/>
        <pt x="491" y="230" on="0"/>
        <pt x="546" y="182" on="1"/>
        <pt x="664" y="81" on="0"/>
        <pt x="853" y="81" on="1"/>
        <pt x="1205" y="81" on="0"/>
        <pt x="1309" y="434" on="1"/>
        <pt x="1349" y="570" on="0"/>
        <pt x="1349" y="756" on="1"/>
        <pt x="1349" y="1296" on="0"/>
        <pt x="1028" y="1415" on="1"/>
        <pt x="953" y="1443" on="0"/>
        <pt x="853" y="1443" on="1"/>
        <pt x="500" y="1443" on="0"/>
        <pt x="398" y="1078" on="1"/>
        <pt x="358" y="937" on="0"/>
      </contour>
      <contour>
        <pt x="975" y="1660" on="1"/>
        <pt x="923" y="1642" on="0"/>
        <pt x="788" y="1642" on="0"/>
        <pt x="675" y="1685" on="0"/>
        <pt x="632" y="1725" on="1"/>
        <pt x="539" y="1813" on="0"/>
        <pt x="537" y="1945" on="1"/>
        <pt x="640" y="1945" on="1"/>
        <pt x="654" y="1880" on="0"/>
        <pt x="766" y="1801" on="0"/>
        <pt x="905" y="1801" on="0"/>
        <pt x="973" y="1826" on="0"/>
        <pt x="1019" y="1867" on="0"/>
        <pt x="1034" y="1893" on="1"/>
        <pt x="1063" y="1945" on="1"/>
        <pt x="1166" y="1945" on="1"/>
        <pt x="1151" y="1723" on="0"/>
      </contour>
    </TTGlyph>
    <TTGlyph name="Ocircumflex" xMin="119" yMin="-20" xMax="1584" yMax="1971">
      <contour>
        <pt x="119" y="756" on="1"/>
        <pt x="119" y="854" on="0"/>
        <pt x="159" y="1048" on="0"/>
        <pt x="240" y="1225" on="0"/>
        <pt x="362" y="1376" on="0"/>
        <pt x="443" y="1432" on="1"/>
        <pt x="615" y="1551" on="0"/>
        <pt x="851" y="1551" on="1"/>
        <pt x="1200" y="1551" on="0"/>
        <pt x="1402" y="1300" on="1"/>
        <pt x="1584" y="1075" on="0"/>
        <pt x="1584" y="756" on="1"/>
        <pt x="1584" y="434" on="0"/>
        <pt x="1402" y="218" on="1"/>
        <pt x="1202" y="-20" on="0"/>
        <pt x="851" y="-20" on="1"/>
        <pt x="498" y="-20" on="0"/>
        <pt x="300" y="220" on="1"/>
        <pt x="119" y="438" on="0"/>
      </contour>
      <contour>
        <pt x="358" y="674" on="0"/>
        <pt x="376" y="510" on="0"/>
        <pt x="419" y="360" on="0"/>
        <pt x="491" y="230" on="0"/>
        <pt x="546" y="182" on="1"/>
        <pt x="664" y="81" on="0"/>
        <pt x="853" y="81" on="1"/>
        <pt x="1205" y="81" on="0"/>
        <pt x="1309" y="434" on="1"/>
        <pt x="1349" y="570" on="0"/>
        <pt x="1349" y="756" on="1"/>
        <pt x="1349" y="1296" on="0"/>
        <pt x="1028" y="1415" on="1"/>
        <pt x="953" y="1443" on="0"/>
        <pt x="853" y="1443" on="1"/>
        <pt x="500" y="1443" on="0"/>
        <pt x="398" y="1078" on="1"/>
        <pt x="358" y="937" on="0"/>
      </contour>
      <contour>
        <pt x="516" y="1690" on="1"/>
        <pt x="758" y="1971" on="1"/>
        <pt x="944" y="1971" on="1"/>
        <pt x="1186" y="1690" on="1"/>
        <pt x="1122" y="1626" on="1"/>
        <pt x="851" y="1798" on="1"/>
        <pt x="580" y="1626" on="1"/>
      </contour>
    </TTGlyph>
    <TTGlyph name="Odieresis" xMin="119" yMin="-20" xMax="1584" yMax="1972">
      <contour>
        <pt x="119" y="756" on="1"/>
        <pt x="119" y="854" on="0"/>
        <pt x="159" y="1048" on="0"/>
        <pt x="240" y="1225" on="0"/>
        <pt x="362" y="1376" on="0"/>
        <pt x="443" y="1432" on="1"/>
        <pt x="615" y="1551" on="0"/>
        <pt x="851" y="1551" on="1"/>
        <pt x="1200" y="1551" on="0"/>
        <pt x="1402" y="1300" on="1"/>
        <pt x="1584" y="1075" on="0"/>
        <pt x="1584" y="756" on="1"/>
        <pt x="1584" y="434" on="0"/>
        <pt x="1402" y="218" on="1"/>
        <pt x="1202" y="-20" on="0"/>
        <pt x="851" y="-20" on="1"/>
        <pt x="498" y="-20" on="0"/>
        <pt x="300" y="220" on="1"/>
        <pt x="119" y="438" on="0"/>
      </contour>
      <contour>
        <pt x="358" y="674" on="0"/>
        <pt x="376" y="510" on="0"/>
        <pt x="419" y="360" on="0"/>
        <pt x="491" y="230" on="0"/>
        <pt x="546" y="182" on="1"/>
        <pt x="664" y="81" on="0"/>
        <pt x="853" y="81" on="1"/>
        <pt x="1205" y="81" on="0"/>
        <pt x="1309" y="434" on="1"/>
        <pt x="1349" y="570" on="0"/>
        <pt x="1349" y="756" on="1"/>
        <pt x="1349" y="1296" on="0"/>
        <pt x="1028" y="1415" on="1"/>
        <pt x="953" y="1443" on="0"/>
        <pt x="853" y="1443" on="1"/>
        <pt x="500" y="1443" on="0"/>
        <pt x="398" y="1078" on="1"/>
        <pt x="358" y="937" on="0"/>
      </contour>
      <contour>
        <pt x="905" y="1793" on="1"/>
        <pt x="1088" y="1972" on="1"/>
        <pt x="1267" y="1793" on="1"/>
        <pt x="1088" y="1612" on="1"/>
      </contour>
      <contour>
        <pt x="435" y="1793" on="1"/>
        <pt x="618" y="1972" on="1"/>
        <pt x="797" y="1793" on="1"/>
        <pt x="618" y="1612" on="1"/>
      </contour>
    </TTGlyph>
    <TTGlyph name="Ograve" xMin="119" yMin="-20" xMax="1584" yMax="1970">
      <contour>
        <pt x="119" y="756" on="1"/>
        <pt x="119" y="854" on="0"/>
        <pt x="159" y="1048" on="0"/>
        <pt x="240" y="1225" on="0"/>
        <pt x="362" y="1376" on="0"/>
        <pt x="443" y="1432" on="1"/>
        <pt x="615" y="1551" on="0"/>
        <pt x="851" y="1551" on="1"/>
        <pt x="1200" y="1551" on="0"/>
        <pt x="1402" y="1300" on="1"/>
        <pt x="1584" y="1075" on="0"/>
        <pt x="1584" y="756" on="1"/>
        <pt x="1584" y="434" on="0"/>
        <pt x="1402" y="218" on="1"/>
        <pt x="1202" y="-20" on="0"/>
        <pt x="851" y="-20" on="1"/>
        <pt x="498" y="-20" on="0"/>
        <pt x="300" y="220" on="1"/>
        <pt x="119" y="438" on="0"/>
      </contour>
      <contour>
        <pt x="358" y="674" on="0"/>
        <pt x="376" y="510" on="0"/>
        <pt x="419" y="360" on="0"/>
        <pt x="491" y="230" on="0"/>
        <pt x="546" y="182" on="1"/>
        <pt x="664" y="81" on="0"/>
        <pt x="853" y="81" on="1"/>
        <pt x="1205" y="81" on="0"/>
        <pt x="1309" y="434" on="1"/>
        <pt x="1349" y="570" on="0"/>
        <pt x="1349" y="756" on="1"/>
        <pt x="1349" y="1296" on="0"/>
        <pt x="1028" y="1415" on="1"/>
        <pt x="953" y="1443" on="0"/>
        <pt x="853" y="1443" on="1"/>
        <pt x="500" y="1443" on="0"/>
        <pt x="398" y="1078" on="1"/>
        <pt x="358" y="937" on="0"/>
      </contour>
      <contour>
        <pt x="568" y="1752" on="1"/>
        <pt x="682" y="1970" on="1"/>
        <pt x="1134" y="1692" on="1"/>
        <pt x="1102" y="1602" on="1"/>
      </contour>
    </TTGlyph>
    <TTGlyph name="Ohungarumlaut" xMin="119" yMin="-20" xMax="1584" yMax="1970">
      <contour>
        <pt x="119" y="756" on="1"/>
        <pt x="119" y="854" on="0"/>
        <pt x="159" y="1048" on="0"/>
        <pt x="240" y="1225" on="0"/>
        <pt x="362" y="1376" on="0"/>
        <pt x="443" y="1432" on="1"/>
        <pt x="615" y="1551" on="0"/>
        <pt x="851" y="1551" on="1"/>
        <pt x="1200" y="1551" on="0"/>
        <pt x="1402" y="1300" on="1"/>
        <pt x="1584" y="1075" on="0"/>
        <pt x="1584" y="756" on="1"/>
        <pt x="1584" y="434" on="0"/>
        <pt x="1402" y="218" on="1"/>
        <pt x="1202" y="-20" on="0"/>
        <pt x="851" y="-20" on="1"/>
        <pt x="498" y="-20" on="0"/>
        <pt x="300" y="220" on="1"/>
        <pt x="119" y="438" on="0"/>
      </contour>
      <contour>
        <pt x="358" y="674" on="0"/>
        <pt x="376" y="510" on="0"/>
        <pt x="419" y="360" on="0"/>
        <pt x="491" y="230" on="0"/>
        <pt x="546" y="182" on="1"/>
        <pt x="664" y="81" on="0"/>
        <pt x="853" y="81" on="1"/>
        <pt x="1205" y="81" on="0"/>
        <pt x="1309" y="434" on="1"/>
        <pt x="1349" y="570" on="0"/>
        <pt x="1349" y="756" on="1"/>
        <pt x="1349" y="1296" on="0"/>
        <pt x="1028" y="1415" on="1"/>
        <pt x="953" y="1443" on="0"/>
        <pt x="853" y="1443" on="1"/>
        <pt x="500" y="1443" on="0"/>
        <pt x="398" y="1078" on="1"/>
        <pt x="358" y="937" on="0"/>
      </contour>
      <contour>
        <pt x="844" y="1692" on="1"/>
        <pt x="1146" y="1970" on="1"/>
        <pt x="1252" y="1836" on="1"/>
        <pt x="899" y="1628" on="1"/>
      </contour>
      <contour>
        <pt x="450" y="1692" on="1"/>
        <pt x="752" y="1970" on="1"/>
        <pt x="858" y="1836" on="1"/>
        <pt x="505" y="1628" on="1"/>
      </contour>
    </TTGlyph>
    <TTGlyph name="Omacron" xMin="119" yMin="-20" xMax="1584" yMax="1972">
      <contour>
        <pt x="119" y="756" on="1"/>
        <pt x="119" y="854" on="0"/>
        <pt x="159" y="1048" on="0"/>
        <pt x="240" y="1225" on="0"/>
        <pt x="362" y="1376" on="0"/>
        <pt x="443" y="1432" on="1"/>
        <pt x="615" y="1551" on="0"/>
        <pt x="851" y="1551" on="1"/>
        <pt x="1200" y="1551" on="0"/>
        <pt x="1402" y="1300" on="1"/>
        <pt x="1584" y="1075" on="0"/>
        <pt x="1584" y="756" on="1"/>
        <pt x="1584" y="434" on="0"/>
        <pt x="1402" y="218" on="1"/>
        <pt x="1202" y="-20" on="0"/>
        <pt x="851" y="-20" on="1"/>
        <pt x="498" y="-20" on="0"/>
        <pt x="300" y="220" on="1"/>
        <pt x="119" y="438" on="0"/>
      </contour>
      <contour>
        <pt x="358" y="674" on="0"/>
        <pt x="376" y="510" on="0"/>
        <pt x="419" y="360" on="0"/>
        <pt x="491" y="230" on="0"/>
        <pt x="546" y="182" on="1"/>
        <pt x="664" y="81" on="0"/>
        <pt x="853" y="81" on="1"/>
        <pt x="1205" y="81" on="0"/>
        <pt x="1309" y="434" on="1"/>
        <pt x="1349" y="570" on="0"/>
        <pt x="1349" y="756" on="1"/>
        <pt x="1349" y="1296" on="0"/>
        <pt x="1028" y="1415" on="1"/>
        <pt x="953" y="1443" on="0"/>
        <pt x="853" y="1443" on="1"/>
        <pt x="500" y="1443" on="0"/>
        <pt x="398" y="1078" on="1"/>
        <pt x="358" y="937" on="0"/>
      </contour>
      <contour>
        <pt x="546" y="1943" on="1"/>
        <pt x="1157" y="1972" on="1"/>
        <pt x="1157" y="1789" on="1"/>
        <pt x="546" y="1812" on="1"/>
      </contour>
    </TTGlyph>
    <TTGlyph name="Omega" xMin="68" yMin="-1" xMax="1636" yMax="1551">
      <contour>
        <pt x="378" y="897" on="1"/>
        <pt x="378" y="424" on="0"/>
        <pt x="730" y="254" on="1"/>
        <pt x="730" y="-1" on="1"/>
        <pt x="179" y="-1" on="1"/>
        <pt x="68" y="380" on="1"/>
        <pt x="169" y="380" on="1"/>
        <pt x="212" y="271" on="0"/>
        <pt x="241" y="238" on="1"/>
        <pt x="295" y="174" on="0"/>
        <pt x="377" y="174" on="1"/>
        <pt x="630" y="174" on="1"/>
        <pt x="630" y="195" on="1"/>
        <pt x="402" y="306" on="0"/>
        <pt x="274" y="486" on="1"/>
        <pt x="142" y="670" on="0"/>
        <pt x="142" y="896" on="1"/>
        <pt x="142" y="1153" on="0"/>
        <pt x="296" y="1334" on="1"/>
        <pt x="481" y="1551" on="0"/>
        <pt x="855" y="1551" on="1"/>
        <pt x="1229" y="1551" on="0"/>
        <pt x="1414" y="1334" on="1"/>
        <pt x="1569" y="1152" on="0"/>
        <pt x="1569" y="899" on="1"/>
        <pt x="1569" y="554" on="0"/>
        <pt x="1280" y="322" on="1"/>
        <pt x="1189" y="249" on="0"/>
        <pt x="1075" y="194" on="1"/>
        <pt x="1075" y="174" on="1"/>
        <pt x="1327" y="174" on="1"/>
        <pt x="1441" y="174" on="0"/>
        <pt x="1499" y="297" on="1"/>
        <pt x="1517" y="335" on="0"/>
        <pt x="1535" y="380" on="1"/>
        <pt x="1636" y="380" on="1"/>
        <pt x="1525" y="-1" on="1"/>
        <pt x="974" y="-1" on="1"/>
        <pt x="974" y="252" on="1"/>
        <pt x="1338" y="419" on="0"/>
        <pt x="1338" y="898" on="1"/>
        <pt x="1338" y="1041" on="0"/>
        <pt x="1295" y="1199" on="0"/>
        <pt x="1231" y="1309" on="0"/>
        <pt x="1178" y="1350" on="1"/>
        <pt x="1061" y="1441" on="0"/>
        <pt x="857" y="1441" on="1"/>
        <pt x="417" y="1441" on="0"/>
        <pt x="383" y="1016" on="1"/>
        <pt x="378" y="953" on="0"/>
      </contour>
    </TTGlyph>
    <TTGlyph name="Oslash" xMin="119" yMin="-91" xMax="1584" yMax="1621">
      <contour>
        <pt x="471" y="75" on="1"/>
        <pt x="368" y="-91" on="1"/>
        <pt x="271" y="-30" on="1"/>
        <pt x="377" y="141" on="1"/>
        <pt x="187" y="302" on="0"/>
        <pt x="135" y="581" on="1"/>
        <pt x="119" y="667" on="0"/>
        <pt x="119" y="854" on="0"/>
        <pt x="159" y="1048" on="0"/>
        <pt x="240" y="1225" on="0"/>
        <pt x="362" y="1376" on="0"/>
        <pt x="443" y="1432" on="1"/>
        <pt x="615" y="1551" on="0"/>
        <pt x="1043" y="1551" on="0"/>
        <pt x="1200" y="1468" on="1"/>
        <pt x="1295" y="1621" on="1"/>
        <pt x="1391" y="1560" on="1"/>
        <pt x="1295" y="1405" on="1"/>
        <pt x="1508" y="1237" on="0"/>
        <pt x="1566" y="940" on="1"/>
        <pt x="1584" y="848" on="0"/>
        <pt x="1584" y="655" on="0"/>
        <pt x="1544" y="462" on="0"/>
        <pt x="1463" y="290" on="0"/>
        <pt x="1341" y="145" on="0"/>
        <pt x="1260" y="92" on="1"/>
        <pt x="1087" y="-20" on="0"/>
        <pt x="636" y="-20" on="0"/>
      </contour>
      <contour>
        <pt x="1133" y="1359" on="1"/>
        <pt x="1020" y="1443" on="0"/>
        <pt x="853" y="1443" on="1"/>
        <pt x="500" y="1443" on="0"/>
        <pt x="398" y="1078" on="1"/>
        <pt x="358" y="937" on="0"/>
        <pt x="358" y="756" on="1"/>
        <pt x="358" y="451" on="0"/>
        <pt x="464" y="281" on="1"/>
      </contour>
      <contour>
        <pt x="541" y="188" on="1"/>
        <pt x="658" y="81" on="0"/>
        <pt x="853" y="81" on="1"/>
        <pt x="1205" y="81" on="0"/>
        <pt x="1309" y="434" on="1"/>
        <pt x="1349" y="570" on="0"/>
        <pt x="1349" y="756" on="1"/>
        <pt x="1349" y="1102" on="0"/>
        <pt x="1216" y="1277" on="1"/>
      </contour>
    </TTGlyph>
    <TTGlyph name="Otilde" xMin="119" yMin="-20" xMax="1584" yMax="1971">
      <contour>
        <pt x="119" y="756" on="1"/>
        <pt x="119" y="854" on="0"/>
        <pt x="159" y="1048" on="0"/>
        <pt x="240" y="1225" on="0"/>
        <pt x="362" y="1376" on="0"/>
        <pt x="443" y="1432" on="1"/>
        <pt x="615" y="1551" on="0"/>
        <pt x="851" y="1551" on="1"/>
        <pt x="1200" y="1551" on="0"/>
        <pt x="1402" y="1300" on="1"/>
        <pt x="1584" y="1075" on="0"/>
        <pt x="1584" y="756" on="1"/>
        <pt x="1584" y="434" on="0"/>
        <pt x="1402" y="218" on="1"/>
        <pt x="1202" y="-20" on="0"/>
        <pt x="851" y="-20" on="1"/>
        <pt x="498" y="-20" on="0"/>
        <pt x="300" y="220" on="1"/>
        <pt x="119" y="438" on="0"/>
      </contour>
      <contour>
        <pt x="358" y="674" on="0"/>
        <pt x="376" y="510" on="0"/>
        <pt x="419" y="360" on="0"/>
        <pt x="491" y="230" on="0"/>
        <pt x="546" y="182" on="1"/>
        <pt x="664" y="81" on="0"/>
        <pt x="853" y="81" on="1"/>
        <pt x="1205" y="81" on="0"/>
        <pt x="1309" y="434" on="1"/>
        <pt x="1349" y="570" on="0"/>
        <pt x="1349" y="756" on="1"/>
        <pt x="1349" y="1296" on="0"/>
        <pt x="1028" y="1415" on="1"/>
        <pt x="953" y="1443" on="0"/>
        <pt x="853" y="1443" on="1"/>
        <pt x="500" y="1443" on="0"/>
        <pt x="398" y="1078" on="1"/>
        <pt x="358" y="937" on="0"/>
      </contour>
      <contour>
        <pt x="687" y="1804" on="1"/>
        <pt x="608" y="1804" on="0"/>
        <pt x="592" y="1716" on="1"/>
        <pt x="499" y="1716" on="1"/>
        <pt x="505" y="1831" on="0"/>
        <pt x="579" y="1903" on="1"/>
        <pt x="649" y="1971" on="0"/>
        <pt x="739" y="1971" on="1"/>
        <pt x="799" y="1971" on="0"/>
        <pt x="897" y="1915" on="1"/>
        <pt x="976" y="1869" on="0"/>
        <pt x="1015" y="1869" on="1"/>
        <pt x="1094" y="1869" on="0"/>
        <pt x="1110" y="1957" on="1"/>
        <pt x="1203" y="1957" on="1"/>
        <pt x="1197" y="1844" on="0"/>
        <pt x="1123" y="1770" on="1"/>
        <pt x="1053" y="1702" on="0"/>
        <pt x="963" y="1702" on="1"/>
        <pt x="906" y="1702" on="0"/>
        <pt x="810" y="1757" on="1"/>
        <pt x="747" y="1789" on="1"/>
        <pt x="716" y="1804" on="0"/>
      </contour>
    </TTGlyph>
    <TTGlyph name="P" xMin="96" yMin="0" xMax="1261" yMax="1552">
      <contour>
        <pt x="618" y="648" on="1"/>
        <pt x="660" y="640" on="0"/>
        <pt x="803" y="640" on="0"/>
        <pt x="924" y="700" on="0"/>
        <pt x="962" y="754" on="1"/>
        <pt x="1035" y="858" on="0"/>
        <pt x="1035" y="1048" on="1"/>
        <pt x="1035" y="1231" on="0"/>
        <pt x="988" y="1320" on="1"/>
        <pt x="922" y="1443" on="0"/>
        <pt x="733" y="1443" on="1"/>
        <pt x="501" y="1443" on="0"/>
        <pt x="478" y="1330" on="1"/>
        <pt x="471" y="1295" on="0"/>
        <pt x="471" y="1254" on="1"/>
        <pt x="471" y="264" on="1"/>
        <pt x="471" y="206" on="0"/>
        <pt x="483" y="142" on="0"/>
        <pt x="523" y="108" on="0"/>
        <pt x="600" y="95" on="0"/>
        <pt x="665" y="88" on="1"/>
        <pt x="720" y="82" on="1"/>
        <pt x="720" y="0" on="1"/>
        <pt x="96" y="0" on="1"/>
        <pt x="96" y="82" on="1"/>
        <pt x="101" y="84" on="0"/>
        <pt x="121" y="85" on="0"/>
        <pt x="172" y="92" on="0"/>
        <pt x="226" y="106" on="0"/>
        <pt x="242" y="124" on="1"/>
        <pt x="269" y="155" on="0"/>
        <pt x="269" y="264" on="1"/>
        <pt x="269" y="1277" on="1"/>
        <pt x="269" y="1374" on="0"/>
        <pt x="224" y="1420" on="0"/>
        <pt x="155" y="1438" on="0"/>
        <pt x="96" y="1443" on="1"/>
        <pt x="96" y="1530" on="1"/>
        <pt x="356" y="1530" on="1"/>
        <pt x="453" y="1530" on="0"/>
        <pt x="648" y="1552" on="0"/>
        <pt x="901" y="1552" on="0"/>
        <pt x="1099" y="1471" on="0"/>
        <pt x="1157" y="1403" on="1"/>
        <pt x="1261" y="1281" on="0"/>
        <pt x="1261" y="1060" on="1"/>
        <pt x="1261" y="836" on="0"/>
        <pt x="1143" y="696" on="1"/>
        <pt x="1007" y="535" on="0"/>
        <pt x="742" y="535" on="1"/>
        <pt x="681" y="535" on="0"/>
        <pt x="601" y="555" on="1"/>
      </contour>
    </TTGlyph>
    <TTGlyph name="Q" xMin="118" yMin="-368" xMax="1756" yMax="1551">
      <contour>
        <pt x="1210" y="58" on="1"/>
        <pt x="1052" y="-26" on="0"/>
        <pt x="851" y="-26" on="1"/>
        <pt x="497" y="-26" on="0"/>
        <pt x="298" y="217" on="1"/>
        <pt x="118" y="438" on="0"/>
        <pt x="118" y="756" on="1"/>
        <pt x="118" y="1075" on="0"/>
        <pt x="300" y="1300" on="1"/>
        <pt x="502" y="1551" on="0"/>
        <pt x="851" y="1551" on="1"/>
        <pt x="1200" y="1551" on="0"/>
        <pt x="1402" y="1300" on="1"/>
        <pt x="1584" y="1075" on="0"/>
        <pt x="1584" y="756" on="1"/>
        <pt x="1584" y="593" on="0"/>
        <pt x="1479" y="294" on="0"/>
        <pt x="1373" y="182" on="1"/>
        <pt x="1756" y="-316" on="1"/>
        <pt x="1696" y="-368" on="1"/>
      </contour>
      <contour>
        <pt x="357" y="674" on="0"/>
        <pt x="375" y="509" on="0"/>
        <pt x="418" y="358" on="0"/>
        <pt x="490" y="227" on="0"/>
        <pt x="545" y="178" on="1"/>
        <pt x="662" y="75" on="0"/>
        <pt x="852" y="75" on="1"/>
        <pt x="1204" y="75" on="0"/>
        <pt x="1308" y="432" on="1"/>
        <pt x="1348" y="570" on="0"/>
        <pt x="1348" y="756" on="1"/>
        <pt x="1348" y="1296" on="0"/>
        <pt x="1028" y="1415" on="1"/>
        <pt x="952" y="1443" on="0"/>
        <pt x="852" y="1443" on="1"/>
        <pt x="499" y="1443" on="0"/>
        <pt x="396" y="1078" on="1"/>
        <pt x="357" y="937" on="0"/>
      </contour>
    </TTGlyph>
    <TTGlyph name="R" xMin="91" yMin="-341" xMax="1607" yMax="1552">
      <contour>
        <pt x="1071" y="1108" on="1"/>
        <pt x="1071" y="1443" on="0"/>
        <pt x="745" y="1443" on="1"/>
        <pt x="503" y="1443" on="0"/>
        <pt x="475" y="1315" on="1"/>
        <pt x="467" y="1278" on="0"/>
        <pt x="467" y="1237" on="1"/>
        <pt x="467" y="265" on="1"/>
        <pt x="467" y="206" on="0"/>
        <pt x="479" y="142" on="0"/>
        <pt x="519" y="108" on="0"/>
        <pt x="596" y="95" on="0"/>
        <pt x="661" y="88" on="1"/>
        <pt x="715" y="82" on="1"/>
        <pt x="715" y="-1" on="1"/>
        <pt x="91" y="-1" on="1"/>
        <pt x="91" y="82" on="1"/>
        <pt x="125" y="87" on="1"/>
        <pt x="169" y="93" on="0"/>
        <pt x="223" y="106" on="0"/>
        <pt x="238" y="124" on="1"/>
        <pt x="264" y="154" on="0"/>
        <pt x="264" y="265" on="1"/>
        <pt x="264" y="1277" on="1"/>
        <pt x="264" y="1375" on="0"/>
        <pt x="219" y="1421" on="0"/>
        <pt x="150" y="1439" on="0"/>
        <pt x="91" y="1444" on="1"/>
        <pt x="91" y="1530" on="1"/>
        <pt x="351" y="1530" on="1"/>
        <pt x="408" y="1530" on="0"/>
        <pt x="502" y="1538" on="1"/>
        <pt x="684" y="1552" on="0"/>
        <pt x="889" y="1552" on="0"/>
        <pt x="1098" y="1484" on="0"/>
        <pt x="1166" y="1425" on="1"/>
        <pt x="1298" y="1309" on="0"/>
        <pt x="1298" y="1119" on="1"/>
        <pt x="1298" y="976" on="0"/>
        <pt x="1212" y="853" on="1"/>
        <pt x="1115" y="712" on="0"/>
        <pt x="926" y="650" on="1"/>
        <pt x="1607" y="-284" on="1"/>
        <pt x="1532" y="-341" on="1"/>
        <pt x="657" y="640" on="1"/>
        <pt x="701" y="729" on="1"/>
        <pt x="777" y="729" on="1"/>
        <pt x="896" y="729" on="0"/>
        <pt x="978" y="822" on="1"/>
        <pt x="1071" y="930" on="0"/>
      </contour>
    </TTGlyph>
    <TTGlyph name="Racute" xMin="91" yMin="-341" xMax="1607" yMax="1970">
      <contour>
        <pt x="1071" y="1108" on="1"/>
        <pt x="1071" y="1443" on="0"/>
        <pt x="745" y="1443" on="1"/>
        <pt x="503" y="1443" on="0"/>
        <pt x="475" y="1315" on="1"/>
        <pt x="467" y="1278" on="0"/>
        <pt x="467" y="1237" on="1"/>
        <pt x="467" y="265" on="1"/>
        <pt x="467" y="206" on="0"/>
        <pt x="479" y="142" on="0"/>
        <pt x="519" y="108" on="0"/>
        <pt x="596" y="95" on="0"/>
        <pt x="661" y="88" on="1"/>
        <pt x="715" y="82" on="1"/>
        <pt x="715" y="-1" on="1"/>
        <pt x="91" y="-1" on="1"/>
        <pt x="91" y="82" on="1"/>
        <pt x="125" y="87" on="1"/>
        <pt x="169" y="93" on="0"/>
        <pt x="223" y="106" on="0"/>
        <pt x="238" y="124" on="1"/>
        <pt x="264" y="154" on="0"/>
        <pt x="264" y="265" on="1"/>
        <pt x="264" y="1277" on="1"/>
        <pt x="264" y="1375" on="0"/>
        <pt x="219" y="1421" on="0"/>
        <pt x="150" y="1439" on="0"/>
        <pt x="91" y="1444" on="1"/>
        <pt x="91" y="1530" on="1"/>
        <pt x="351" y="1530" on="1"/>
        <pt x="408" y="1530" on="0"/>
        <pt x="502" y="1538" on="1"/>
        <pt x="684" y="1552" on="0"/>
        <pt x="889" y="1552" on="0"/>
        <pt x="1098" y="1484" on="0"/>
        <pt x="1166" y="1425" on="1"/>
        <pt x="1298" y="1309" on="0"/>
        <pt x="1298" y="1119" on="1"/>
        <pt x="1298" y="976" on="0"/>
        <pt x="1212" y="853" on="1"/>
        <pt x="1115" y="712" on="0"/>
        <pt x="926" y="650" on="1"/>
        <pt x="1607" y="-284" on="1"/>
        <pt x="1532" y="-341" on="1"/>
        <pt x="657" y="640" on="1"/>
        <pt x="701" y="729" on="1"/>
        <pt x="777" y="729" on="1"/>
        <pt x="896" y="729" on="0"/>
        <pt x="978" y="822" on="1"/>
        <pt x="1071" y="930" on="0"/>
      </contour>
      <contour>
        <pt x="415" y="1692" on="1"/>
        <pt x="867" y="1970" on="1"/>
        <pt x="981" y="1752" on="1"/>
        <pt x="447" y="1602" on="1"/>
      </contour>
    </TTGlyph>
    <TTGlyph name="Rcaron" xMin="91" yMin="-341" xMax="1607" yMax="1972">
      <contour>
        <pt x="1071" y="1108" on="1"/>
        <pt x="1071" y="1443" on="0"/>
        <pt x="745" y="1443" on="1"/>
        <pt x="503" y="1443" on="0"/>
        <pt x="475" y="1315" on="1"/>
        <pt x="467" y="1278" on="0"/>
        <pt x="467" y="1237" on="1"/>
        <pt x="467" y="265" on="1"/>
        <pt x="467" y="206" on="0"/>
        <pt x="479" y="142" on="0"/>
        <pt x="519" y="108" on="0"/>
        <pt x="596" y="95" on="0"/>
        <pt x="661" y="88" on="1"/>
        <pt x="715" y="82" on="1"/>
        <pt x="715" y="-1" on="1"/>
        <pt x="91" y="-1" on="1"/>
        <pt x="91" y="82" on="1"/>
        <pt x="125" y="87" on="1"/>
        <pt x="169" y="93" on="0"/>
        <pt x="223" y="106" on="0"/>
        <pt x="238" y="124" on="1"/>
        <pt x="264" y="154" on="0"/>
        <pt x="264" y="265" on="1"/>
        <pt x="264" y="1277" on="1"/>
        <pt x="264" y="1375" on="0"/>
        <pt x="219" y="1421" on="0"/>
        <pt x="150" y="1439" on="0"/>
        <pt x="91" y="1444" on="1"/>
        <pt x="91" y="1530" on="1"/>
        <pt x="351" y="1530" on="1"/>
        <pt x="408" y="1530" on="0"/>
        <pt x="502" y="1538" on="1"/>
        <pt x="684" y="1552" on="0"/>
        <pt x="889" y="1552" on="0"/>
        <pt x="1098" y="1484" on="0"/>
        <pt x="1166" y="1425" on="1"/>
        <pt x="1298" y="1309" on="0"/>
        <pt x="1298" y="1119" on="1"/>
        <pt x="1298" y="976" on="0"/>
        <pt x="1212" y="853" on="1"/>
        <pt x="1115" y="712" on="0"/>
        <pt x="926" y="650" on="1"/>
        <pt x="1607" y="-284" on="1"/>
        <pt x="1532" y="-341" on="1"/>
        <pt x="657" y="640" on="1"/>
        <pt x="701" y="729" on="1"/>
        <pt x="777" y="729" on="1"/>
        <pt x="896" y="729" on="0"/>
        <pt x="978" y="822" on="1"/>
        <pt x="1071" y="930" on="0"/>
      </contour>
      <contour>
        <pt x="362" y="1908" on="1"/>
        <pt x="426" y="1972" on="1"/>
        <pt x="708" y="1800" on="1"/>
        <pt x="708" y="1800" on="0"/>
        <pt x="971" y="1972" on="1"/>
        <pt x="1035" y="1908" on="1"/>
        <pt x="801" y="1627" on="1"/>
        <pt x="617" y="1627" on="1"/>
      </contour>
    </TTGlyph>
    <TTGlyph name="Rcommaaccent" xMin="91" yMin="-588" xMax="1607" yMax="1552">
      <contour>
        <pt x="1071" y="1108" on="1"/>
        <pt x="1071" y="1443" on="0"/>
        <pt x="745" y="1443" on="1"/>
        <pt x="503" y="1443" on="0"/>
        <pt x="475" y="1315" on="1"/>
        <pt x="467" y="1278" on="0"/>
        <pt x="467" y="1237" on="1"/>
        <pt x="467" y="265" on="1"/>
        <pt x="467" y="206" on="0"/>
        <pt x="479" y="142" on="0"/>
        <pt x="519" y="108" on="0"/>
        <pt x="596" y="95" on="0"/>
        <pt x="661" y="88" on="1"/>
        <pt x="715" y="82" on="1"/>
        <pt x="715" y="-1" on="1"/>
        <pt x="91" y="-1" on="1"/>
        <pt x="91" y="82" on="1"/>
        <pt x="125" y="87" on="1"/>
        <pt x="169" y="93" on="0"/>
        <pt x="223" y="106" on="0"/>
        <pt x="238" y="124" on="1"/>
        <pt x="264" y="154" on="0"/>
        <pt x="264" y="265" on="1"/>
        <pt x="264" y="1277" on="1"/>
        <pt x="264" y="1375" on="0"/>
        <pt x="219" y="1421" on="0"/>
        <pt x="150" y="1439" on="0"/>
        <pt x="91" y="1444" on="1"/>
        <pt x="91" y="1530" on="1"/>
        <pt x="351" y="1530" on="1"/>
        <pt x="408" y="1530" on="0"/>
        <pt x="502" y="1538" on="1"/>
        <pt x="684" y="1552" on="0"/>
        <pt x="889" y="1552" on="0"/>
        <pt x="1098" y="1484" on="0"/>
        <pt x="1166" y="1425" on="1"/>
        <pt x="1298" y="1309" on="0"/>
        <pt x="1298" y="1119" on="1"/>
        <pt x="1298" y="976" on="0"/>
        <pt x="1212" y="853" on="1"/>
        <pt x="1115" y="712" on="0"/>
        <pt x="926" y="650" on="1"/>
        <pt x="1607" y="-284" on="1"/>
        <pt x="1532" y="-341" on="1"/>
        <pt x="657" y="640" on="1"/>
        <pt x="701" y="729" on="1"/>
        <pt x="777" y="729" on="1"/>
        <pt x="896" y="729" on="0"/>
        <pt x="978" y="822" on="1"/>
        <pt x="1071" y="930" on="0"/>
      </contour>
      <contour>
        <pt x="793" y="-93" on="1"/>
        <pt x="943" y="-245" on="1"/>
        <pt x="943" y="-410" on="0"/>
        <pt x="810" y="-521" on="1"/>
        <pt x="762" y="-561" on="0"/>
        <pt x="692" y="-588" on="1"/>
        <pt x="650" y="-514" on="1"/>
        <pt x="685" y="-492" on="0"/>
        <pt x="736" y="-436" on="0"/>
        <pt x="736" y="-372" on="0"/>
        <pt x="726" y="-340" on="0"/>
        <pt x="715" y="-323" on="1"/>
        <pt x="697" y="-295" on="0"/>
        <pt x="644" y="-240" on="1"/>
      </contour>
    </TTGlyph>
    <TTGlyph name="S" xMin="137" yMin="-24" xMax="1269" yMax="1551">
      <contour>
        <pt x="935" y="1140" on="1"/>
        <pt x="981" y="1202" on="0"/>
        <pt x="981" y="1313" on="0"/>
        <pt x="935" y="1378" on="0"/>
        <pt x="896" y="1400" on="1"/>
        <pt x="815" y="1445" on="0"/>
        <pt x="686" y="1445" on="1"/>
        <pt x="569" y="1445" on="0"/>
        <pt x="492" y="1382" on="1"/>
        <pt x="415" y="1318" on="0"/>
        <pt x="415" y="1216" on="1"/>
        <pt x="415" y="1101" on="0"/>
        <pt x="515" y="1019" on="1"/>
        <pt x="565" y="978" on="0"/>
        <pt x="638" y="938" on="1"/>
        <pt x="910" y="797" on="0"/>
        <pt x="1070" y="708" on="0"/>
        <pt x="1133" y="654" on="1"/>
        <pt x="1269" y="539" on="0"/>
        <pt x="1269" y="396" on="1"/>
        <pt x="1269" y="181" on="0"/>
        <pt x="1103" y="72" on="1"/>
        <pt x="956" y="-24" on="0"/>
        <pt x="703" y="-24" on="1"/>
        <pt x="505" y="-24" on="0"/>
        <pt x="332" y="62" on="1"/>
        <pt x="212" y="122" on="0"/>
        <pt x="162" y="212" on="1"/>
        <pt x="137" y="258" on="0"/>
        <pt x="137" y="370" on="0"/>
        <pt x="186" y="457" on="0"/>
        <pt x="222" y="488" on="1"/>
        <pt x="289" y="547" on="0"/>
        <pt x="368" y="562" on="1"/>
        <pt x="422" y="498" on="1"/>
        <pt x="385" y="447" on="0"/>
        <pt x="374" y="378" on="0"/>
        <pt x="374" y="293" on="0"/>
        <pt x="428" y="197" on="0"/>
        <pt x="474" y="160" on="1"/>
        <pt x="576" y="79" on="0"/>
        <pt x="715" y="79" on="1"/>
        <pt x="956" y="79" on="0"/>
        <pt x="1028" y="232" on="1"/>
        <pt x="1051" y="281" on="0"/>
        <pt x="1051" y="415" on="0"/>
        <pt x="978" y="516" on="0"/>
        <pt x="863" y="595" on="0"/>
        <pt x="719" y="662" on="0"/>
        <pt x="538" y="756" on="0"/>
        <pt x="375" y="863" on="0"/>
        <pt x="322" y="918" on="1"/>
        <pt x="217" y="1028" on="0"/>
        <pt x="217" y="1170" on="1"/>
        <pt x="217" y="1345" on="0"/>
        <pt x="361" y="1450" on="1"/>
        <pt x="499" y="1551" on="0"/>
        <pt x="714" y="1551" on="1"/>
        <pt x="913" y="1551" on="0"/>
        <pt x="1048" y="1486" on="1"/>
        <pt x="1190" y="1418" on="0"/>
        <pt x="1190" y="1306" on="1"/>
        <pt x="1190" y="1200" on="0"/>
        <pt x="1094" y="1131" on="1"/>
        <pt x="1060" y="1106" on="0"/>
        <pt x="1009" y="1091" on="1"/>
      </contour>
    </TTGlyph>
    <TTGlyph name="Sacute" xMin="137" yMin="-24" xMax="1269" yMax="1970">
      <contour>
        <pt x="935" y="1140" on="1"/>
        <pt x="981" y="1202" on="0"/>
        <pt x="981" y="1313" on="0"/>
        <pt x="935" y="1378" on="0"/>
        <pt x="896" y="1400" on="1"/>
        <pt x="815" y="1445" on="0"/>
        <pt x="686" y="1445" on="1"/>
        <pt x="569" y="1445" on="0"/>
        <pt x="492" y="1382" on="1"/>
        <pt x="415" y="1318" on="0"/>
        <pt x="415" y="1216" on="1"/>
        <pt x="415" y="1101" on="0"/>
        <pt x="515" y="1019" on="1"/>
        <pt x="565" y="978" on="0"/>
        <pt x="638" y="938" on="1"/>
        <pt x="910" y="797" on="0"/>
        <pt x="1070" y="708" on="0"/>
        <pt x="1133" y="654" on="1"/>
        <pt x="1269" y="539" on="0"/>
        <pt x="1269" y="396" on="1"/>
        <pt x="1269" y="181" on="0"/>
        <pt x="1103" y="72" on="1"/>
        <pt x="956" y="-24" on="0"/>
        <pt x="703" y="-24" on="1"/>
        <pt x="505" y="-24" on="0"/>
        <pt x="332" y="62" on="1"/>
        <pt x="212" y="122" on="0"/>
        <pt x="162" y="212" on="1"/>
        <pt x="137" y="258" on="0"/>
        <pt x="137" y="370" on="0"/>
        <pt x="186" y="457" on="0"/>
        <pt x="222" y="488" on="1"/>
        <pt x="289" y="547" on="0"/>
        <pt x="368" y="562" on="1"/>
        <pt x="422" y="498" on="1"/>
        <pt x="385" y="447" on="0"/>
        <pt x="374" y="378" on="0"/>
        <pt x="374" y="293" on="0"/>
        <pt x="428" y="197" on="0"/>
        <pt x="474" y="160" on="1"/>
        <pt x="576" y="79" on="0"/>
        <pt x="715" y="79" on="1"/>
        <pt x="956" y="79" on="0"/>
        <pt x="1028" y="232" on="1"/>
        <pt x="1051" y="281" on="0"/>
        <pt x="1051" y="415" on="0"/>
        <pt x="978" y="516" on="0"/>
        <pt x="863" y="595" on="0"/>
        <pt x="719" y="662" on="0"/>
        <pt x="538" y="756" on="0"/>
        <pt x="375" y="863" on="0"/>
        <pt x="322" y="918" on="1"/>
        <pt x="217" y="1028" on="0"/>
        <pt x="217" y="1170" on="1"/>
        <pt x="217" y="1345" on="0"/>
        <pt x="361" y="1450" on="1"/>
        <pt x="499" y="1551" on="0"/>
        <pt x="714" y="1551" on="1"/>
        <pt x="913" y="1551" on="0"/>
        <pt x="1048" y="1486" on="1"/>
        <pt x="1190" y="1418" on="0"/>
        <pt x="1190" y="1306" on="1"/>
        <pt x="1190" y="1200" on="0"/>
        <pt x="1094" y="1131" on="1"/>
        <pt x="1060" y="1106" on="0"/>
        <pt x="1009" y="1091" on="1"/>
      </contour>
      <contour>
        <pt x="442" y="1692" on="1"/>
        <pt x="894" y="1970" on="1"/>
        <pt x="1008" y="1752" on="1"/>
        <pt x="474" y="1602" on="1"/>
      </contour>
    </TTGlyph>
    <TTGlyph name="Scaron" xMin="137" yMin="-24" xMax="1269" yMax="1972">
      <contour>
        <pt x="935" y="1140" on="1"/>
        <pt x="981" y="1202" on="0"/>
        <pt x="981" y="1313" on="0"/>
        <pt x="935" y="1378" on="0"/>
        <pt x="896" y="1400" on="1"/>
        <pt x="815" y="1445" on="0"/>
        <pt x="686" y="1445" on="1"/>
        <pt x="569" y="1445" on="0"/>
        <pt x="492" y="1382" on="1"/>
        <pt x="415" y="1318" on="0"/>
        <pt x="415" y="1216" on="1"/>
        <pt x="415" y="1101" on="0"/>
        <pt x="515" y="1019" on="1"/>
        <pt x="565" y="978" on="0"/>
        <pt x="638" y="938" on="1"/>
        <pt x="910" y="797" on="0"/>
        <pt x="1070" y="708" on="0"/>
        <pt x="1133" y="654" on="1"/>
        <pt x="1269" y="539" on="0"/>
        <pt x="1269" y="396" on="1"/>
        <pt x="1269" y="181" on="0"/>
        <pt x="1103" y="72" on="1"/>
        <pt x="956" y="-24" on="0"/>
        <pt x="703" y="-24" on="1"/>
        <pt x="505" y="-24" on="0"/>
        <pt x="332" y="62" on="1"/>
        <pt x="212" y="122" on="0"/>
        <pt x="162" y="212" on="1"/>
        <pt x="137" y="258" on="0"/>
        <pt x="137" y="370" on="0"/>
        <pt x="186" y="457" on="0"/>
        <pt x="222" y="488" on="1"/>
        <pt x="289" y="547" on="0"/>
        <pt x="368" y="562" on="1"/>
        <pt x="422" y="498" on="1"/>
        <pt x="385" y="447" on="0"/>
        <pt x="374" y="378" on="0"/>
        <pt x="374" y="293" on="0"/>
        <pt x="428" y="197" on="0"/>
        <pt x="474" y="160" on="1"/>
        <pt x="576" y="79" on="0"/>
        <pt x="715" y="79" on="1"/>
        <pt x="956" y="79" on="0"/>
        <pt x="1028" y="232" on="1"/>
        <pt x="1051" y="281" on="0"/>
        <pt x="1051" y="415" on="0"/>
        <pt x="978" y="516" on="0"/>
        <pt x="863" y="595" on="0"/>
        <pt x="719" y="662" on="0"/>
        <pt x="538" y="756" on="0"/>
        <pt x="375" y="863" on="0"/>
        <pt x="322" y="918" on="1"/>
        <pt x="217" y="1028" on="0"/>
        <pt x="217" y="1170" on="1"/>
        <pt x="217" y="1345" on="0"/>
        <pt x="361" y="1450" on="1"/>
        <pt x="499" y="1551" on="0"/>
        <pt x="714" y="1551" on="1"/>
        <pt x="913" y="1551" on="0"/>
        <pt x="1048" y="1486" on="1"/>
        <pt x="1190" y="1418" on="0"/>
        <pt x="1190" y="1306" on="1"/>
        <pt x="1190" y="1200" on="0"/>
        <pt x="1094" y="1131" on="1"/>
        <pt x="1060" y="1106" on="0"/>
        <pt x="1009" y="1091" on="1"/>
      </contour>
      <contour>
        <pt x="389" y="1908" on="1"/>
        <pt x="453" y="1972" on="1"/>
        <pt x="735" y="1800" on="1"/>
        <pt x="735" y="1800" on="0"/>
        <pt x="998" y="1972" on="1"/>
        <pt x="1062" y="1908" on="1"/>
        <pt x="828" y="1627" on="1"/>
        <pt x="644" y="1627" on="1"/>
      </contour>
    </TTGlyph>
</ttFont>
